<svg viewBox="0 0 12 13.3333" fill="none" xmlns="http://www.w3.org/2000/svg" xmlns:xlink="http://www.w3.org/1999/xlink" x="0" y="0"><g id="elements_11">
<path id="Vector 7302" d="M0.667,5.9997v2.667c0,2.2 0,3.3 0.683,3.983c0.683,0.684 1.783,0.684 3.983,0.684h1.334c2.2,0 3.299,0 3.983,-0.684c0.683,-0.683 0.683,-1.783 0.683,-3.983v-2.667" stroke="#DF1C41" stroke-linecap="round" stroke-linejoin="round"/>
<path id="Rectangle 1184" d="M0,4.6667c0,-0.499 0,-0.748 0.134,-0.933c0.088,-0.122 0.214,-0.223 0.366,-0.293c0.232,-0.107 0.544,-0.107 1.167,-0.107h8.666c0.623,0 0.935,0 1.167,0.107c0.152,0.07 0.278,0.171 0.366,0.293c0.134,0.185 0.134,0.434 0.134,0.933c0,0.498 0,0.748 -0.134,0.933c-0.088,0.122 -0.214,0.223 -0.366,0.293c-0.232,0.107 -0.544,0.107 -1.167,0.107h-8.666c-0.623,0 -0.935,0 -1.167,-0.107c-0.152,-0.07 -0.278,-0.171 -0.366,-0.293c-0.134,-0.185 -0.134,-0.435 -0.134,-0.933z" stroke="#DF1C41" stroke-linejoin="round"/>
<path id="Rectangle 2365" d="M2,1.1907c0,-0.658 0.533,-1.191 1.19,-1.191h0.239c1.42,0 2.571,1.152 2.571,2.572v0.762h-1.857c-1.184,0 -2.143,-0.96 -2.143,-2.143z" stroke="#DF1C41" stroke-linejoin="round"/>
<path id="Rectangle 2366" d="M10,1.1907c0,-0.658 -0.533,-1.191 -1.19,-1.191h-0.239c-1.42,0 -2.571,1.152 -2.571,2.572v0.762h1.857c1.184,0 2.143,-0.96 2.143,-2.143z" stroke="#DF1C41" stroke-linejoin="round"/>
<path id="Vector 4639" d="M6,5.9997v7.334" stroke="#DF1C41" stroke-linecap="round" stroke-linejoin="round"/>
</g></svg>