<svg viewBox="0 0 13.3333 13.3333" fill="none" xmlns="http://www.w3.org/2000/svg" xmlns:xlink="http://www.w3.org/1999/xlink" x="0" y="0"><g id="elements_10">
<path id="Rectangle 2356_2" d="M7.9997,3.9996h-2.666c-1.655,0 -2,0.346 -2,2v7.334h6.666v-7.334c0,-1.654 -0.345,-2 -2,-2z" stroke="#30B066" stroke-linejoin="round"/>
<path id="Vector_14" d="M5.9997,6.6666h1.334M5.9997,8.6666h1.334M5.9997,10.6666h1.334" stroke="#30B066" stroke-linecap="round" stroke-linejoin="round"/>
<path id="Vector 6066_2" d="M12.6667,13.3336v-9.21c0,-0.819 0,-1.228 -0.199,-1.557c-0.199,-0.329 -0.558,-0.512 -1.275,-0.878l-2.895,-1.478c-0.773,-0.395 -0.964,-0.256 -0.964,0.609v2.983" stroke="#30B066" stroke-linecap="round" stroke-linejoin="round"/>
<path id="Vector 6067_2" d="M0.6667,13.3336v-6c0,-0.552 0.115,-0.667 0.667,-0.667h2" stroke="#30B066" stroke-linecap="round" stroke-linejoin="round"/>
<path id="Vector 6068_2" d="M13.3337,13.3336h-13.334" stroke="#30B066" stroke-linecap="round" stroke-linejoin="round"/>
</g></svg>