<svg viewBox="0 0 12 13.3333" fill="none" xmlns="http://www.w3.org/2000/svg" xmlns:xlink="http://www.w3.org/1999/xlink" x="0" y="0"><g id="elements_12">
<path id="Vector_15" d="M2.385,8.9875c-0.943,0.562 -3.416,1.709 -1.91,3.144c0.736,0.701 1.555,1.202 2.586,1.202h5.878c1.031,0 1.85,-0.501 2.586,-1.202c1.506,-1.435 -0.967,-2.582 -1.91,-3.144c-2.212,-1.317 -5.018,-1.317 -7.23,0z" stroke="#4767E7" stroke-width="1.2" stroke-linecap="round" stroke-linejoin="round"/>
<path id="Ellipse 1381" d="M9,2.9995c0,1.657 -1.343,3 -3,3c-1.657,0 -3,-1.343 -3,-3c0,-1.656 1.343,-3 3,-3c1.657,0 3,1.344 3,3z" stroke="#4767E7" stroke-width="1.2"/>
</g></svg>