<svg viewBox="0 0 19.1309 18.6957" fill="none" xmlns="http://www.w3.org/2000/svg" xmlns:xlink="http://www.w3.org/1999/xlink" x="0" y="0"><g id="elements_5">
<path id="Vector 6067 (Stroke)" fill-rule="evenodd" clip-rule="evenodd" d="M2.826,10.2179v6.96c0,0.48 -0.389,0.87 -0.87,0.87c-0.48,0 -0.869,-0.39 -0.869,-0.87v-6.96c0,-0.2 0.009,-0.42 0.055,-0.63c0.048,-0.21 0.147,-0.47 0.365,-0.69c0.217,-0.22 0.475,-0.32 0.693,-0.36c0.208,-0.05 0.427,-0.06 0.626,-0.06h2.609c0.48,0 0.869,0.39 0.869,0.87c0,0.48 -0.389,0.87 -0.869,0.87z" fill="currentColor"/>
<path id="Vector 6066 (Stroke)" fill-rule="evenodd" clip-rule="evenodd" d="M11.047,0.0479c0.273,0.06 0.554,0.18 0.824,0.32l3.812,1.95c0.436,0.22 0.822,0.42 1.127,0.62c0.33,0.21 0.627,0.46 0.848,0.83c0.22,0.36 0.309,0.74 0.348,1.14c0.037,0.36 0.037,0.8 0.037,1.3v11.18c0,0.48 -0.389,0.87 -0.869,0.87c-0.481,0 -0.87,-0.39 -0.87,-0.87v-11.14c0,-0.55 -0.001,-0.9 -0.028,-1.17c-0.025,-0.24 -0.067,-0.35 -0.106,-0.41c-0.039,-0.06 -0.106,-0.15 -0.308,-0.28c-0.219,-0.14 -0.523,-0.3 -1.006,-0.54l-3.769,-1.93c0,0.01 0,0.01 0,0.02v3.89c0,0.48 -0.39,0.87 -0.87,0.87c-0.48,0 -0.869,-0.39 -0.869,-0.87v-3.89c0,-0.3 0.015,-0.6 0.077,-0.87c0.061,-0.26 0.2,-0.63 0.571,-0.87c0.377,-0.25 0.782,-0.22 1.051,-0.15z" fill="currentColor"/>
<path id="Subtract_3" d="M18.261,18.6979c0.48,0 0.87,-0.39 0.87,-0.87c0,-0.48 -0.39,-0.87 -0.87,-0.87h-3.174c-0.246,0 -0.369,0 -0.445,-0.08c-0.077,-0.07 -0.077,-0.2 -0.077,-0.44v-7.96c0,-0.55 -0.027,-1.04 -0.119,-1.46c-0.093,-0.42 -0.26,-0.81 -0.567,-1.11c-0.307,-0.31 -0.694,-0.48 -1.116,-0.57c-0.416,-0.09 -0.905,-0.12 -1.458,-0.12h-3.479c-0.553,0 -1.042,0.03 -1.458,0.12c-0.423,0.09 -0.81,0.26 -1.117,0.57c-0.307,0.3 -0.474,0.69 -0.566,1.11c-0.092,0.42 -0.12,0.91 -0.12,1.46v7.96c0,0.24 0,0.37 -0.077,0.44c-0.076,0.08 -0.199,0.08 -0.445,0.08h-3.174c-0.48,0 -0.869,0.39 -0.869,0.87c0,0.48 0.389,0.87 0.869,0.87zM8.695,9.1279c-0.36,0 -0.652,-0.29 -0.652,-0.65c0,-0.36 0.292,-0.65 0.652,-0.65h1.74c0.36,0 0.652,0.29 0.652,0.65c0,0.36 -0.292,0.65 -0.652,0.65zM8.695,11.7379c-0.36,0 -0.652,-0.29 -0.652,-0.65c0,-0.36 0.292,-0.65 0.652,-0.65h1.74c0.36,0 0.652,0.29 0.652,0.65c0,0.36 -0.292,0.65 -0.652,0.65zM8.695,14.3479c-0.36,0 -0.652,-0.29 -0.652,-0.65c0,-0.36 0.292,-0.65 0.652,-0.65h1.74c0.36,0 0.652,0.29 0.652,0.65c0,0.36 -0.292,0.65 -0.652,0.65z" fill="currentColor"/>
</g></svg>