<svg viewBox="0 0 20.4 24" fill="none" xmlns="http://www.w3.org/2000/svg" xmlns:xlink="http://www.w3.org/1999/xlink" x="0" y="0"><path id="Vector_14" d="M19.9722,18.703c-0.366,0.839 -0.8,1.611 -1.302,2.32c-0.685,0.968 -1.245,1.637 -1.677,2.009c-0.67,0.61 -1.388,0.923 -2.156,0.941c-0.552,0 -1.217,-0.156 -1.991,-0.471c-0.777,-0.314 -1.491,-0.47 -2.144,-0.47c-0.685,0 -1.419,0.156 -2.204,0.47c-0.787,0.315 -1.421,0.48 -1.905,0.496c-0.737,0.031 -1.472,-0.29 -2.205,-0.966c-0.468,-0.404 -1.053,-1.098 -1.754,-2.08c-0.752,-1.049 -1.371,-2.265 -1.855,-3.652c-0.519,-1.497 -0.779,-2.948 -0.779,-4.352c0,-1.608 0.35,-2.995 1.053,-4.158c0.552,-0.934 1.287,-1.67 2.206,-2.211c0.919,-0.541 1.912,-0.816 2.982,-0.834c0.585,0 1.353,0.18 2.306,0.532c0.952,0.354 1.562,0.533 1.83,0.533c0.2,0 0.879,-0.209 2.029,-0.628c1.087,-0.388 2.005,-0.548 2.757,-0.485c2.038,0.163 3.568,0.959 4.586,2.393c-1.822,1.094 -2.723,2.627 -2.705,4.593c0.016,1.531 0.577,2.806 1.678,3.817c0.5,0.47 1.057,0.833 1.678,1.091c-0.135,0.386 -0.277,0.757 -0.428,1.112zM15.2992,0.48c0,1.2 -0.442,2.321 -1.324,3.358c-1.065,1.234 -2.352,1.946 -3.748,1.834c-0.018,-0.144 -0.029,-0.296 -0.029,-0.455c0,-1.152 0.507,-2.386 1.406,-3.394c0.448,-0.51 1.019,-0.935 1.711,-1.273c0.691,-0.334 1.344,-0.518 1.959,-0.55c0.018,0.16 0.025,0.321 0.025,0.48z" fill="currentColor"/></svg>