<svg viewBox="0 0 11.7554 10.5798" fill="none" xmlns="http://www.w3.org/2000/svg" xmlns:xlink="http://www.w3.org/1999/xlink" x="0" y="0"><g id="elements_2">
<path id="Vector 6235" d="M11.7525,5.2898h-4.11c-0.38,0 -0.75,-0.124 -1.06,-0.353l-1.41,-1.058c-0.31,-0.228 -0.68,-0.352 -1.06,-0.352h-4.11" stroke="#0E0E0F" stroke-width="1.13356" stroke-linecap="round" stroke-linejoin="round"/>
<path id="Vector 6236" d="M0.5925,3.5268v1.175c0,2.217 0,3.325 0.68,4.014c0.69,0.688 1.8,0.688 4.02,0.688h1.76c1.65,0 2.48,0 3.07,-0.396c0.26,-0.171 0.48,-0.392 0.65,-0.648c0.39,-0.593 0.39,-1.419 0.39,-3.07" stroke="#0E0E0F" stroke-width="1.13356" stroke-linecap="round" stroke-linejoin="round"/>
<path id="Vector_21" d="M9.4025,9.4038v1.176M2.3525,9.4038v1.176" stroke="#0E0E0F" stroke-width="1.13356" stroke-linecap="round" stroke-linejoin="round"/>
<path id="Vector 6239" d="M1.7625,3.5268v-2.645c0,-0.487 0.4,-0.882 0.88,-0.882c0.49,0 0.88,0.395 0.88,0.882v0.294" stroke="#0E0E0F" stroke-width="1.13356" stroke-linecap="round" stroke-linejoin="round"/>
</g></svg>