<svg viewBox="0 0 11.7554 10.58" fill="none" xmlns="http://www.w3.org/2000/svg" xmlns:xlink="http://www.w3.org/1999/xlink" x="0" y="0"><g id="elements">
<path id="Vector 6176" d="M11.7549,8.523h-11.75" stroke="#0E0E0F" stroke-width="0.832817" stroke-linecap="round" stroke-linejoin="round"/>
<path id="Vector 6177" d="M11.7549,10.58v-2.939c0,-1.108 0,-1.662 -0.34,-2.007c-0.35,-0.344 -0.9,-0.344 -2.01,-0.344h-7.05c-1.11,0 -1.67,0 -2.01,0.344c-0.34,0.345 -0.34,0.899 -0.34,2.007v2.939" stroke="#0E0E0F" stroke-width="0.832817" stroke-linecap="round" stroke-linejoin="round"/>
<path id="Ellipse 1760" d="M8.2249,5.29v-0.812c0,-0.299 -0.05,-0.398 -0.33,-0.516c-0.57,-0.245 -1.27,-0.435 -2.02,-0.435c-0.75,0 -1.45,0.19 -2.02,0.435c-0.27,0.118 -0.33,0.217 -0.33,0.516v0.812" stroke="#0E0E0F" stroke-width="0.832817" stroke-linecap="round"/>
<path id="Ellipse 1758" d="M10.5749,5.29v-2.727c0,-0.406 0,-0.61 -0.1,-0.802c-0.1,-0.192 -0.24,-0.291 -0.53,-0.49c-1.15,-0.801 -2.55,-1.271 -4.07,-1.271c-1.51,0 -2.92,0.47 -4.07,1.271c-0.29,0.199 -0.43,0.298 -0.53,0.49c-0.1,0.192 -0.1,0.396 -0.1,0.802v2.727" stroke="#0E0E0F" stroke-width="0.832817" stroke-linecap="round"/>
</g></svg>