<svg viewBox="0 0 12.5006 9.0007" fill="none" xmlns="http://www.w3.org/2000/svg" xmlns:xlink="http://www.w3.org/1999/xlink" x="0" y="0"><path id="Vector_235" d="M12.354,0.8502l-8,8c-0.046,0.05 -0.102,0.09 -0.162,0.11c-0.061,0.03 -0.126,0.04 -0.192,0.04c-0.065,0 -0.13,-0.01 -0.191,-0.04c-0.061,-0.02 -0.116,-0.06 -0.162,-0.11l-3.5,-3.5c-0.094,-0.09 -0.147,-0.22 -0.147,-0.35c0,-0.13 0.053,-0.26 0.147,-0.35c0.093,-0.1 0.221,-0.15 0.353,-0.15c0.133,0 0.26,0.05 0.354,0.15l3.146,3.14l7.647,-7.64c0.093,-0.1 0.221,-0.15 0.353,-0.15c0.133,0 0.26,0.05 0.354,0.15c0.094,0.09 0.147,0.22 0.147,0.35c0,0.13 -0.053,0.26 -0.147,0.35z" fill="currentColor"/></svg>