<svg viewBox="0 0 16.6667 15.8333" fill="none" xmlns="http://www.w3.org/2000/svg" xmlns:xlink="http://www.w3.org/1999/xlink" x="0" y="0"><g id="elements_25">
<path id="Vector_42" d="M5.4166,9.9997h5.8333M5.4166,5.8337h2.9167" stroke="#6B7280" stroke-width="1.25" stroke-linecap="round" stroke-linejoin="round"/>
<path id="Vector_43" d="M10.1421,15.3257c3.4859,-0.232 6.2625,-3.048 6.491,-6.583c0.0447,-0.692 0.0447,-1.409 0,-2.1c-0.2285,-3.536 -3.0051,-6.352 -6.491,-6.584c-1.1892,-0.079 -2.4308,-0.078 -3.6176,0c-3.4859,0.232 -6.2625,3.048 -6.491,6.584c-0.0447,0.691 -0.0447,1.408 0,2.1c0.0832,1.287 0.6527,2.479 1.3231,3.486c0.3892,0.705 0.1323,1.584 -0.2731,2.353c-0.2924,0.554 -0.4385,0.831 -0.3212,1.031c0.1174,0.2 0.3796,0.206 0.9039,0.219c1.0368,0.025 1.736,-0.269 2.291,-0.678c0.3148,-0.232 0.4722,-0.348 0.5806,-0.361c0.1085,-0.014 0.322,0.074 0.7488,0.25c0.3837,0.158 0.8292,0.256 1.2379,0.283c1.1868,0.079 2.4284,0.079 3.6176,0z" stroke="#6B7280" stroke-width="1.25" stroke-linejoin="round"/>
</g></svg>