<svg viewBox="0 0 17.9161 17.917" fill="none" xmlns="http://www.w3.org/2000/svg" xmlns:xlink="http://www.w3.org/1999/xlink" x="0" y="0"><path id="Subtract" d="M8.958,0.0003c0.7217,0 1.3669,0.231 2.0635,0.622c0.6749,0.379 1.4485,0.937 2.4209,1.64l1.2578,0.91c0.7803,0.564 1.4039,1.015 1.874,1.432c0.4851,0.431 0.8478,0.86 1.0781,1.4c0.2309,0.541 0.2869,1.096 0.2559,1.736c-0.0299,0.617 -0.1444,1.362 -0.2871,2.291l-0.2627,1.709c-0.2028,1.32 -0.3644,2.371 -0.6016,3.189c-0.2453,0.847 -0.5903,1.52 -1.208,2.034c-0.6151,0.511 -1.3481,0.739 -2.2431,0.847c-0.8707,0.106 -1.9692,0.107 -3.3565,0.107h-1.9824c-1.3872,0 -2.4858,-0.001 -3.3564,-0.107c-0.8951,-0.108 -1.6281,-0.336 -2.2432,-0.847c-0.6177,-0.514 -0.9627,-1.187 -1.208,-2.034c-0.2372,-0.818 -0.3988,-1.869 -0.6016,-3.189l-0.2627,-1.709c-0.1427,-0.929 -0.2572,-1.674 -0.2871,-2.291c-0.031,-0.64 0.025,-1.195 0.2559,-1.736c0.2303,-0.54 0.593,-0.969 1.0781,-1.4c0.4701,-0.417 1.0937,-0.868 1.874,-1.432l1.2578,-0.91c0.9724,-0.703 1.7461,-1.261 2.4209,-1.64c0.6966,-0.391 1.3418,-0.622 2.0635,-0.622zM12.1152,12.6133c-0.2827,-0.363 -0.8058,-0.428 -1.1689,-0.145c-0.5173,0.402 -1.2118,0.657 -1.9883,0.657c-0.7764,0 -1.471,-0.255 -1.9883,-0.657c-0.3631,-0.283 -0.8862,-0.218 -1.1689,0.145c-0.2827,0.363 -0.2176,0.886 0.1455,1.169c0.8152,0.635 1.8711,1.01 3.0117,1.01c1.1406,0 2.1965,-0.375 3.0117,-1.01c0.3631,-0.283 0.4282,-0.806 0.1455,-1.169z" fill="currentColor"/></svg>