<svg viewBox="0 0 21.5006 18.4994" fill="none" xmlns="http://www.w3.org/2000/svg" xmlns:xlink="http://www.w3.org/1999/xlink" x="0" y="0"><path id="Subtract" d="M7.8305,0.0358c1.952,-0.049 3.887,-0.049 5.839,0l0.059,0.002c1.525,0.039 2.752,0.069 3.735,0.241c1.03,0.179 1.867,0.522 2.574,1.232c0.703,0.706 1.045,1.531 1.221,2.544c0.168,0.964 0.193,2.162 0.225,3.644l0.001,0.059c0.021,0.996 0.021,1.987 0,2.983l-0.001,0.059c-0.032,1.483 -0.057,2.68 -0.225,3.645c-0.176,1.012 -0.518,1.837 -1.221,2.544c-0.707,0.709 -1.544,1.053 -2.574,1.232c-0.983,0.171 -2.21,0.203 -3.735,0.241l-0.059,0.001c-1.952,0.049 -3.887,0.049 -5.839,0l-0.058,-0.001c-1.525,-0.038 -2.752,-0.07 -3.735,-0.241c-1.03,-0.179 -1.867,-0.523 -2.574,-1.232c-0.703,-0.707 -1.045,-1.532 -1.221,-2.544c-0.168,-0.965 -0.193,-2.162 -0.225,-3.645l-0.001,-0.059c-0.021,-0.996 -0.021,-1.987 0,-2.983l0.001,-0.059c0.032,-1.482 0.057,-2.68 0.225,-3.644c0.176,-1.013 0.518,-1.838 1.221,-2.544c0.707,-0.709 1.544,-1.053 2.574,-1.232c0.983,-0.172 2.21,-0.202 3.735,-0.241zM16.3965,5.3678c-0.211,-0.356 -0.671,-0.474 -1.027,-0.263l-2.943,1.739c-0.844,0.499 -1.293,0.656 -1.676,0.656c-0.383,0 -0.832,-0.157 -1.676,-0.656l-2.943,-1.739c-0.356,-0.211 -0.816,-0.093 -1.027,0.263c-0.211,0.357 -0.092,0.817 0.265,1.028l2.941,1.739c0.871,0.515 1.622,0.865 2.44,0.865c0.817,0 1.569,-0.35 2.44,-0.865l2.941,-1.739c0.357,-0.211 0.476,-0.671 0.265,-1.028z" fill="currentColor"/></svg>