<svg viewBox="0 0 14.1667 16.6673" fill="none" xmlns="http://www.w3.org/2000/svg" xmlns:xlink="http://www.w3.org/1999/xlink" x="0" y="0"><g id="elements_4">
<path id="Vector 4381" d="M10.4134,12.5h-5.83" stroke="#36393F" stroke-width="1.25" stroke-linecap="round" stroke-linejoin="round"/>
<path id="Vector 4382" d="M10.4134,9.167h-2.5" stroke="#36393F" stroke-width="1.25" stroke-linecap="round" stroke-linejoin="round"/>
<path id="Rectangle 2173" d="M14.1634,10c0,3.143 0,4.714 -1.03,5.691c-1.04,0.976 -2.71,0.976 -6.05,0.976h-0.64c-2.72,0 -4.08,0 -5.02,-0.665c-0.27,-0.19 -0.51,-0.416 -0.72,-0.671c-0.7,-0.888 -0.7,-2.167 -0.7,-4.725v-2.121c0,-2.469 0,-3.704 0.39,-4.69c0.63,-1.585 1.95,-2.836 3.64,-3.427c1.05,-0.368 2.36,-0.368 4.98,-0.368c1.5,0 2.25,0 2.85,0.211c0.96,0.337 1.72,1.052 2.08,1.958c0.22,0.563 0.22,1.269 0.22,2.68z" stroke="#36393F" stroke-width="1.25" stroke-linejoin="round"/>
<path id="Vector_6" d="M0.0034,8.334c0,-1.534 1.24,-2.778 2.77,-2.778c0.56,0 1.21,0.097 1.75,-0.047c0.48,-0.129 0.86,-0.503 0.98,-0.982c0.15,-0.54 0.05,-1.194 0.05,-1.749c0,-1.534 1.25,-2.777 2.78,-2.777" stroke="#36393F" stroke-width="1.25" stroke-linecap="round" stroke-linejoin="round"/>
</g></svg>