<svg viewBox="0 0 32.9961 36.5336" fill="none" xmlns="http://www.w3.org/2000/svg" xmlns:xlink="http://www.w3.org/1999/xlink" x="0" y="0"><g id="Group_2">
<path id="Vector_17" fill-rule="evenodd" clip-rule="evenodd" d="M15.7351,0.0219c6.7721,-0.3854 17.0187,4.4276 17.215,4.9542c0.0958,0.2568 0.0136,10.4913 0.0063,11.4034c-0.0371,0.0558 -0.1342,0.0494 -0.1714,0.1052c-0.0401,0.0602 -0.225,1.8641 -1.7048,4.556c-1.3711,2.4943 -2.919,4.0341 -3.6437,5.0319c-0.2743,0.3776 -0.374,0.1298 -0.4429,0.0946c3.8089,-4.3634 3.2232,-6.1437 3.2769,-15.593c0.0212,-3.7181 0.1027,-3.7463 -0.0639,-4.0216c-0.0573,-0.0946 -2.4466,-1.2127 -4.3329,-1.907c-6.8547,-2.5229 -10.878,-1.8994 -11.8229,-1.753c-0.8807,0.1366 -5.8868,0.9124 -10.6391,3.3018c-0.0594,0.0299 -0.6543,0.3291 -0.6859,0.4695c-0.0085,0.0374 -0.0043,11.7445 0.0024,11.9326c0.1002,2.8565 0.9682,4.2268 1.4505,5.1429c-0.059,0.003 -0.0991,0.0773 -0.1581,0.0803c-0.0957,0.0048 -0.2882,-0.3413 -0.307,-0.3753c-0.8624,-1.5511 -0.957,-1.4891 -1.7626,-3.0726c-1.3324,-2.6189 -1.6368,-4.5921 -1.6619,-4.6258c-0.036,-0.0484 -0.0166,-0.0441 -0.0093,-0.1056c0.0368,-0.3099 -0.092,-0.5865 -0.1137,-0.6332c-0.0222,-0.0476 -0.094,-0.059 -0.1161,-0.1066c-0.0417,-1.3791 -0.0512,-1.9429 -0.044,-5.8035c0.0073,-4.0102 -0.0807,-4.1122 0.2356,-4.2893c7.3824,-4.135 14.2005,-4.6821 15.4935,-4.7859z" fill="currentColor"/>
<path id="Vector_18" fill-rule="evenodd" clip-rule="evenodd" d="M18.9961,17.2437c0.8965,0.4401 0.8851,0.4421 1.7817,0.8768c0.2931,0.1422 0.2393,0.2346 0.244,3.008c0.0058,3.3663 -0.0695,3.7887 0.2212,3.5217c1.0881,-0.9993 4.3305,-2.615 3.7877,-4.8953c-0.2792,-1.1732 -0.4983,-1.1206 -6.728,-5.4315c-0.6351,-0.4394 -0.5297,-0.5488 -0.5289,-1.321c0.0012,-1.272 -0.004,-1.2628 -0.0031,-2.533c0.004,-5.299 -0.0043,-5.3027 0.0224,-5.3581c0.1231,-0.2554 3.4198,0.6663 3.8524,0.8193c1.4797,0.5233 6.8429,2.0639 6.5268,6.7537c-0.1882,2.7938 -2.1777,3.3311 -1.7614,3.6772c3.3327,2.769 1.2061,6.4575 0.4741,7.3765c-1.1972,1.5032 -6.1165,4.9465 -7.6436,5.973c-0.0018,-0.0011 -0.0349,-0.1836 -0.2345,-0.1466c-0.0199,0.0037 -0.1144,0.0211 -0.2435,-0.0636c-0.0313,-0.0204 -0.0123,-10.5218 -0.0106,-11.4367c0.0009,-0.4591 -0.1195,-0.5312 0.2433,-0.8204zM21.0326,14.4797c0.0128,0.3235 -0.1859,0.5628 0.4026,0.6196c0.1927,0.0007 3.1054,0.4 3.5844,-1.9922c0.3186,-1.5907 -0.8822,-3.0484 -3.1673,-3.7864c-0.6542,-0.2113 -0.8197,-0.32 -0.8199,-0.0114c-0.0004,0.4136 -0.0038,3.8335 0.0002,5.1704z" fill="currentColor"/>
<path id="Vector_19" fill-rule="evenodd" clip-rule="evenodd" d="M6.781,23.8572c-1.7311,-1.8827 -1.7649,-1.8799 -1.7818,-2.0996c-0.0814,-1.0604 -0.0347,-1.0588 -0.0256,-13.2936c0.0003,-0.4172 0.401,-0.4849 2.0856,-1.2095c0.2859,-0.1229 1.0694,-0.5405 1.1773,-0.3707c0.0464,0.073 0.0194,8.0444 0.04,8.1121c0.0692,0.2286 3.4611,0.1184 3.5093,0.0695c0.1061,-0.1074 0.0311,-7.1918 0.0592,-9.0287c0.0072,-0.4685 0.1756,-0.3799 0.6273,-0.4921c2.4493,-0.6084 2.5859,-0.5585 2.5978,-0.3491c0.0001,0.0025 -0.006,8.5367 -0.0067,8.544c-0.0398,0.4388 -1.5008,1.189 -5.8866,4.4124c-0.1299,0.0954 -0.1439,0.0563 -0.7291,0.0901c-0.2487,0.0143 -0.1801,0.8476 -0.1797,1.5143c0.0037,5.4542 0.0457,5.456 0.0287,5.4774c-0.173,0.2186 -0.1947,0.0253 -0.3859,-0.1863c-0.0881,-0.0974 -0.0936,-0.0889 -1.1298,-1.1902z" fill="currentColor"/>
<path id="Vector_20" fill-rule="evenodd" clip-rule="evenodd" d="M32.9564,16.3796c0.005,0.4278 0.0398,1.395 -0.0599,2.9514c-0.5874,9.1667 -12.8414,16.2104 -16.3193,17.1972c-0.405,0.1149 -4.0806,-1.6177 -5.929,-2.9074c0.262,-0.1277 0.2678,-0.0675 0.5489,0.0284c2.3161,0.7884 4.6052,0.1262 4.7545,0.1521c0.0638,0.0111 0.0326,0.0586 0.0964,0.0655c0.0225,0.0024 0.0156,-0.0132 0.2161,-0.1824c0.6122,0.0955 4.9271,-1.8744 9.1203,-5.8606c0.8444,-0.8026 0.8249,-0.8071 1.6092,-1.6565c0.0689,0.0352 0.1686,0.283 0.4429,-0.0946c0.7246,-0.9978 2.2726,-2.5376 3.6437,-5.032c1.4798,-2.6918 1.6647,-4.4957 1.7048,-4.5559c0.0372,-0.0558 0.1343,-0.0494 0.1714,-0.1052z" fill="currentColor"/>
<path id="Vector_21" fill-rule="evenodd" clip-rule="evenodd" d="M0.05,14.9006c0.0221,0.0476 0.0939,0.059 0.1161,0.1066c0.0217,0.0466 0.1504,0.3232 0.1137,0.6332c-0.0073,0.0614 -0.0267,0.0572 0.0093,0.1055c0.0251,0.0338 0.3295,2.0069 1.6619,4.6258c0.8056,1.5835 0.9002,1.5216 1.7626,3.0726c0.0188,0.034 0.2113,0.3802 0.307,0.3753c0.059,-0.0029 0.0991,-0.0772 0.1581,-0.0803c2.2191,3.7254 7.2021,7.8237 12.0854,9.945c-0.2005,0.1692 -0.1936,0.1848 -0.2161,0.1824c-0.0638,-0.0069 -0.0326,-0.0544 -0.0964,-0.0655c-0.1493,-0.0259 -2.4384,0.6363 -4.7545,-0.1522c-0.2811,-0.0958 -0.2869,-0.156 -0.5489,-0.0283c-1.4222,-0.9008 -2.2326,-1.5654 -2.4159,-1.7158c-8.2252,-6.745 -8.3581,-10.7959 -8.1823,-17.0043z" fill="currentColor"/>
<path id="Vector_22" fill-rule="evenodd" clip-rule="evenodd" d="M14.2634,30.0906c-0.656,-0.4432 -0.6517,-0.4359 -1.3038,-0.898c-0.7946,-0.5628 -1.1068,-0.4334 -1.115,-1.4151c-0.0024,-0.2888 -0.039,-9.2335 0.0026,-9.3876c0.0579,-0.2145 0.1318,-0.1513 0.6267,-0.4071c1.66,-0.8585 2.403,-1.269 2.5401,-1.207c0.1365,0.062 0.0563,0.1037 0.0542,0.6593c-0.0461,11.9485 0.1282,11.9443 0.012,12.9758c-0.0296,0.2634 -0.6438,-0.2125 -0.8168,-0.3203z" fill="currentColor"/>
<path id="Vector_23" fill-rule="evenodd" clip-rule="evenodd" d="M18.9961,17.2437c-0.3628,0.2891 -0.2424,0.3612 -0.2433,0.8203c-0.0017,0.9149 -0.0207,11.4163 0.0106,11.4367c0.1291,0.0847 0.2236,0.0673 0.2435,0.0636c0.1996,-0.037 0.2327,0.1455 0.2345,0.1466c-0.4158,0.2825 -0.4085,0.2753 -0.841,0.5418c-0.2679,0.165 -0.6274,0.601 -0.6214,-0.0486c0.1143,-12.326 -0.1402,-12.3308 -0.0147,-13.395c0.0204,-0.174 0.5549,0.1157 1.2318,0.4346z" fill="currentColor"/>
<path id="Vector_24" fill-rule="evenodd" clip-rule="evenodd" d="M11.7509,17.5911c-0.0661,0.0349 -3.348,1.7705 -0.9075,0.2241c1.2453,-0.7891 5.3826,-3.9147 5.6336,-3.8809c0.2484,0.0335 4.2467,3.047 5.8988,4.0385c0.3475,0.2086 0.1361,0.2921 0.1119,0.2873c-0.0871,-0.0176 -5.1275,-2.5383 -5.5725,-2.7609c-0.6876,-0.3438 -0.7191,-0.1331 -1.4085,0.2145c-1.7289,0.8714 -3.2924,1.6431 -3.7558,1.8774z" fill="currentColor"/>
<path id="Vector_25" fill-rule="evenodd" clip-rule="evenodd" d="M17.4684,20.2859c-0.0453,0.2415 -0.0841,0.3306 -0.6744,0.2763c-0.2589,-0.0239 -0.3004,-0.8972 -0.0054,-0.9263c0.9129,-0.0903 0.672,0.3533 0.6798,0.65z" fill="currentColor"/>
<path id="Vector_26" fill-rule="evenodd" clip-rule="evenodd" d="M16.2395,20.2839c-0.0675,0.4823 -0.8553,0.3746 -0.8625,0.0018c-0.0009,-0.0527 -0.0121,-0.6333 0.1455,-0.6432c0.055,-0.0034 0.5944,-0.0373 0.6834,0.0812c0.0462,0.0615 0.0246,0.0591 0.0336,0.5602z" fill="currentColor"/>
<path id="Vector_27" fill-rule="evenodd" clip-rule="evenodd" d="M17.4696,18.7014c-0.0308,0.3886 0.1378,0.5816 -0.2571,0.5882c-0.4215,0.007 -0.6042,0.0664 -0.6158,-0.4834c-0.0113,-0.5372 0.192,-0.4908 0.7221,-0.4248c0.213,0.0265 0.1318,0.1096 0.1508,0.32z" fill="currentColor"/>
<path id="Vector_28" fill-rule="evenodd" clip-rule="evenodd" d="M16.2388,18.9117c-0.0441,0.4951 -0.2108,0.4253 -0.7091,0.3788c-0.2289,-0.0214 -0.2453,-0.8944 -0.0057,-0.9067c0.0497,-0.0025 0.545,-0.0278 0.621,0.024c0.1931,0.1317 0.0831,0.1828 0.0938,0.5039z" fill="currentColor"/>
<path id="Vector_29" fill-rule="evenodd" clip-rule="evenodd" d="M18.5513,5.6188c-0.011,0.012 -0.1375,0.1494 -0.1375,0.1494c-0.1965,-0.0963 -0.1669,-0.1464 -0.1577,-0.1621c0.0867,-0.1469 0.1213,0.0053 0.2952,0.0127z" fill="currentColor"/>
</g></svg>