<svg viewBox="0 0 18.6957 16.0871" fill="none" xmlns="http://www.w3.org/2000/svg" xmlns:xlink="http://www.w3.org/1999/xlink" x="0" y="0"><g id="elements_4">
<path id="Vector 5810 (Stroke)" fill-rule="evenodd" clip-rule="evenodd" d="M2.3907,0.0035c0.481,0 0.87,0.39 0.87,0.87v3.56c0,0.48 -0.389,0.87 -0.87,0.87c-0.48,0 -0.869,-0.39 -0.869,-0.87v-3.56c0,-0.48 0.389,-0.87 0.869,-0.87z" fill="currentColor"/>
<path id="Subtract" fill-rule="evenodd" clip-rule="evenodd" d="M5.8697,12.8235c0,-0.48 -0.389,-0.87 -0.87,-0.87c-0.48,0 -0.869,0.39 -0.869,0.87v2.74c0,0.25 0,0.37 -0.077,0.45c-0.076,0.07 -0.199,0.07 -0.445,0.07h-2.087c-0.36,0 -0.652,-0.29 -0.652,-0.65v-6.62c0,-0.15 0,-0.23 0.039,-0.27c0.038,-0.05 0.124,-0.07 0.294,-0.11c0.403,-0.08 0.781,-0.3 1.063,-0.64l2.715,-3.29c0.114,-0.14 0.171,-0.21 0.248,-0.21c0.077,-0.01 0.14,0.06 0.266,0.18l3.059,3.06c0.098,0.1 0.242,0.25 0.429,0.39c0.075,0.06 0.113,0.09 0.13,0.13c0.018,0.03 0.018,0.08 0.018,0.16v7.22c0,0.36 -0.292,0.65 -0.652,0.65h-2.087c-0.246,0 -0.369,0 -0.446,-0.07c-0.076,-0.08 -0.076,-0.2 -0.076,-0.45zM5.8767,8.4735c0,0.49 -0.388,0.87 -0.866,0.87h-0.008c-0.478,0 -0.865,-0.38 -0.865,-0.87c0,-0.48 0.387,-0.86 0.865,-0.86h0.008c0.478,0 0.866,0.38 0.866,0.86z" fill="currentColor"/>
<path id="Subtract_2" fill-rule="evenodd" clip-rule="evenodd" d="M10.2697,8.5235c0.053,-0.05 0.15,-0.05 0.344,-0.05c0.083,0.01 0.156,0.01 0.216,0.01h6.65c0.162,0 0.244,0 0.295,0.05c0.051,0.05 0.051,0.13 0.051,0.29c0,0.09 0,0.18 0,0.27v6.34c0,0.36 -0.292,0.65 -0.652,0.65h-6.567c-0.217,0 -0.326,0 -0.378,-0.05c-0.052,-0.06 -0.04,-0.19 -0.018,-0.45c0.004,-0.05 0.007,-0.1 0.007,-0.15v-6.59c0,-0.18 0,-0.27 0.052,-0.32zM14.5657,11.7435c0.36,0 0.652,-0.3 0.652,-0.66c0,-0.36 -0.292,-0.65 -0.652,-0.65h-1.74c-0.36,0 -0.652,0.29 -0.652,0.65c0,0.36 0.292,0.66 0.652,0.66z" fill="currentColor"/>
<path id="Union" d="M13.8957,1.0935c-0.485,-0.23 -1.027,-0.22 -1.71,-0.22h-7.186c-0.006,0 -0.011,0 -0.017,0c-0.04,0 -0.06,0 -0.064,0c-0.004,0 -0.019,0 -0.048,0c-0.24,-0.01 -0.481,0.09 -0.646,0.29l-4.037,4.89c-0.286,0.35 -0.24,0.86 0.103,1.15c0.342,0.29 0.852,0.24 1.137,-0.11l3.354,-4.06c0.171,-0.21 0.257,-0.31 0.372,-0.31c0.115,-0.01 0.21,0.08 0.4,0.27l3.742,3.75c0.2,0.2 0.416,0.41 0.7,0.53c0.284,0.12 0.589,0.12 0.873,0.12h7.175c0.253,0 0.483,-0.15 0.59,-0.38c0.108,-0.23 0.073,-0.5 -0.089,-0.69l-3.381,-4.06c-0.437,-0.52 -0.783,-0.94 -1.268,-1.17z" fill="currentColor"/>
</g></svg>