<svg viewBox="0 0 9.1692 10.1096" fill="none" xmlns="http://www.w3.org/2000/svg" xmlns:xlink="http://www.w3.org/1999/xlink" x="0" y="0"><path id="Vector_20" d="M7.7427,1.0555c-0.89,-0.442 -1.98,-0.703 -3.16,-0.703c-1.17,0 -2.26,0.261 -3.15,0.703c-0.44,0.217 -0.66,0.326 -0.87,0.667c-0.21,0.342 -0.21,0.672 -0.21,1.333v1.641c0,2.672 2.14,4.158 3.37,4.794c0.35,0.178 0.52,0.266 0.86,0.266c0.34,0 0.52,-0.088 0.86,-0.266c1.24,-0.636 3.37,-2.122 3.37,-4.794v-1.641c0,-0.661 0,-0.991 -0.21,-1.333c-0.21,-0.341 -0.43,-0.45 -0.86,-0.667z" stroke="#D38C20" stroke-width="0.705324" stroke-linecap="round" stroke-linejoin="round"/></svg>