<svg viewBox="0 0 15.853 16.605" fill="none" xmlns="http://www.w3.org/2000/svg" xmlns:xlink="http://www.w3.org/1999/xlink" x="0" y="0"><path id="Vector_54" d="M-0.0003,15.1989v-1.59l2.609,0.85l8.433,-2.8l2.038,2.7c0.357,0.47 0.407,0.96 0.149,1.47c-0.258,0.52 -0.682,0.78 -1.272,0.78h-10.551c-0.39,0 -0.722,-0.14 -0.995,-0.41c-0.274,-0.28 -0.411,-0.61 -0.411,-1zM2.6087,13.5389l-2.609,-0.86v-2.38l2.609,0.85l4.512,-1.5l3.12,1.34zM13.5267,9.5889l1.694,-0.76c0.191,-0.09 0.344,-0.21 0.459,-0.38c0.116,-0.17 0.173,-0.37 0.173,-0.58v-0.69c0,-0.25 -0.075,-0.47 -0.226,-0.65c-0.151,-0.19 -0.349,-0.31 -0.595,-0.38l-1.513,-0.33c-0.158,-0.04 -0.314,-0.04 -0.467,0c-0.154,0.03 -0.294,0.1 -0.42,0.21l-0.726,0.57c-0.127,0.1 -0.225,0.23 -0.295,0.37c-0.07,0.14 -0.105,0.3 -0.105,0.47v0.74c0,0.17 0.035,0.33 0.105,0.47c0.07,0.14 0.168,0.27 0.295,0.37l0.529,0.43c0.158,0.13 0.337,0.2 0.536,0.22c0.199,0.03 0.384,0 0.556,-0.08zM2.6087,10.2289l-2.609,-0.86v-1.79c0,-0.39 0.137,-0.72 0.411,-1c0.273,-0.27 0.605,-0.41 0.995,-0.41h1.822c0.22,0 0.428,0.05 0.624,0.14c0.196,0.1 0.356,0.23 0.482,0.41l1.818,2.35zM8.4397,4.7889l2.206,-0.88c0.202,-0.08 0.362,-0.21 0.48,-0.38c0.119,-0.17 0.178,-0.37 0.179,-0.59v-1.47c0,-0.26 -0.079,-0.48 -0.235,-0.67c-0.157,-0.19 -0.36,-0.32 -0.609,-0.37l-2.029,-0.4c-0.141,-0.03 -0.277,-0.04 -0.411,-0.01c-0.133,0.02 -0.261,0.07 -0.383,0.15l-1.08,0.74c-0.145,0.1 -0.259,0.22 -0.344,0.38c-0.084,0.16 -0.127,0.32 -0.127,0.49v1.42c0,0.17 0.043,0.34 0.127,0.5c0.085,0.15 0.199,0.28 0.344,0.37l0.904,0.62c0.14,0.1 0.296,0.15 0.467,0.18c0.171,0.02 0.341,-0.01 0.511,-0.08z" fill="currentColor"/></svg>