<svg viewBox="0 0 19.1667 20" fill="none" xmlns="http://www.w3.org/2000/svg" xmlns:xlink="http://www.w3.org/1999/xlink" x="0" y="0"><path id="Vector_266" fill-rule="evenodd" clip-rule="evenodd" d="M16.3365,17.04h-2.85v-4.64c0,-1.11 -0.01,-2.53 -1.47,-2.53c-1.48,0 -1.71,1.21 -1.71,2.45v4.72h-2.84v-9.54h2.73v1.3h0.04c0.38,-0.75 1.3,-1.54 2.69,-1.54c2.87,0 3.41,1.98 3.41,4.55v5.23zM4.2665,6.19c-0.22,0 -0.43,-0.04 -0.63,-0.13c-0.2,-0.08 -0.38,-0.21 -0.54,-0.37c-0.15,-0.16 -0.27,-0.35 -0.36,-0.56c-0.08,-0.2 -0.12,-0.43 -0.12,-0.65c0,-0.23 0.04,-0.45 0.12,-0.66c0.09,-0.21 0.21,-0.4 0.36,-0.56c0.15,-0.16 0.33,-0.29 0.53,-0.37c0.2,-0.09 0.42,-0.14 0.63,-0.14c0.44,0 0.86,0.18 1.17,0.51c0.31,0.32 0.48,0.76 0.48,1.21c0.01,0.46 -0.17,0.9 -0.48,1.22c-0.31,0.32 -0.72,0.5 -1.16,0.5zM2.8365,17.04h2.85v-9.54h-2.85zM17.7465,0h-16.33c-0.78,0 -1.42,0.65 -1.42,1.44v17.12c0,0.79 0.64,1.44 1.42,1.44h16.33c0.78,0 1.42,-0.65 1.42,-1.44v-17.12c0,-0.79 -0.64,-1.44 -1.42,-1.44z" fill="currentColor"/></svg>