<svg viewBox="0 0 11.2852 11.2852" fill="none" xmlns="http://www.w3.org/2000/svg" xmlns:xlink="http://www.w3.org/1999/xlink" x="0" y="0"><g id="location-01">
<path id="Vector_16" d="M6.4007,10.0471c-0.2,0.19 -0.47,0.297 -0.76,0.297c-0.28,0 -0.55,-0.107 -0.76,-0.297c-1.87,-1.76 -4.37,-3.725 -3.15,-6.578c0.66,-1.542 2.25,-2.529 3.91,-2.529c1.67,0 3.25,0.987 3.91,2.529c1.22,2.85 -1.28,4.825 -3.15,6.578z" stroke="#6B7280" stroke-width="0.705324"/>
<path id="Vector_17" d="M7.2907,5.1721c0,0.909 -0.74,1.646 -1.65,1.646c-0.91,0 -1.64,-0.737 -1.64,-1.646c0,-0.909 0.73,-1.645 1.64,-1.645c0.91,0 1.65,0.736 1.65,1.645z" stroke="#6B7280" stroke-width="0.705324"/>
</g></svg>