<svg viewBox="0 0 16 16" fill="none" xmlns="http://www.w3.org/2000/svg" xmlns:xlink="http://www.w3.org/1999/xlink" x="0" y="0"><g id="location-01">
<path id="Vector_12" d="M9.078,14.244c-0.289,0.271 -0.675,0.422 -1.077,0.422c-0.402,0 -0.789,-0.151 -1.078,-0.422c-2.648,-2.494 -6.196,-5.28 -4.465,-9.325c0.935,-2.187 3.181,-3.586 5.543,-3.586c2.362,0 4.607,1.399 5.543,3.586c1.728,4.04 -1.811,6.84 -4.466,9.325z" stroke="#6B7280"/>
<path id="Vector_13" d="M10.333,7.333c0,1.289 -1.044,2.334 -2.333,2.334c-1.289,0 -2.333,-1.045 -2.333,-2.334c0,-1.288 1.044,-2.333 2.333,-2.333c1.289,0 2.333,1.045 2.333,2.333z" stroke="#6B7280"/>
</g></svg>