<svg viewBox="0 0 432 52" fill="none" xmlns="http://www.w3.org/2000/svg" xmlns:xlink="http://www.w3.org/1999/xlink" x="0" y="0"><g id="Text Field_2">
<rect x="0.5" y="0.5" width="431" height="51" rx="11.5" stroke="#CFD2D6"/>
<g id="Frame 1000004770_2">
<g id="Password">
<circle id="Ellipse 853" cx="19" cy="26" r="3" fill="#0E0E0F"/>
<circle id="Ellipse 854" cx="30" cy="26" r="3" fill="#0E0E0F"/>
<circle id="Ellipse 855" cx="41" cy="26" r="3" fill="#0E0E0F"/>
<circle id="Ellipse 861" cx="52" cy="26" r="3" fill="#0E0E0F"/>
<circle id="Ellipse 862" cx="63" cy="26" r="3" fill="#0E0E0F"/>
<circle id="Ellipse 856" cx="74" cy="26" r="3" fill="#0E0E0F"/>
<circle id="Ellipse 857" cx="85" cy="26" r="3" fill="#0E0E0F"/>
<circle id="Ellipse 858" cx="96" cy="26" r="3" fill="#0E0E0F"/>
<circle id="Ellipse 859" cx="107" cy="26" r="3" fill="#0E0E0F"/>
<circle id="Ellipse 860" cx="118" cy="26" r="3" fill="#0E0E0F"/>
</g>
</g>
<g id="view">
<path id="Vector_2" d="M413.953,25.204c0.254,0.355 0.38,0.533 0.38,0.796c0,0.263 -0.126,0.441 -0.38,0.796c-1.138,1.596 -4.045,5.037 -7.953,5.037c-3.908,0 -6.815,-3.441 -7.953,-5.037c-0.254,-0.355 -0.38,-0.533 -0.38,-0.796c0,-0.263 0.126,-0.441 0.38,-0.796c1.138,-1.596 4.045,-5.037 7.953,-5.037c3.908,0 6.815,3.441 7.953,5.037z" stroke="#0E0E0F" stroke-width="1.25"/>
<path id="Vector_3" d="M408.5,26c0,-1.381 -1.119,-2.5 -2.5,-2.5c-1.381,0 -2.5,1.119 -2.5,2.5c0,1.381 1.119,2.5 2.5,2.5c1.381,0 2.5,-1.119 2.5,-2.5z" stroke="#0E0E0F" stroke-width="1.25"/>
</g>
</g></svg>