<svg viewBox="0 0 16.6667 16.6667" fill="none" xmlns="http://www.w3.org/2000/svg" xmlns:xlink="http://www.w3.org/1999/xlink" x="0" y="0"><g id="elements_18">
<path id="Rectangle 2356_3" d="M9.1666,12.2524c0,-0.764 0,-1.147 0.1695,-1.478c0.1695,-0.331 0.4854,-0.566 1.1174,-1.036l0.4166,-0.309c0.9831,-0.731 1.4747,-1.096 2.0465,-1.096c0.5719,0 1.0634,0.365 2.0465,1.096l0.4166,0.309c0.632,0.47 0.948,0.705 1.1174,1.036c0.1695,0.331 0.1695,0.714 0.1695,1.478v1.23c0,1.501 0,2.252 -0.4881,2.718c-0.4882,0.466 -1.2739,0.466 -2.8452,0.466h-4.1667z" stroke="#6B7280" stroke-width="1.25" stroke-linejoin="round"/>
<path id="Rectangle 2357" d="M13.3333,8.3334v-5.833c0,-2.069 -0.4317,-2.5 -2.5,-2.5h-3.3334c-2.0683,0 -2.5,0.431 -2.5,2.5v14.166" stroke="#6B7280" stroke-width="1.25" stroke-linecap="round" stroke-linejoin="round"/>
<ellipse id="Ellipse 1724" cx="1.2499000000000038" cy="10.000400000000013" rx="1.25" ry="1.66667" stroke="#6B7280" stroke-width="1.25"/>
<path id="Vector 5685" d="M1.2499,11.6664v5" stroke="#6B7280" stroke-width="1.25" stroke-linecap="round"/>
<path id="Vector 5686" d="M0,16.6664h15" stroke="#6B7280" stroke-width="1.25" stroke-linecap="round"/>
<path id="Vector_34" d="M8.3333,3.3334h1.6666M8.3333,5.8334h1.6666" stroke="#6B7280" stroke-width="1.25" stroke-linecap="round"/>
<path id="Vector 5807" d="M12.9166,16.6664v-1.666" stroke="#6B7280" stroke-width="1.25" stroke-linecap="round" stroke-linejoin="round"/>
</g></svg>