<svg viewBox="0 0 15 16.6667" fill="none" xmlns="http://www.w3.org/2000/svg" xmlns:xlink="http://www.w3.org/1999/xlink" x="0" y="0"><g id="elements_23">
<path id="Vector 7302_2" d="M0.8333,7.5003v3.333c0,2.75 0,4.125 0.8543,4.979c0.8543,0.854 2.2292,0.854 4.9791,0.854h1.6666c2.7499,0 4.1248,0 4.9791,-0.854c0.8543,-0.854 0.8543,-2.229 0.8543,-4.979v-3.333" stroke="#6B7280" stroke-width="1.25" stroke-linecap="round" stroke-linejoin="round"/>
<path id="Rectangle 1184_2" d="M0,5.8333c0,-0.623 0,-0.935 0.1675,-1.167c0.1097,-0.152 0.2675,-0.278 0.4575,-0.366c0.2901,-0.134 0.6795,-0.134 1.4583,-0.134h10.8334c0.7788,0 1.1682,0 1.4583,0.134c0.19,0.088 0.3478,0.214 0.4575,0.366c0.1675,0.232 0.1675,0.544 0.1675,1.167c0,0.623 0,0.935 -0.1675,1.167c-0.1097,0.152 -0.2675,0.278 -0.4575,0.366c-0.2901,0.134 -0.6795,0.134 -1.4583,0.134h-10.8334c-0.7788,0 -1.1682,0 -1.4583,-0.134c-0.19,-0.088 -0.3478,-0.214 -0.4575,-0.366c-0.1675,-0.232 -0.1675,-0.544 -0.1675,-1.167z" stroke="#6B7280" stroke-width="1.25" stroke-linejoin="round"/>
<path id="Rectangle 2365_2" d="M2.5,1.4883c0,-0.822 0.6662,-1.488 1.4881,-1.488h0.2976c1.7752,0 3.2143,1.439 3.2143,3.214v0.952h-2.3214c-1.4794,0 -2.6786,-1.199 -2.6786,-2.678z" stroke="#6B7280" stroke-width="1.25" stroke-linejoin="round"/>
<path id="Rectangle 2366_2" d="M12.5,1.4883c0,-0.822 -0.6662,-1.488 -1.4881,-1.488h-0.2976c-1.7752,0 -3.2143,1.439 -3.2143,3.214v0.952h2.3214c1.4794,0 2.6786,-1.199 2.6786,-2.678z" stroke="#6B7280" stroke-width="1.25" stroke-linejoin="round"/>
<path id="Vector 4639_2" d="M7.5,7.5003v9.166" stroke="#6B7280" stroke-width="1.25" stroke-linecap="round" stroke-linejoin="round"/>
</g></svg>