<svg viewBox="0 0 16.6667 15.8334" fill="none" xmlns="http://www.w3.org/2000/svg" xmlns:xlink="http://www.w3.org/1999/xlink" x="0" y="0"><g id="elements_19">
<path id="Vector_35" d="M0.76,2.2787l-0.714,-0.229v0zM0.1902,4.0497l0.7139,0.229v0zM15.9066,2.2787l-0.7139,0.23v0zM16.4764,4.0497l0.7139,-0.23v0zM6.4692,5.9727c-0.291,-0.294 -0.7659,-0.297 -1.0606,-0.006c-0.2948,0.291 -0.2978,0.766 -0.0068,1.06l0.5337,-0.527zM11.2649,5.9727c-0.2909,-0.295 -0.7658,-0.298 -1.0606,-0.007c-0.2948,0.291 -0.298,0.766 -0.007,1.061l0.5338,-0.527zM0.3127,5.8917l0.608,-0.439v0zM7.5149,5.1877c0.1039,-0.401 -0.1369,-0.81 -0.5378,-0.914c-0.401,-0.104 -0.8103,0.137 -0.9142,0.538l0.726,0.188zM12.3099,5.1877c0.1039,-0.401 -0.1369,-0.81 -0.5378,-0.914c-0.401,-0.104 -0.8103,0.137 -0.9142,0.538l0.726,0.188zM16.3539,5.8917l-0.608,-0.439v0zM16.6445,5.1717l-0.741,-0.115v0zM0.0221,5.1717l-0.7411,0.116v0zM1.7125,0.3147l-0.4486,-0.601v0zM0.76,2.2787l-0.714,-0.229l-0.5697,1.77l0.7139,0.23l0.7139,0.229l0.5698,-1.77zM15.9066,2.2787l-0.7139,0.23l0.5698,1.77l0.7139,-0.229l0.7139,-0.23l-0.5697,-1.77zM3.8135,-0.0003v0.75h9.0396v-0.75v-0.75h-9.0396zM8.3327,7.4997v-0.75c-0.7311,0 -1.3899,-0.297 -1.8635,-0.777l-0.5337,0.527l-0.5337,0.527c0.745,0.755 1.784,1.223 2.9309,1.223zM13.1289,7.4997v-0.75c-0.7314,0 -1.3904,-0.297 -1.864,-0.777l-0.5338,0.527l-0.5338,0.527c0.745,0.754 1.7843,1.223 2.9316,1.223zM3.5377,7.4997v-0.75c-0.9905,0 -2.0693,-0.539 -2.617,-1.297l-0.608,0.439l-0.608,0.439c0.8449,1.17 2.3874,1.919 3.833,1.919zM6.7889,4.9997l-0.726,-0.188c-0.2882,1.112 -1.3078,1.938 -2.5252,1.938v0.75v0.75c1.911,0 3.5201,-1.298 3.9772,-3.062zM11.5839,4.9997l-0.726,-0.188c-0.2882,1.112 -1.3078,1.938 -2.5252,1.938v0.75v0.75c1.911,0 3.5201,-1.298 3.9772,-3.062zM16.3539,5.8917l-0.608,-0.439c-0.5477,0.758 -1.6265,1.297 -2.617,1.297v0.75v0.75c1.4456,0 2.9881,-0.749 3.833,-1.919zM16.4764,4.0497l-0.7139,0.229c0.1562,0.486 0.1736,0.569 0.141,0.778l0.741,0.115l0.7411,0.116c0.0936,-0.6 -0.0432,-0.996 -0.1953,-1.468zM16.3539,5.8917l0.608,0.439c0.0695,-0.096 0.1734,-0.236 0.2559,-0.421c0.0835,-0.188 0.1313,-0.388 0.1678,-0.622l-0.7411,-0.116l-0.741,-0.115c-0.0266,0.17 -0.0483,0.225 -0.0564,0.243c-0.0092,0.021 -0.019,0.039 -0.1012,0.153zM15.9066,2.2787l0.714,-0.229c-0.1719,-0.534 -0.3186,-0.994 -0.4808,-1.355c-0.1695,-0.377 -0.3857,-0.719 -0.7371,-0.981l-0.4486,0.601l-0.4487,0.601c0.0701,0.052 0.1531,0.143 0.2661,0.394c0.1201,0.267 0.239,0.633 0.4212,1.199zM12.8531,-0.0003v0.75c0.5777,0 0.9458,0.001 1.2243,0.034c0.2576,0.031 0.3602,0.081 0.428,0.132l0.4487,-0.601l0.4486,-0.601c-0.3536,-0.264 -0.7417,-0.371 -1.1492,-0.419c-0.3868,-0.046 -0.8584,-0.045 -1.4004,-0.045zM0.1902,4.0497l-0.7139,-0.23c-0.1521,0.472 -0.2889,0.868 -0.1953,1.468l0.7411,-0.116l0.741,-0.115c-0.0326,-0.209 -0.0152,-0.292 0.141,-0.778zM0.3127,5.8917l0.608,-0.439c-0.0822,-0.114 -0.092,-0.132 -0.1012,-0.153c-0.0081,-0.018 -0.0298,-0.073 -0.0564,-0.243l-0.741,0.115l-0.7411,0.116c0.0365,0.234 0.0843,0.434 0.1678,0.622c0.0825,0.185 0.1864,0.325 0.2559,0.421zM0.76,2.2787l0.7139,0.23c0.1822,-0.566 0.3011,-0.932 0.4212,-1.199c0.113,-0.251 0.196,-0.342 0.2661,-0.394l-0.4487,-0.601l-0.4486,-0.601c-0.3514,0.262 -0.5676,0.604 -0.7371,0.981c-0.1622,0.361 -0.3089,0.821 -0.4808,1.355zM3.8135,-0.0003v-0.75c-0.542,0 -1.0136,-0.001 -1.4004,0.045c-0.4075,0.048 -0.7956,0.155 -1.1492,0.419l0.4486,0.601l0.4487,0.601c0.0678,-0.051 0.1704,-0.101 0.428,-0.132c0.2785,-0.033 0.6466,-0.034 1.2243,-0.034z" fill="#6B7280"/>
<path id="Vector 7270" d="M0.8333,6.6667v4.167c0,2.357 0,3.535 0.7322,4.267c0.7323,0.733 1.9108,0.733 4.2678,0.733h5c2.357,0 3.5355,0 4.2678,-0.733c0.7322,-0.732 0.7322,-1.91 0.7322,-4.267v-4.167" stroke="#6B7280" stroke-width="1.5"/>
<path id="Vector 7094" d="M4.1666,12.9167h3.3334" stroke="#6B7280" stroke-width="1.5" stroke-linecap="round"/>
</g></svg>