<svg viewBox="0 0 16.6667 15" fill="none" xmlns="http://www.w3.org/2000/svg" xmlns:xlink="http://www.w3.org/1999/xlink" x="0" y="0"><g id="elements_27">
<path id="Ellipse 1201" d="M11.2499,7.5c0,1.611 -1.3058,2.917 -2.9166,2.917c-1.6109,0 -2.9167,-1.306 -2.9167,-2.917c0,-1.611 1.3058,-2.917 2.9167,-2.917c1.6108,0 2.9166,1.306 2.9166,2.917z" stroke="#6B7280" stroke-width="1.25"/>
<path id="Polygon 49" d="M15.6588,5.127c0.6719,1.158 1.0078,1.737 1.0078,2.373c0,0.636 -0.3359,1.215 -1.0078,2.373l-1.6031,2.763c-0.6692,1.154 -1.0038,1.731 -1.5541,2.047c-0.5503,0.317 -1.2182,0.317 -2.5539,0.317h-3.2288c-1.3357,0 -2.0036,0 -2.5539,-0.317c-0.5503,-0.316 -0.8849,-0.893 -1.5541,-2.047l-1.6031,-2.763c-0.6719,-1.158 -1.0078,-1.737 -1.0078,-2.373c0,-0.636 0.3359,-1.215 1.0078,-2.373l1.6031,-2.763c0.6692,-1.154 1.0038,-1.731 1.5541,-2.047c0.5503,-0.317 1.2182,-0.317 2.5539,-0.317h3.2288c1.3358,0 2.0036,0 2.5539,0.317c0.5503,0.316 0.8849,0.893 1.5541,2.047z" stroke="#6B7280" stroke-width="1.25"/>
</g></svg>