<svg viewBox="0 0 10.58 10.58" fill="none" xmlns="http://www.w3.org/2000/svg" xmlns:xlink="http://www.w3.org/1999/xlink" x="0" y="0"><g id="elements_3">
<path id="Vector_22" d="M3.7117,4.5151c0.22,0.221 0.58,0.221 0.8,0c0.22,-0.221 0.22,-0.58 0,-0.801l-0.4,0.4zM0.6917,-0.1069c-0.22,-0.221 -0.58,-0.221 -0.8,0c-0.22,0.221 -0.22,0.58 0,0.802l0.4,-0.401zM0.2317,0.2281l0.4,0.401v0zM2.8917,0.6221c0.31,0.028 0.58,-0.202 0.61,-0.514c0.03,-0.312 -0.2,-0.587 -0.51,-0.615l-0.05,0.564zM-0.5083,2.9891c0.03,0.312 0.3,0.542 0.62,0.514c0.31,-0.028 0.54,-0.303 0.51,-0.615l-0.56,0.051zM4.1117,4.1141l0.4,-0.4l-3.82,-3.821l-0.4,0.401l-0.4,0.401l3.82,3.82zM0.2317,0.2281l0.4,0.401c-0.05,0.051 -0.08,0.046 -0.01,0.025c0.05,-0.018 0.14,-0.036 0.26,-0.05c0.24,-0.03 0.53,-0.039 0.84,-0.037c0.3,0.002 0.59,0.016 0.81,0.029c0.11,0.007 0.2,0.013 0.26,0.018c0.03,0.003 0.06,0.005 0.07,0.006c0.01,0.001 0.02,0.001 0.02,0.001c0,0.001 0,0.001 0.01,0.001v0v0v0c0,0 0,0 0.05,-0.565c0.05,-0.564 0.05,-0.564 0.05,-0.564v0v0v0c-0.01,0 -0.01,-0.001 -0.01,-0.001c-0.01,0 -0.01,-0.001 -0.02,-0.002c-0.02,-0.001 -0.05,-0.003 -0.08,-0.006c-0.07,-0.005 -0.16,-0.012 -0.28,-0.019c-0.23,-0.014 -0.54,-0.029 -0.87,-0.031c-0.33,-0.003 -0.68,0.006 -0.99,0.045c-0.15,0.019 -0.31,0.047 -0.45,0.091c-0.13,0.039 -0.32,0.111 -0.46,0.257zM0.0617,2.9391c0.56,-0.051 0.56,-0.051 0.56,-0.051v0v0c0,0 0,0 0,-0.001c0,-0.001 0,-0.002 0,-0.004c0,-0.004 0,-0.01 0,-0.018c0,-0.016 0,-0.04 -0.01,-0.071c0,-0.062 -0.01,-0.151 -0.02,-0.26c-0.01,-0.218 -0.02,-0.511 -0.02,-0.813c-0.01,-0.305 0,-0.604 0.03,-0.84c0.02,-0.118 0.03,-0.205 0.05,-0.262c0.02,-0.071 0.03,-0.042 -0.02,0.01l-0.4,-0.401l-0.4,-0.401c-0.15,0.146 -0.22,0.331 -0.26,0.461c-0.05,0.143 -0.07,0.3 -0.09,0.454c-0.04,0.308 -0.05,0.663 -0.05,0.988c0,0.328 0.02,0.642 0.03,0.873c0.01,0.116 0.02,0.211 0.02,0.278c0.01,0.034 0.01,0.061 0.01,0.079c0,0.009 0,0.016 0,0.021c0,0.003 0,0.005 0,0.006c0,0.001 0,0.001 0,0.002v0v0c0,0 0,0 0.57,-0.05z" fill="currentColor"/>
<path id="Vector_23" d="M4.5117,6.8661c0.22,-0.221 0.22,-0.58 0,-0.801c-0.22,-0.222 -0.58,-0.222 -0.8,0l0.4,0.401zM-0.1083,9.8851c-0.22,0.222 -0.22,0.58 0,0.802c0.22,0.221 0.58,0.221 0.8,0l-0.4,-0.401zM0.2317,10.3521l0.4,-0.401v0zM2.9917,11.0871c0.31,-0.028 0.54,-0.303 0.51,-0.615c-0.03,-0.312 -0.3,-0.542 -0.61,-0.514l0.05,0.564zM0.6217,7.6921c0.03,-0.312 -0.2,-0.587 -0.51,-0.615c-0.32,-0.028 -0.59,0.202 -0.62,0.513l0.57,0.051zM4.1117,6.4661l-0.4,-0.401l-3.82,3.82l0.4,0.401l0.4,0.401l3.82,-3.821zM0.2317,10.3521l-0.4,0.401c0.14,0.146 0.33,0.218 0.46,0.257c0.14,0.044 0.3,0.072 0.45,0.091c0.31,0.038 0.66,0.048 0.99,0.045c0.33,-0.002 0.64,-0.017 0.87,-0.031c0.12,-0.007 0.21,-0.014 0.28,-0.019c0.03,-0.003 0.06,-0.005 0.08,-0.007c0.01,0 0.01,-0.001 0.02,-0.001c0,-0.001 0,-0.001 0.01,-0.001v0v0v0c0,0 0,0 -0.05,-0.565c-0.05,-0.564 -0.05,-0.564 -0.05,-0.564v0v0v0c-0.01,0 -0.01,0 -0.01,0c0,0.001 -0.01,0.001 -0.02,0.002c-0.01,0.001 -0.04,0.003 -0.07,0.006c-0.06,0.004 -0.15,0.011 -0.26,0.017c-0.22,0.014 -0.51,0.027 -0.81,0.03c-0.31,0.002 -0.6,-0.007 -0.84,-0.037c-0.12,-0.014 -0.21,-0.032 -0.26,-0.05c-0.07,-0.021 -0.04,-0.026 0.01,0.025zM0.0617,7.6411c-0.57,-0.051 -0.57,-0.051 -0.57,-0.05v0v0c0,0.001 0,0.001 0,0.002c0,0.001 0,0.003 0,0.006c0,0.005 0,0.012 0,0.021c0,0.018 0,0.045 -0.01,0.078c0,0.067 -0.01,0.163 -0.02,0.279c-0.01,0.23 -0.03,0.544 -0.03,0.873c0,0.325 0.01,0.68 0.05,0.988c0.02,0.153 0.04,0.311 0.09,0.454c0.04,0.13 0.11,0.315 0.26,0.461l0.4,-0.401l0.4,-0.401c0.05,0.051 0.04,0.08 0.02,0.01c-0.02,-0.057 -0.03,-0.144 -0.05,-0.263c-0.03,-0.236 -0.04,-0.534 -0.03,-0.84c0,-0.301 0.01,-0.594 0.02,-0.812c0.01,-0.109 0.02,-0.199 0.02,-0.26c0.01,-0.031 0.01,-0.055 0.01,-0.071c0,-0.008 0,-0.014 0,-0.018c0,-0.002 0,-0.004 0,-0.004c0,-0.001 0,-0.001 0,-0.001v0v0c0,0 0,0 -0.56,-0.051z" fill="currentColor"/>
<path id="Vector_24" d="M6.0617,3.7141c-0.22,0.221 -0.22,0.58 0,0.801c0.22,0.221 0.58,0.221 0.8,0l-0.4,-0.401zM10.6917,0.6951c0.22,-0.222 0.22,-0.581 0,-0.802c-0.23,-0.221 -0.58,-0.221 -0.81,0l0.4,0.401zM10.3517,0.2281l-0.4,0.401v0zM7.5917,-0.5069c-0.31,0.028 -0.54,0.303 -0.51,0.615c0.02,0.312 0.3,0.542 0.61,0.514l-0.05,-0.565zM9.9617,2.8881c-0.03,0.312 0.2,0.587 0.51,0.615c0.31,0.028 0.59,-0.202 0.62,-0.514l-0.57,-0.05zM6.4617,4.1141l0.4,0.401l3.83,-3.82l-0.41,-0.401l-0.4,-0.401l-3.82,3.821zM10.3517,0.2281l0.4,-0.401c-0.14,-0.146 -0.33,-0.218 -0.46,-0.257c-0.14,-0.044 -0.3,-0.072 -0.45,-0.091c-0.31,-0.039 -0.67,-0.048 -0.99,-0.045c-0.33,0.002 -0.64,0.017 -0.87,0.031c-0.12,0.007 -0.22,0.014 -0.28,0.019c-0.04,0.003 -0.06,0.005 -0.08,0.006c-0.01,0.001 -0.02,0.002 -0.02,0.002c-0.01,0 -0.01,0.001 -0.01,0.001v0v0v0c0,0 0,0 0.05,0.564c0.05,0.565 0.05,0.565 0.05,0.565v0v0v0c0,0 0,0 0.01,-0.001c0,0 0.01,0 0.01,-0.001c0.02,-0.001 0.04,-0.003 0.07,-0.006c0.07,-0.005 0.16,-0.011 0.26,-0.018c0.22,-0.013 0.52,-0.027 0.82,-0.029c0.3,-0.002 0.6,0.007 0.84,0.037c0.12,0.014 0.2,0.032 0.26,0.05c0.07,0.021 0.04,0.026 -0.01,-0.025zM10.5217,2.9391c0.57,0.05 0.57,0.05 0.57,0.05v0v0c0,-0.001 0,-0.001 0,-0.002c0,-0.001 0,-0.003 0,-0.006c0,-0.005 0,-0.012 0,-0.021c0,-0.018 0,-0.045 0,-0.079c0.01,-0.067 0.02,-0.162 0.02,-0.278c0.02,-0.231 0.03,-0.545 0.03,-0.873c0.01,-0.325 0,-0.68 -0.04,-0.988c-0.02,-0.154 -0.05,-0.311 -0.09,-0.454c-0.04,-0.13 -0.11,-0.315 -0.26,-0.461l-0.4,0.401l-0.4,0.401c-0.05,-0.052 -0.05,-0.081 -0.03,-0.01c0.02,0.057 0.04,0.144 0.05,0.262c0.03,0.236 0.04,0.535 0.04,0.84c0,0.302 -0.01,0.595 -0.03,0.813c0,0.109 -0.01,0.198 -0.02,0.26c0,0.031 0,0.055 0,0.071c0,0.008 0,0.014 0,0.018c0,0.002 0,0.003 0,0.004c0,0.001 0,0.001 0,0.001v0v0c0,0 0,0 0.56,0.051z" fill="currentColor"/>
<path id="Vector_25" d="M6.8617,6.0651c-0.22,-0.222 -0.58,-0.222 -0.8,0c-0.22,0.221 -0.22,0.58 0,0.801l0.4,-0.4zM9.8817,10.6871c0.23,0.221 0.58,0.221 0.81,0c0.22,-0.222 0.22,-0.58 0,-0.802l-0.41,0.401zM10.3517,10.3521l-0.4,-0.401zM7.6917,9.9581c-0.31,-0.028 -0.59,0.202 -0.61,0.514c-0.03,0.312 0.2,0.587 0.51,0.615l0.05,-0.565zM11.0917,7.5901c-0.03,-0.311 -0.31,-0.541 -0.62,-0.513c-0.31,0.028 -0.54,0.303 -0.51,0.615l0.56,-0.051zM6.4617,6.4661l-0.4,0.4l3.82,3.821l0.4,-0.401l0.41,-0.401l-3.83,-3.82zM10.3517,10.3521l-0.4,-0.401c0.05,-0.051 0.08,-0.046 0.01,-0.025c-0.06,0.018 -0.14,0.036 -0.26,0.05c-0.24,0.03 -0.54,0.039 -0.84,0.037c-0.3,-0.003 -0.6,-0.016 -0.82,-0.03c-0.1,-0.006 -0.19,-0.013 -0.26,-0.017c-0.03,-0.003 -0.05,-0.005 -0.07,-0.006c0,-0.001 -0.01,-0.001 -0.01,-0.002c-0.01,0 -0.01,0 -0.01,0v0v0v0c0,0 0,0 -0.05,0.564c-0.05,0.565 -0.05,0.565 -0.05,0.565v0v0v0c0,0 0,0 0.01,0.001c0,0 0.01,0.001 0.02,0.001c0.02,0.002 0.04,0.004 0.08,0.007c0.06,0.005 0.16,0.012 0.28,0.019c0.23,0.014 0.54,0.029 0.87,0.031c0.32,0.003 0.68,-0.007 0.99,-0.045c0.15,-0.019 0.31,-0.047 0.45,-0.091c0.13,-0.039 0.32,-0.111 0.46,-0.257zM10.5217,7.6411c-0.56,0.051 -0.56,0.051 -0.56,0.051v0v0c0,0 0,0 0,0.001c0,0 0,0.002 0,0.004c0,0.004 0,0.01 0,0.018c0,0.016 0,0.04 0,0.071c0.01,0.061 0.02,0.151 0.02,0.26c0.02,0.218 0.03,0.511 0.03,0.812c0,0.306 -0.01,0.604 -0.04,0.84c-0.01,0.119 -0.03,0.206 -0.05,0.263c-0.02,0.07 -0.02,0.041 0.03,-0.01l0.4,0.401l0.4,0.401c0.15,-0.146 0.22,-0.331 0.26,-0.461c0.04,-0.143 0.07,-0.301 0.09,-0.454c0.04,-0.308 0.05,-0.663 0.04,-0.988c0,-0.329 -0.01,-0.643 -0.03,-0.873c0,-0.116 -0.01,-0.212 -0.02,-0.279c0,-0.033 0,-0.06 0,-0.078c0,-0.009 0,-0.016 0,-0.021c0,-0.003 0,-0.005 0,-0.006c0,-0.001 0,-0.001 0,-0.002v0v0c0,-0.001 0,-0.001 -0.57,0.05z" fill="currentColor"/>
</g></svg>