<svg viewBox="0 0 11.3333 13.3333" fill="none" xmlns="http://www.w3.org/2000/svg" xmlns:xlink="http://www.w3.org/1999/xlink" x="0" y="0"><g id="elements_9">
<path id="Vector 4381" d="M8.3367,10h-4.67" stroke="#6B7280" stroke-linecap="round" stroke-linejoin="round"/>
<path id="Vector 4382" d="M8.3367,7.334h-2" stroke="#6B7280" stroke-linecap="round" stroke-linejoin="round"/>
<path id="Rectangle 2173" d="M11.3367,8.001c0,2.514 0,3.771 -0.83,4.552c-0.83,0.781 -2.17,0.781 -4.84,0.781h-0.52c-2.17,0 -3.26,0 -4.01,-0.532c-0.22,-0.152 -0.41,-0.333 -0.57,-0.537c-0.57,-0.71 -0.57,-1.733 -0.57,-3.779v-1.697c0,-1.976 0,-2.964 0.32,-3.753c0.5,-1.268 1.56,-2.268 2.91,-2.741c0.84,-0.294 1.89,-0.294 3.99,-0.294c1.19,0 1.79,0 2.27,0.168c0.77,0.27 1.38,0.842 1.67,1.566c0.18,0.451 0.18,1.016 0.18,2.144z" stroke="#6B7280" stroke-linejoin="round"/>
<path id="Vector_14" d="M-0.0033,6.667c0,-1.227 1,-2.222 2.23,-2.222c0.44,0 0.96,0.078 1.39,-0.038c0.39,-0.103 0.69,-0.402 0.79,-0.786c0.12,-0.431 0.04,-0.955 0.04,-1.398c0,-1.228 0.99,-2.223 2.22,-2.223" stroke="#6B7280" stroke-linecap="round" stroke-linejoin="round"/>
</g></svg>