<svg viewBox="0 0 12 13.3333" fill="none" xmlns="http://www.w3.org/2000/svg" xmlns:xlink="http://www.w3.org/1999/xlink" x="0" y="0"><g id="elements_5">
<path id="Ellipse 1971" d="M8.333,5.999c0,1.289 -1.044,2.334 -2.333,2.334c-1.289,0 -2.333,-1.045 -2.333,-2.334c0,-1.288 1.044,-2.333 2.333,-2.333c1.289,0 2.333,1.045 2.333,2.333z" stroke="#6B7280"/>
<path id="Vector_7" d="M6,0c3.247,0 6,2.689 6,5.951c0,3.313 -2.798,5.639 -5.382,7.22c-0.188,0.106 -0.401,0.162 -0.618,0.162c-0.217,0 -0.43,-0.056 -0.618,-0.162c-2.579,-1.597 -5.382,-3.895 -5.382,-7.22c0,-3.262 2.753,-5.951 6,-5.951z" stroke="#6B7280"/>
</g></svg>