<svg viewBox="0 0 13.0371 9.4815" fill="none" xmlns="http://www.w3.org/2000/svg" xmlns:xlink="http://www.w3.org/1999/xlink" x="0" y="0"><g id="elements_7">
<path id="Vector_9" d="M11.7182,8.2962c0.444,0 0.797,-0.279 1.114,-0.67c0.649,-0.8 -0.417,-1.439 -0.823,-1.752c-0.413,-0.318 -0.875,-0.498 -1.343,-0.541M10.0742,4.1482c0.818,0 1.481,-0.663 1.481,-1.481c0,-0.818 -0.663,-1.482 -1.481,-1.482" stroke="#6B7280" stroke-width="1.06667" stroke-linecap="round"/>
<path id="Vector_10" d="M1.3192,8.2962c-0.444,0 -0.797,-0.279 -1.114,-0.67c-0.65,-0.8 0.416,-1.439 0.823,-1.752c0.413,-0.318 0.874,-0.498 1.342,-0.541M2.6662,4.1482c-0.818,0 -1.481,-0.663 -1.481,-1.481c0,-0.818 0.663,-1.482 1.481,-1.482" stroke="#6B7280" stroke-width="1.06667" stroke-linecap="round"/>
<path id="Vector_11" d="M4.1982,6.5842c-0.606,0.374 -2.193,1.139 -1.226,2.096c0.472,0.467 0.998,0.801 1.659,0.801h3.774c0.662,0 1.188,-0.334 1.66,-0.801c0.967,-0.957 -0.62,-1.722 -1.226,-2.096c-1.42,-0.878 -3.221,-0.878 -4.641,0z" stroke="#6B7280" stroke-width="1.06667" stroke-linecap="round" stroke-linejoin="round"/>
<path id="Ellipse 1381" d="M8.5922,2.0742c0,1.145 -0.928,2.074 -2.074,2.074c-1.145,0 -2.074,-0.929 -2.074,-2.074c0,-1.146 0.929,-2.074 2.074,-2.074c1.146,0 2.074,0.928 2.074,2.074z" stroke="#6B7280" stroke-width="1.06667"/>
</g></svg>