<svg viewBox="0 0 16.6667 14.1667" fill="none" xmlns="http://www.w3.org/2000/svg" xmlns:xlink="http://www.w3.org/1999/xlink" x="0" y="0"><g id="elements_26">
<path id="Subtract_2" d="M0.3869,4.8703c-0.2071,0 -0.3961,-0.168 -0.3866,-0.388c0.0558,-1.285 0.212,-2.121 0.6497,-2.783c0.2519,-0.381 0.5647,-0.712 0.9243,-0.979c0.9721,-0.72 2.3435,-0.72 5.0862,-0.72h3.3456c2.7427,0 4.1141,0 5.0862,0.72c0.3596,0.267 0.6725,0.598 0.9243,0.979c0.4377,0.661 0.5939,1.498 0.6497,2.783c0.0095,0.219 -0.1797,0.388 -0.3871,0.388c-1.1548,0 -2.091,0.991 -2.091,2.213c0,1.223 0.9362,2.214 2.091,2.214c0.2074,0 0.3966,0.168 0.3871,0.387c-0.0558,1.285 -0.212,2.122 -0.6497,2.783c-0.2518,0.381 -0.5647,0.712 -0.9243,0.979c-0.9721,0.72 -2.3435,0.72 -5.0862,0.72h-3.3456c-2.7427,0 -4.1141,0 -5.0862,-0.72c-0.3596,-0.267 -0.6724,-0.598 -0.9243,-0.979c-0.4377,-0.661 -0.5939,-1.498 -0.6497,-2.783c-0.0095,-0.219 0.1795,-0.387 0.3866,-0.387c1.1548,0 2.091,-0.991 2.091,-2.214c0,-1.222 -0.9362,-2.213 -2.091,-2.213z" stroke="#6B7280" stroke-width="1.25" stroke-linejoin="round"/>
<path id="Vector_44" d="M5.8333,0.0003v14.166" stroke="#6B7280" stroke-width="1.25" stroke-linecap="round" stroke-linejoin="round"/>
</g></svg>