<svg viewBox="0 0 16.6667 16.6667" fill="none" xmlns="http://www.w3.org/2000/svg" xmlns:xlink="http://www.w3.org/1999/xlink" x="0" y="0"><g id="elements_21">
<path id="Vector_37" d="M14.4444,10.0003l0.686,0.631c0.1493,0.147 0.224,0.22 0.1977,0.283c-0.0263,0.062 -0.1319,0.062 -0.3431,0.062h-2.587c-1.3244,0 -2.3981,1.055 -2.3981,2.357c0,0.293 0.0546,0.574 0.1543,0.833M12.2222,16.6663l-0.686,-0.631c-0.1493,-0.147 -0.224,-0.22 -0.1977,-0.283c0.0263,-0.062 0.1318,-0.062 0.343,-0.062h2.587c1.3245,0 2.3981,-1.055 2.3981,-2.357c0,-0.293 -0.0545,-0.574 -0.1542,-0.833" stroke="#6B7280" stroke-width="1.25" stroke-linecap="round" stroke-linejoin="round"/>
<path id="Vector 6689" d="M16.6594,7.9163c0.0072,-0.5 0.0072,-0.637 0.0072,-1.25c0,-3.142 0,-4.714 -0.9763,-5.69c-0.9763,-0.976 -2.5476,-0.976 -5.6903,-0.976h-3.3334c-3.1427,0 -4.714,0 -5.6903,0.976c-0.9763,0.976 -0.9763,2.548 -0.9763,5.69c0,3.143 0,4.714 0.9763,5.691c0.9763,0.976 2.5476,0.976 5.6903,0.976h0.8334" stroke="#6B7280" stroke-width="1.25" stroke-linecap="round"/>
<path id="Vector_38" d="M13.7499,6.6663h-0.0074" stroke="#6B7280" stroke-width="1.66667" stroke-linecap="round" stroke-linejoin="round"/>
<path id="Vector_39" d="M2.9166,6.6663h-0.0075" stroke="#6B7280" stroke-width="1.66667" stroke-linecap="round" stroke-linejoin="round"/>
<path id="Ellipse 1575" d="M10.4166,6.6663c0,1.151 -0.9327,2.084 -2.0833,2.084c-1.1506,0 -2.0834,-0.933 -2.0834,-2.084c0,-1.15 0.9328,-2.083 2.0834,-2.083c1.1506,0 2.0833,0.933 2.0833,2.083z" stroke="#6B7280" stroke-width="1.25"/>
</g></svg>