<svg viewBox="0 0 17.5 14.5833" fill="none" xmlns="http://www.w3.org/2000/svg" xmlns:xlink="http://www.w3.org/1999/xlink" x="0" y="0"><g id="elements_16">
<path id="Vector_31" d="M14.2634,13.7503h0.4085c0.9582,0 1.7204,-0.437 2.4047,-1.047c1.7384,-1.551 -2.3482,-3.12 -3.7433,-3.12M11.6667,1.3073c0.1892,-0.037 0.3857,-0.057 0.5873,-0.057c1.5166,0 2.746,1.119 2.746,2.5c0,1.38 -1.2294,2.5 -2.746,2.5c-0.2016,0 -0.3981,-0.02 -0.5873,-0.058" stroke="#6B7280" stroke-width="1.25" stroke-linecap="round"/>
<g id="Vector_32">
<path d="M2.4844,10.5093c-0.9825,0.527 -3.5585,1.602 -1.9895,2.947c0.7664,0.657 1.62,1.127 2.6932,1.127h6.1238c1.0732,0 1.9268,-0.47 2.6932,-1.127c1.569,-1.345 -1.007,-2.42 -1.9895,-2.947c-2.3039,-1.235 -5.2273,-1.235 -7.5312,0z" stroke="#6B7280" stroke-width="1.25"/>
<path d="M9.5833,3.3333c0,1.841 -1.4924,3.333 -3.3333,3.333c-1.8409,0 -3.3333,-1.492 -3.3333,-3.333c0,-1.841 1.4924,-3.333 3.3333,-3.333c1.8409,0 3.3333,1.492 3.3333,3.333z" stroke="#6B7280" stroke-width="1.25"/>
</g>
</g></svg>