<svg viewBox="0 0 19.5004 21.5" fill="none" xmlns="http://www.w3.org/2000/svg" xmlns:xlink="http://www.w3.org/1999/xlink" x="0" y="0"><g id="Vector">
<path d="M15.5562,13.587c0.116,0.069 0.26,0.15 0.423,0.242c0.713,0.402 1.79,1.01 2.528,1.733c0.462,0.452 0.901,1.047 0.98,1.777c0.085,0.776 -0.253,1.504 -0.932,2.151c-1.172,1.116 -2.578,2.01 -4.396,2.01h-8.818c-1.819,0 -3.224,-0.894 -4.396,-2.01c-0.679,-0.647 -1.017,-1.375 -0.932,-2.151c0.079,-0.73 0.518,-1.325 0.98,-1.777c0.738,-0.723 1.815,-1.331 2.528,-1.733c0.163,-0.092 0.306,-0.173 0.423,-0.242c3.554,-2.116 8.058,-2.116 11.612,0z" fill="currentColor"/>
<path d="M4.5002,5.25c0,-2.899 2.35,-5.25 5.25,-5.25c2.899,0 5.25,2.351 5.25,5.25c0,2.899 -2.351,5.25 -5.25,5.25c-2.9,0 -5.25,-2.351 -5.25,-5.25z" fill="currentColor"/>
</g></svg>