<svg viewBox="0 0 11.2852 11.2852" fill="none" xmlns="http://www.w3.org/2000/svg" xmlns:xlink="http://www.w3.org/1999/xlink" x="0" y="0"><g id="checkmark-badge-04">
<path id="Vector_18" d="M6.7075,1.6923c-0.5,-0.501 -0.75,-0.752 -1.06,-0.752c-0.32,0 -0.57,0.251 -1.07,0.752c-0.3,0.301 -0.6,0.441 -1.03,0.441c-0.37,0 -0.9,-0.073 -1.2,0.222c-0.29,0.293 -0.21,0.824 -0.21,1.196c0,0.429 -0.14,0.727 -0.44,1.028c-0.51,0.501 -0.76,0.752 -0.76,1.063c0,0.312 0.25,0.562 0.76,1.064c0.33,0.337 0.44,0.555 0.44,1.028c0,0.374 -0.08,0.907 0.22,1.2c0.29,0.29 0.82,0.218 1.19,0.218c0.46,0 0.68,0.089 1.01,0.415c0.27,0.278 0.65,0.777 1.09,0.777c0.43,0 0.81,-0.499 1.08,-0.777c0.33,-0.326 0.55,-0.415 1.01,-0.415c0.37,0 0.9,0.072 1.19,-0.218M8.9275,8.9343c0.3,-0.293 0.22,-0.826 0.22,-1.2c0,-0.473 0.11,-0.691 0.45,-1.028c0.5,-0.502 0.75,-0.752 0.75,-1.064c0,-0.311 -0.25,-0.562 -0.75,-1.063M8.9275,8.9343h0.01" stroke="#158348" stroke-width="0.705324" stroke-linecap="round" stroke-linejoin="round"/>
<path id="Vector_19" d="M3.9975,4.4673l1.65,1.646l4.23,-4.703" stroke="#158348" stroke-width="0.705324" stroke-linecap="round" stroke-linejoin="round"/>
</g></svg>