<svg viewBox="0 0 17.7917 17.0606" fill="none" xmlns="http://www.w3.org/2000/svg" xmlns:xlink="http://www.w3.org/1999/xlink" x="0" y="0"><path id="Vector_11" d="M8.0209,9.1133l-1.208,-1.187c-0.153,-0.153 -0.344,-0.229 -0.573,-0.229c-0.229,0 -0.427,0.083 -0.594,0.25c-0.153,0.152 -0.229,0.347 -0.229,0.583c0,0.236 0.076,0.431 0.229,0.583l1.792,1.792c0.166,0.167 0.361,0.25 0.583,0.25c0.222,0 0.417,-0.083 0.583,-0.25l3.542,-3.542c0.167,-0.166 0.246,-0.361 0.239,-0.583c-0.007,-0.222 -0.087,-0.417 -0.239,-0.583c-0.167,-0.167 -0.364,-0.254 -0.593,-0.26c-0.229,-0.007 -0.427,0.073 -0.595,0.239zM5.6879,16.6553l-1.209,-2.042l-2.291,-0.5c-0.209,-0.041 -0.375,-0.149 -0.5,-0.322c-0.125,-0.173 -0.174,-0.365 -0.146,-0.573l0.229,-2.355l-1.563,-1.791c-0.138,-0.153 -0.208,-0.334 -0.208,-0.542c0,-0.208 0.07,-0.389 0.208,-0.542l1.563,-1.791l-0.229,-2.354c-0.028,-0.209 0.021,-0.4 0.146,-0.574c0.125,-0.174 0.291,-0.281 0.5,-0.322l2.291,-0.5l1.209,-2.042c0.111,-0.181 0.264,-0.302 0.458,-0.365c0.194,-0.063 0.389,-0.052 0.583,0.032l2.167,0.916l2.167,-0.916c0.194,-0.084 0.389,-0.094 0.583,-0.032c0.194,0.062 0.347,0.184 0.458,0.365l1.209,2.042l2.291,0.5c0.209,0.041 0.375,0.149 0.5,0.323c0.125,0.174 0.174,0.365 0.146,0.573l-0.229,2.354l1.562,1.791c0.139,0.153 0.209,0.334 0.209,0.542c0,0.208 -0.07,0.389 -0.209,0.542l-1.562,1.791l0.229,2.355c0.028,0.208 -0.021,0.399 -0.146,0.573c-0.125,0.174 -0.291,0.281 -0.5,0.322l-2.291,0.5l-1.209,2.042c-0.111,0.181 -0.264,0.302 -0.458,0.365c-0.194,0.063 -0.389,0.052 -0.583,-0.032l-2.167,-0.916l-2.167,0.916c-0.194,0.084 -0.389,0.094 -0.583,0.032c-0.194,-0.062 -0.347,-0.184 -0.458,-0.365z" fill="currentColor"/></svg>