<svg viewBox="0 0 85.05 27" fill="none" xmlns="http://www.w3.org/2000/svg" xmlns:xlink="http://www.w3.org/1999/xlink" x="0" y="0"><g id="Placement Logos_2">
<path id="Vector_28" d="M14.8657,21.6725c0.024,-2.48 -0.604,-4.49 -1.403,-4.5c-0.8,-0.01 -1.467,2 -1.491,4.47c-0.025,2.48 0.604,4.5 1.403,4.51c0.799,0 1.467,-2 1.491,-4.48z" fill="currentColor"/>
<path id="Vector_29" d="M10.2317,21.1125c1.36,-2.07 1.922,-4.11 1.253,-4.55c-0.668,-0.43 -2.312,0.89 -3.672,2.96c-1.361,2.07 -1.922,4.11 -1.254,4.55c0.668,0.44 2.313,-0.89 3.673,-2.96z" fill="currentColor"/>
<path id="Vector_30" d="M6.6307,18.1425c2.265,-1.01 3.837,-2.42 3.512,-3.15c-0.324,-0.73 -2.423,-0.5 -4.688,0.5c-2.264,1.01 -3.837,2.42 -3.512,3.15c0.325,0.73 2.424,0.5 4.688,-0.5z" fill="currentColor"/>
<path id="Vector_31" d="M9.8697,12.9425c0.122,-0.79 -1.765,-1.73 -4.215,-2.11c-2.449,-0.38 -4.533,-0.04 -4.655,0.75c-0.122,0.79 1.766,1.73 4.215,2.11c2.45,0.38 4.534,0.04 4.655,-0.75z" fill="currentColor"/>
<path id="Vector_32" d="M10.7507,11.0625c0.529,-0.6 -0.547,-2.41 -2.404,-4.05c-1.857,-1.65 -3.792,-2.49 -4.321,-1.89c-0.53,0.6 0.547,2.41 2.404,4.05c1.857,1.65 3.791,2.49 4.321,1.89z" fill="currentColor"/>
<path id="Vector_33" d="M12.5017,9.9625c0.77,-0.22 0.846,-2.33 0.171,-4.71c-0.675,-2.38 -1.845,-4.14 -2.614,-3.92c-0.769,0.21 -0.846,2.32 -0.171,4.71c0.675,2.38 1.845,4.14 2.614,3.92z" fill="currentColor"/>
<path id="Vector_34" d="M17.2567,6.1125c0.722,-2.37 0.687,-4.48 -0.077,-4.71c-0.765,-0.23 -1.97,1.5 -2.692,3.87c-0.721,2.37 -0.687,4.48 0.078,4.71c0.765,0.24 1.97,-1.5 2.691,-3.87z" fill="currentColor"/>
<path id="Vector_35" d="M20.6557,9.3225c1.889,-1.61 3,-3.4 2.483,-4.01c-0.518,-0.61 -2.468,0.2 -4.357,1.8c-1.889,1.6 -3,3.4 -2.483,4.01c0.518,0.61 2.468,-0.2 4.357,-1.8z" fill="currentColor"/>
<path id="Vector_36" d="M21.7787,13.8525c2.456,-0.33 4.362,-1.24 4.256,-2.03c-0.106,-0.79 -2.183,-1.17 -4.64,-0.84c-2.456,0.33 -4.362,1.24 -4.256,2.03c0.106,0.79 2.184,1.17 4.64,0.84z" fill="currentColor"/>
<path id="Vector_37" d="M24.9487,18.8725c0.339,-0.73 -1.205,-2.17 -3.449,-3.22c-2.244,-1.05 -4.338,-1.32 -4.678,-0.59c-0.339,0.72 1.205,2.16 3.45,3.21c2.244,1.05 4.338,1.32 4.677,0.6z" fill="currentColor"/>
<path id="Vector_38" d="M20.2277,24.2125c0.677,-0.43 0.156,-2.48 -1.163,-4.57c-1.319,-2.1 -2.937,-3.46 -3.614,-3.03c-0.677,0.42 -0.156,2.47 1.163,4.57c1.32,2.1 2.938,3.45 3.614,3.03z" fill="currentColor"/>
<path id="Vector_39" d="M35.9447,16.8925l-0.972,3.36h-2.41l4.455,-13.97h2.916l4.455,13.97h-2.491l-0.972,-3.36zM40.4397,15.0625l-2.005,-6.96l-2.004,6.96zM53.2497,19.6825c-0.405,0.26 -0.877,0.46 -1.417,0.61c-0.54,0.15 -1.107,0.22 -1.701,0.22c-1.215,0 -2.153,-0.31 -2.815,-0.93c-0.661,-0.64 -0.992,-1.49 -0.992,-2.57v-5.79h-2.369v-1.66h2.369v-2.39l2.268,-0.27v2.66h3.625l-0.264,1.66h-3.361v5.77c0,0.58 0.148,1.01 0.445,1.29c0.297,0.27 0.77,0.41 1.418,0.41c0.715,0 1.377,-0.17 1.984,-0.51zM59.1347,17.3325c0,0.91 0.54,1.36 1.62,1.36c0.54,0 1.107,-0.12 1.701,-0.37l0.567,1.58c-0.742,0.41 -1.66,0.61 -2.754,0.61c-1.066,0 -1.903,-0.3 -2.511,-0.89c-0.594,-0.61 -0.891,-1.44 -0.891,-2.49v-10.21h-3.219v-1.66h5.487zM72.7347,17.6425c0,0.4 0.061,0.7 0.183,0.91c0.121,0.19 0.33,0.33 0.627,0.42l-0.526,1.54c-1.121,-0.13 -1.856,-0.63 -2.207,-1.48c-0.392,0.49 -0.885,0.86 -1.479,1.12c-0.58,0.24 -1.221,0.36 -1.923,0.36c-1.08,0 -1.938,-0.3 -2.572,-0.91c-0.635,-0.61 -0.952,-1.41 -0.952,-2.41c0,-1.12 0.439,-1.98 1.316,-2.59c0.891,-0.61 2.147,-0.91 3.767,-0.91h1.519v-0.69c0,-0.68 -0.203,-1.17 -0.608,-1.48c-0.405,-0.31 -0.992,-0.47 -1.762,-0.47c-0.378,0 -0.816,0.05 -1.316,0.15c-0.499,0.09 -1.006,0.23 -1.519,0.4l-0.567,-1.6c1.283,-0.48 2.532,-0.73 3.747,-0.73c1.417,0 2.484,0.31 3.199,0.93c0.716,0.62 1.073,1.51 1.073,2.66zM68.0777,18.8525c0.472,0 0.925,-0.12 1.357,-0.36c0.445,-0.25 0.796,-0.58 1.053,-1.02v-2.37h-1.256c-1.026,0 -1.775,0.18 -2.248,0.53c-0.472,0.34 -0.708,0.83 -0.708,1.48c0,0.57 0.148,1 0.445,1.29c0.311,0.3 0.763,0.45 1.357,0.45zM78.5587,18.7925c0.716,0 1.276,-0.13 1.681,-0.39c0.419,-0.25 0.628,-0.6 0.628,-1.05c0,-0.31 -0.061,-0.56 -0.182,-0.75c-0.122,-0.2 -0.365,-0.38 -0.729,-0.54c-0.365,-0.18 -0.912,-0.36 -1.641,-0.55c-1.174,-0.3 -2.058,-0.68 -2.652,-1.13c-0.581,-0.48 -0.871,-1.15 -0.871,-2.03c0,-0.93 0.385,-1.67 1.154,-2.23c0.77,-0.56 1.809,-0.85 3.119,-0.85c1.579,0 2.936,0.41 4.07,1.24l-0.972,1.44c-0.959,-0.64 -1.971,-0.96 -3.038,-0.96c-1.35,0 -2.025,0.39 -2.025,1.18c0,0.27 0.075,0.49 0.223,0.67c0.162,0.17 0.432,0.34 0.81,0.5c0.378,0.15 0.938,0.33 1.681,0.53c1.161,0.32 2.025,0.72 2.592,1.19c0.58,0.48 0.871,1.18 0.871,2.13c0,1.09 -0.453,1.92 -1.357,2.49c-0.905,0.55 -2.025,0.83 -3.362,0.83c-1.768,0 -3.233,-0.5 -4.394,-1.5l1.195,-1.37c0.445,0.35 0.938,0.63 1.478,0.85c0.554,0.2 1.127,0.3 1.721,0.3z" fill="currentColor"/>
</g></svg>