<svg viewBox="0 0 77.625 27" fill="none" xmlns="http://www.w3.org/2000/svg" xmlns:xlink="http://www.w3.org/1999/xlink" x="0" y="0"><defs><clipPath id="clip6_3088_2077">
<rect width="77.625" height="27" fill="white" transform="translate(-0.00030000000000995897, 0.002499999999827196)"/>
</clipPath></defs><g id="Placement Logos" clip-path="url(#clip6_3088_2077)">
<path id="Vector_26" fill-rule="evenodd" clip-rule="evenodd" d="M13.4997,27.0025c7.456,0 13.5,-6.05 13.5,-13.5c0,-7.46 -6.044,-13.5 -13.5,-13.5c-7.456,0 -13.5,6.04 -13.5,13.5c0,7.45 6.044,13.5 13.5,13.5zM15.5837,10.4325c1.151,-1.15 1.151,-3.02 0,-4.17c-1.151,-1.15 -3.017,-1.15 -4.167,0c-1.151,1.15 -1.151,3.02 0,4.17l2.083,2.08zM16.5697,15.5825c1.151,1.15 3.016,1.15 4.167,0c1.151,-1.15 1.151,-3.02 0,-4.17c-1.151,-1.15 -3.016,-1.15 -4.167,0l-2.084,2.09zM15.5837,20.7325c1.151,-1.15 1.151,-3.01 0,-4.16l-2.084,-2.09l-2.083,2.09c-1.151,1.15 -1.151,3.01 0,4.16c1.15,1.16 3.016,1.16 4.167,0zM6.2627,15.5825c-1.15,-1.15 -1.15,-3.02 0,-4.17c1.151,-1.15 3.017,-1.15 4.168,0l2.083,2.09l-2.083,2.08c-1.151,1.15 -3.017,1.15 -4.168,0z" fill="currentColor"/>
<path id="Vector_27" d="M40.1147,20.5325c-0.648,0 -1.222,-0.13 -1.721,-0.38c-0.486,-0.27 -0.885,-0.67 -1.195,-1.18c-0.311,-0.52 -0.527,-1.17 -0.648,-1.94h-0.304l-0.04,3.22h-2.734v-4.72v-9.72h3.26v3.4c0,0.34 -0.02,0.7 -0.061,1.07c-0.04,0.38 -0.094,0.78 -0.162,1.2c-0.067,0.4 -0.148,0.83 -0.243,1.28h0.385c0.162,-0.79 0.398,-1.43 0.709,-1.93c0.31,-0.51 0.702,-0.9 1.174,-1.15c0.473,-0.26 1.026,-0.39 1.661,-0.39c0.85,0 1.586,0.23 2.207,0.67c0.635,0.43 1.127,1.07 1.478,1.9c0.351,0.83 0.527,1.84 0.527,3.04c0,1.2 -0.182,2.22 -0.547,3.06c-0.351,0.84 -0.85,1.48 -1.498,1.92c-0.635,0.44 -1.384,0.65 -2.248,0.65zM38.9197,17.9025c0.432,0 0.803,-0.12 1.114,-0.37c0.324,-0.25 0.567,-0.6 0.729,-1.05c0.175,-0.46 0.263,-0.97 0.263,-1.54c0,-0.59 -0.081,-1.11 -0.243,-1.56c-0.162,-0.44 -0.398,-0.79 -0.709,-1.05c-0.297,-0.26 -0.668,-0.38 -1.113,-0.38c-0.257,0 -0.5,0.04 -0.729,0.14c-0.23,0.09 -0.439,0.23 -0.628,0.4c-0.176,0.16 -0.331,0.36 -0.466,0.59c-0.135,0.23 -0.236,0.49 -0.304,0.77c-0.067,0.28 -0.101,0.58 -0.101,0.89v0.32c0,0.37 0.047,0.72 0.142,1.06c0.094,0.33 0.229,0.64 0.405,0.91c0.189,0.27 0.418,0.48 0.688,0.65c0.27,0.14 0.588,0.22 0.952,0.22zM48.0947,20.5325c-0.594,0 -1.127,-0.11 -1.6,-0.32c-0.459,-0.22 -0.83,-0.54 -1.114,-0.97c-0.27,-0.45 -0.405,-1 -0.405,-1.67c0,-0.71 0.156,-1.28 0.466,-1.72c0.324,-0.43 0.736,-0.76 1.235,-0.99c0.513,-0.24 1.047,-0.42 1.6,-0.53c0.567,-0.1 1.1,-0.2 1.6,-0.28c0.513,-0.08 0.911,-0.15 1.195,-0.22c0.297,-0.07 0.506,-0.17 0.627,-0.31c0.135,-0.13 0.203,-0.31 0.203,-0.52c0,-0.24 -0.061,-0.45 -0.182,-0.63c-0.108,-0.19 -0.277,-0.33 -0.507,-0.42c-0.229,-0.11 -0.513,-0.17 -0.85,-0.17c-0.351,0 -0.682,0.06 -0.992,0.19c-0.297,0.12 -0.554,0.31 -0.77,0.58c-0.202,0.26 -0.337,0.6 -0.405,1.02l-2.875,-0.63c0.108,-0.66 0.317,-1.22 0.627,-1.68c0.311,-0.48 0.696,-0.86 1.155,-1.16c0.459,-0.29 0.965,-0.5 1.518,-0.63c0.567,-0.13 1.168,-0.2 1.803,-0.2c0.81,0 1.505,0.1 2.085,0.31c0.594,0.2 1.08,0.51 1.458,0.93c0.392,0.4 0.675,0.92 0.851,1.54c0.189,0.62 0.283,1.35 0.283,2.18v1.72c0,0.48 0.007,0.96 0.021,1.44c0.013,0.47 0.027,0.95 0.04,1.42c0.027,0.47 0.061,0.95 0.101,1.44h-2.855c-0.04,-0.38 -0.081,-0.79 -0.121,-1.24c-0.027,-0.46 -0.048,-0.94 -0.061,-1.44h-0.304c-0.135,0.56 -0.385,1.06 -0.749,1.5c-0.351,0.45 -0.79,0.81 -1.316,1.08c-0.513,0.25 -1.101,0.38 -1.762,0.38zM49.5117,18.2025c0.23,0 0.473,-0.04 0.729,-0.12c0.257,-0.09 0.5,-0.23 0.729,-0.4c0.23,-0.18 0.432,-0.4 0.608,-0.67c0.175,-0.27 0.297,-0.59 0.364,-0.95l-0.02,-1.22l0.466,0.04c-0.203,0.18 -0.446,0.31 -0.729,0.41c-0.284,0.09 -0.587,0.17 -0.911,0.24c-0.311,0.05 -0.621,0.11 -0.932,0.18c-0.31,0.06 -0.594,0.13 -0.85,0.22c-0.243,0.1 -0.439,0.23 -0.588,0.39c-0.135,0.16 -0.202,0.39 -0.202,0.69c0,0.36 0.121,0.65 0.364,0.87c0.257,0.21 0.581,0.32 0.972,0.32zM60.9977,20.5325c-0.716,0 -1.371,-0.07 -1.965,-0.2c-0.594,-0.14 -1.113,-0.33 -1.559,-0.59c-0.432,-0.27 -0.783,-0.61 -1.053,-1.01c-0.256,-0.41 -0.412,-0.88 -0.466,-1.42l2.592,-0.79c0.068,0.31 0.21,0.6 0.426,0.85c0.216,0.26 0.506,0.46 0.87,0.61c0.365,0.13 0.81,0.2 1.337,0.2c0.499,0 0.898,-0.07 1.195,-0.22c0.31,-0.15 0.465,-0.38 0.465,-0.69c0,-0.2 -0.074,-0.36 -0.222,-0.49c-0.149,-0.12 -0.385,-0.22 -0.709,-0.32c-0.324,-0.11 -0.743,-0.22 -1.256,-0.32c-0.567,-0.14 -1.12,-0.28 -1.66,-0.43c-0.54,-0.16 -1.026,-0.36 -1.458,-0.61c-0.432,-0.25 -0.776,-0.58 -1.033,-0.97c-0.256,-0.39 -0.385,-0.88 -0.385,-1.48c0,-0.68 0.183,-1.28 0.547,-1.78c0.378,-0.5 0.911,-0.89 1.6,-1.17c0.702,-0.29 1.539,-0.43 2.511,-0.43c0.864,0 1.64,0.12 2.329,0.37c0.688,0.23 1.248,0.58 1.68,1.07c0.446,0.47 0.709,1.07 0.79,1.8l-2.673,0.69c-0.027,-0.32 -0.135,-0.6 -0.324,-0.83c-0.189,-0.24 -0.439,-0.42 -0.749,-0.55c-0.311,-0.13 -0.675,-0.2 -1.094,-0.2c-0.499,0 -0.891,0.09 -1.174,0.26c-0.27,0.17 -0.405,0.38 -0.405,0.63c0,0.22 0.088,0.4 0.263,0.55c0.189,0.13 0.459,0.25 0.81,0.34c0.351,0.1 0.783,0.21 1.296,0.33c0.513,0.09 1.019,0.21 1.519,0.36c0.513,0.15 0.985,0.35 1.417,0.59c0.432,0.23 0.777,0.55 1.033,0.95c0.257,0.39 0.385,0.89 0.385,1.5c0,0.69 -0.189,1.29 -0.567,1.8c-0.378,0.51 -0.932,0.91 -1.661,1.2c-0.715,0.27 -1.599,0.4 -2.652,0.4zM71.9927,20.5325c-0.932,0 -1.749,-0.13 -2.451,-0.38c-0.688,-0.26 -1.269,-0.62 -1.741,-1.1c-0.459,-0.48 -0.81,-1.06 -1.053,-1.72c-0.23,-0.66 -0.344,-1.4 -0.344,-2.23c0,-0.81 0.114,-1.57 0.344,-2.28c0.229,-0.72 0.567,-1.34 1.012,-1.87c0.459,-0.52 1.026,-0.94 1.701,-1.23c0.675,-0.3 1.445,-0.45 2.309,-0.45c0.877,0 1.64,0.15 2.288,0.45c0.662,0.28 1.202,0.7 1.62,1.25c0.419,0.56 0.709,1.22 0.871,1.99c0.175,0.75 0.216,1.6 0.121,2.55l-8.16,0.08v-1.72l6.075,-0.08l-0.891,0.87c0.081,-0.65 0.047,-1.18 -0.102,-1.6c-0.148,-0.43 -0.378,-0.75 -0.688,-0.95c-0.311,-0.22 -0.675,-0.33 -1.094,-0.33c-0.486,0 -0.897,0.13 -1.235,0.39c-0.337,0.25 -0.594,0.63 -0.769,1.11c-0.176,0.47 -0.264,1.05 -0.264,1.74c0,1.1 0.216,1.89 0.648,2.39c0.446,0.5 1.047,0.75 1.803,0.75c0.351,0 0.641,-0.05 0.87,-0.14c0.23,-0.09 0.419,-0.22 0.567,-0.36c0.149,-0.17 0.257,-0.35 0.324,-0.55c0.081,-0.2 0.135,-0.41 0.162,-0.63l2.896,0.47c-0.054,0.48 -0.182,0.94 -0.385,1.37c-0.189,0.42 -0.479,0.8 -0.87,1.14c-0.378,0.32 -0.858,0.59 -1.438,0.79c-0.581,0.19 -1.289,0.28 -2.126,0.28z" fill="currentColor"/>
</g></svg>