<svg viewBox="0 0 109.35 27.675" fill="none" xmlns="http://www.w3.org/2000/svg" xmlns:xlink="http://www.w3.org/1999/xlink" x="0" y="0"><defs><clipPath id="clip7_3088_2077">
<rect width="109.35" height="27.675" fill="white" transform="translate(-0.0004000000000132786, 0)"/>
</clipPath></defs><g id="Placement Logos_4" clip-path="url(#clip7_3088_2077)">
<path id="Vector_45" fill-rule="evenodd" clip-rule="evenodd" d="M12.5646,18.52l-0.012,8.82h1.862l0.012,-8.85l3.395,8.17l1.72,-0.71l-3.374,-8.12l6.207,6.22l1.319,-1.31l-6.235,-6.25l8.154,3.38l0.714,-1.72l-8.153,-3.38h8.826v-1.86h-8.804l8.139,-3.37l-0.711,-1.72l-8.107,3.35l6.233,-6.17l-1.309,-1.32l-6.313,6.25l3.401,-8.21l-1.72,-0.71l-3.37,8.13l0.011,-8.8h-1.862l-0.012,8.85l-3.398,-8.18l-1.72,0.72l3.373,8.11l-6.205,-6.22l-1.318,1.32l6.232,6.25l-8.151,-3.39l-0.714,1.72l8.155,3.39h-8.83v1.86h8.809l-8.14,3.36l0.711,1.72l8.102,-3.34l-6.231,6.16l1.31,1.33l6.306,-6.25l-3.399,8.2l1.72,0.71z" fill="currentColor"/>
<path id="Vector_46" d="M40.9256,22.48c-1.471,0 -2.787,-0.34 -3.948,-1.02c-1.161,-0.67 -2.073,-1.59 -2.734,-2.77c-0.648,-1.19 -0.972,-2.52 -0.972,-3.99c0,-1.43 0.331,-2.72 0.992,-3.87c0.662,-1.14 1.58,-2.04 2.754,-2.69c1.175,-0.65 2.498,-0.97 3.969,-0.97c0.797,0 1.512,0.07 2.147,0.22c0.648,0.14 1.174,0.3 1.579,0.49c0.405,0.17 0.682,0.33 0.83,0.46l-0.891,1.91c-0.837,-0.68 -2.072,-1.02 -3.705,-1.02c-1.08,0 -2.019,0.24 -2.815,0.71c-0.797,0.48 -1.404,1.12 -1.823,1.93c-0.418,0.81 -0.627,1.71 -0.627,2.71c0,1.13 0.222,2.15 0.668,3.04c0.459,0.89 1.087,1.58 1.883,2.08c0.81,0.49 1.721,0.73 2.734,0.73c0.634,0 1.242,-0.07 1.822,-0.22c0.581,-0.16 1.074,-0.41 1.479,-0.75v-2.88h-3.058v-2.08h5.305v5.83c-0.486,0.61 -1.221,1.12 -2.207,1.54c-0.972,0.4 -2.099,0.61 -3.382,0.61zM48.0366,12.98h2.187v1.82c0.216,-0.62 0.567,-1.12 1.053,-1.5c0.486,-0.37 1.039,-0.56 1.66,-0.56c0.432,0 0.729,0.04 0.891,0.12l-0.303,2.21c-0.122,-0.09 -0.385,-0.13 -0.79,-0.13c-0.635,0 -1.215,0.21 -1.742,0.61c-0.513,0.41 -0.769,1.05 -0.769,1.95v4.77h-2.187zM58.6756,22.48c-0.837,0 -1.613,-0.2 -2.329,-0.59c-0.702,-0.4 -1.269,-0.97 -1.701,-1.7c-0.418,-0.74 -0.628,-1.61 -0.628,-2.59c0,-0.97 0.183,-1.83 0.547,-2.55c0.378,-0.73 0.911,-1.3 1.6,-1.71c0.688,-0.4 1.498,-0.6 2.43,-0.6c0.54,0 1.046,0.09 1.519,0.28c0.472,0.19 0.87,0.43 1.194,0.71c0.324,0.27 0.54,0.54 0.648,0.81l0.041,-1.56h2.086v9.29h-2.066l-0.04,-1.64c-0.23,0.49 -0.648,0.92 -1.256,1.3c-0.607,0.37 -1.289,0.55 -2.045,0.55zM59.0396,20.65c0.77,0 1.418,-0.26 1.944,-0.78c0.527,-0.54 0.79,-1.25 0.79,-2.11v-0.14c0,-0.58 -0.121,-1.1 -0.364,-1.56c-0.243,-0.46 -0.574,-0.82 -0.993,-1.08c-0.418,-0.25 -0.877,-0.38 -1.377,-0.38c-0.864,0 -1.532,0.28 -2.004,0.85c-0.473,0.55 -0.709,1.28 -0.709,2.17c0,0.9 0.229,1.64 0.688,2.2c0.473,0.56 1.148,0.83 2.025,0.83zM66.2536,12.98h2.106v1.72c0.743,-1.31 1.904,-1.96 3.483,-1.96c1.31,0 2.37,0.42 3.18,1.25c0.81,0.83 1.215,2.02 1.215,3.59c0,0.97 -0.203,1.83 -0.608,2.57c-0.391,0.74 -0.931,1.31 -1.62,1.72c-0.675,0.4 -1.431,0.61 -2.268,0.61c-0.783,0 -1.465,-0.14 -2.045,-0.41c-0.567,-0.28 -1.013,-0.68 -1.337,-1.19l0.021,6.32h-2.127zM71.2356,20.63c0.877,0 1.552,-0.27 2.025,-0.83c0.472,-0.56 0.709,-1.28 0.709,-2.16c0,-0.92 -0.237,-1.65 -0.709,-2.19c-0.459,-0.55 -1.134,-0.83 -2.025,-0.83c-0.486,0 -0.945,0.12 -1.377,0.36c-0.419,0.23 -0.756,0.57 -1.013,1.02c-0.243,0.43 -0.364,0.94 -0.364,1.52v0.14c0,0.58 0.121,1.1 0.364,1.56c0.257,0.44 0.594,0.79 1.013,1.05c0.418,0.24 0.877,0.36 1.377,0.36zM77.8636,7.39h2.127v5.59l-0.081,1.72c0.256,-0.57 0.668,-1.03 1.235,-1.4c0.567,-0.37 1.228,-0.56 1.984,-0.56c0.959,0 1.695,0.2 2.208,0.6c0.513,0.4 0.857,0.95 1.032,1.67c0.176,0.71 0.264,1.64 0.264,2.79v4.47h-2.167v-4.49c0,-0.78 -0.047,-1.4 -0.142,-1.84c-0.081,-0.45 -0.256,-0.79 -0.526,-1.02c-0.257,-0.23 -0.635,-0.34 -1.134,-0.34c-0.405,0 -0.817,0.12 -1.236,0.36c-0.405,0.25 -0.742,0.61 -1.012,1.08c-0.27,0.46 -0.405,1 -0.405,1.64v4.61h-2.147zM88.7626,12.98h2.268v9.29h-2.268zM89.8766,11.24c-0.419,0 -0.77,-0.14 -1.053,-0.43c-0.284,-0.28 -0.426,-0.63 -0.426,-1.05c0,-0.38 0.142,-0.7 0.426,-0.97c0.283,-0.27 0.634,-0.41 1.053,-0.41c0.405,0 0.749,0.14 1.032,0.41c0.284,0.27 0.426,0.59 0.426,0.97c0,0.42 -0.142,0.77 -0.426,1.05c-0.27,0.29 -0.614,0.43 -1.032,0.43zM94.0586,14.76h-1.64v-1.78h1.64v-3.79l2.207,-0.48v4.27h2.147v1.78h-2.147v7.51h-2.207zM103.7736,22.48c-1.107,0 -2.031,-0.22 -2.774,-0.65c-0.742,-0.45 -1.289,-1.03 -1.64,-1.76c-0.351,-0.74 -0.527,-1.55 -0.527,-2.43c0,-0.99 0.203,-1.85 0.608,-2.59c0.418,-0.75 0.992,-1.31 1.721,-1.71c0.729,-0.4 1.553,-0.6 2.471,-0.6c1.431,0 2.49,0.4 3.179,1.19c0.702,0.78 1.053,1.89 1.053,3.32c0,0.37 -0.02,0.75 -0.061,1.14h-6.682c0.148,0.82 0.438,1.41 0.87,1.78c0.446,0.36 1.06,0.55 1.843,0.55c0.648,0 1.181,-0.06 1.6,-0.17c0.418,-0.1 0.803,-0.25 1.154,-0.44l0.668,1.56c-0.337,0.21 -0.796,0.4 -1.377,0.56c-0.58,0.17 -1.282,0.25 -2.106,0.25zM105.7386,16.87c0.013,-0.84 -0.169,-1.43 -0.547,-1.76c-0.378,-0.35 -0.918,-0.53 -1.62,-0.53c-1.418,0 -2.234,0.76 -2.45,2.29z" fill="currentColor"/>
</g></svg>