<svg viewBox="0 0 112.725 27" fill="none" xmlns="http://www.w3.org/2000/svg" xmlns:xlink="http://www.w3.org/1999/xlink" x="0" y="0"><defs><mask id="mask1_3088_2077" style="mask-type:luminance" maskUnits="userSpaceOnUse" x="-0.4375" y="-0.33750000000009095" width="28" height="28">
<g id="clip0_2229_4533" data-node-id="3088:2229">
<path id="Vector_47" data-node-id="3088:2230" d="M26.9995,0.0025h-26.999v27h26.999z" fill="white"/>
</g>
</mask><clipPath id="clip8_3088_2077">
<rect width="112.725" height="27" fill="white" transform="translate(0.0004999999999881766, 0.002499999999827196)"/>
</clipPath></defs><g id="Placement Logos_5" clip-path="url(#clip8_3088_2077)">
<g id="Clip path group">
<mask id="mask1_3088_2077" style="mask-type:luminance" maskUnits="userSpaceOnUse" x="926" y="1346" width="28" height="28">
<g id="clip0_2229_4533">
<path id="Vector_47" d="M953.437 1346.34H926.438V1373.34H953.437V1346.34Z" fill="white"/>
</g>
</mask>
<g mask="url(#mask1_3088_2077)">
<g id="Group_3">
<path id="Vector_48" d="M13.4995,0.0025c7.456,0 13.5,6.04 13.5,13.5v9.45c0,1.07 -0.427,2.1 -1.186,2.86c-0.76,0.76 -1.79,1.19 -2.864,1.19h-8.775v-5.92c0,-1.36 0.082,-2.76 0.791,-3.91c0.507,-0.82 1.186,-1.53 1.99,-2.07c0.804,-0.53 1.715,-0.89 2.67,-1.05l0.259,-0.04c0.106,-0.04 0.199,-0.11 0.264,-0.2c0.066,-0.09 0.101,-0.2 0.101,-0.31c0,-0.12 -0.035,-0.22 -0.101,-0.32c-0.065,-0.09 -0.158,-0.16 -0.264,-0.19l-0.259,-0.05c-1.396,-0.22 -2.684,-0.88 -3.685,-1.88c-1,-1 -1.66,-2.29 -1.888,-3.69l-0.042,-0.26c-0.037,-0.1 -0.105,-0.2 -0.197,-0.26c-0.092,-0.07 -0.201,-0.1 -0.314,-0.1c-0.113,0 -0.223,0.03 -0.314,0.1c-0.092,0.06 -0.161,0.16 -0.197,0.26l-0.042,0.26c-0.156,0.96 -0.515,1.87 -1.054,2.67c-0.539,0.81 -1.245,1.48 -2.069,1.99c-1.15,0.71 -2.55,0.79 -3.902,0.79h-5.906c0.353,-7.14 6.255,-12.82 13.484,-12.82z" fill="currentColor"/>
<path id="Vector_49" d="M0.0005,14.1725h5.922c1.351,0 2.751,0.08 3.901,0.79c0.9,0.56 1.656,1.31 2.21,2.21c0.709,1.15 0.791,2.55 0.791,3.91v5.92h-8.775c-1.074,0 -2.104,-0.43 -2.863,-1.19c-0.76,-0.76 -1.186,-1.79 -1.186,-2.86zM26.9995,1.3525c0,0.36 -0.142,0.7 -0.395,0.95c-0.253,0.26 -0.596,0.4 -0.955,0.4c-0.358,0 -0.701,-0.14 -0.954,-0.4c-0.253,-0.25 -0.396,-0.59 -0.396,-0.95c0,-0.36 0.143,-0.7 0.396,-0.96c0.253,-0.25 0.596,-0.39 0.954,-0.39c0.359,0 0.702,0.14 0.955,0.39c0.253,0.26 0.395,0.6 0.395,0.96z" fill="currentColor"/>
</g>
</g>
</g>
<path id="Vector_50" d="M33.6155,21.6025v-15.19h2.976v15.19zM38.2035,21.6025v-11.08l2.714,-0.34v2.51c0.216,-0.93 0.587,-1.62 1.114,-2.05c0.526,-0.43 1.107,-0.65 1.741,-0.65c0.635,0 1.148,0.2 1.539,0.59c0.405,0.38 0.662,1.01 0.77,1.88c0.229,-0.86 0.594,-1.49 1.093,-1.88c0.513,-0.39 1.08,-0.59 1.701,-0.59c0.77,0 1.357,0.29 1.762,0.85c0.405,0.57 0.607,1.5 0.607,2.78v7.98h-2.835v-7.17c0,-0.72 -0.074,-1.22 -0.222,-1.5c-0.135,-0.28 -0.351,-0.42 -0.648,-0.42c-0.405,0 -0.743,0.28 -1.013,0.85c-0.256,0.55 -0.385,1.36 -0.385,2.43v5.81h-2.835v-7.17c0,-0.72 -0.074,-1.22 -0.222,-1.5c-0.135,-0.28 -0.351,-0.42 -0.648,-0.42c-0.405,0 -0.743,0.28 -1.013,0.85c-0.256,0.55 -0.385,1.36 -0.385,2.43v5.81zM54.8715,21.8425c-0.81,0 -1.458,-0.28 -1.944,-0.85c-0.486,-0.58 -0.729,-1.38 -0.729,-2.39c0,-0.89 0.216,-1.61 0.648,-2.17c0.445,-0.56 1.046,-0.97 1.802,-1.23c0.756,-0.27 1.613,-0.41 2.572,-0.41v-1.03c0,-0.42 -0.081,-0.78 -0.243,-1.07c-0.149,-0.31 -0.432,-0.47 -0.851,-0.47c-0.351,0 -0.614,0.16 -0.79,0.47c-0.175,0.29 -0.29,0.65 -0.344,1.07l-2.511,-0.55c0.176,-1.08 0.601,-1.88 1.276,-2.41c0.688,-0.54 1.505,-0.81 2.45,-0.81c1.323,0 2.295,0.36 2.916,1.08c0.621,0.71 0.932,1.71 0.932,2.99v4.54c0,0.54 0.027,1.06 0.081,1.56c0.067,0.5 0.175,0.98 0.324,1.44h-2.754c-0.189,-0.49 -0.291,-0.98 -0.304,-1.48c-0.203,0.49 -0.513,0.9 -0.932,1.23c-0.405,0.33 -0.938,0.49 -1.599,0.49zM55.0125,18.2025c0,0.41 0.088,0.75 0.264,1.01c0.189,0.25 0.465,0.38 0.83,0.38c0.337,0 0.607,-0.11 0.81,-0.34c0.202,-0.23 0.304,-0.53 0.304,-0.89v-2.05c-0.702,0 -1.249,0.18 -1.641,0.55c-0.378,0.35 -0.567,0.8 -0.567,1.34zM65.4155,25.0025c-1.323,0 -2.39,-0.24 -3.2,-0.73c-0.81,-0.47 -1.215,-1.12 -1.215,-1.94c0,-0.48 0.135,-0.89 0.405,-1.24c0.284,-0.35 0.675,-0.61 1.175,-0.77c-0.635,-0.38 -0.952,-0.93 -0.952,-1.66c0,-0.86 0.493,-1.54 1.478,-2.02c-0.54,-0.31 -0.965,-0.72 -1.275,-1.22c-0.311,-0.5 -0.466,-1.06 -0.466,-1.68c0,-0.7 0.182,-1.33 0.547,-1.88c0.364,-0.56 0.864,-0.99 1.498,-1.32c0.635,-0.32 1.35,-0.48 2.147,-0.48c0.837,0 1.572,0.17 2.207,0.52c0.135,-0.65 0.391,-1.23 0.769,-1.74c0.378,-0.51 0.837,-0.85 1.377,-1.01l0.749,2.31c-0.796,0.21 -1.458,0.58 -1.984,1.11c0.324,0.32 0.574,0.7 0.749,1.13c0.189,0.42 0.284,0.87 0.284,1.36c0,0.69 -0.176,1.3 -0.527,1.82c-0.351,0.53 -0.844,0.94 -1.478,1.24c-0.621,0.3 -1.336,0.44 -2.146,0.44c-0.23,0 -0.453,-0.01 -0.669,-0.04c-0.216,-0.02 -0.425,-0.06 -0.627,-0.1c-0.203,0.12 -0.304,0.29 -0.304,0.51c0,0.17 0.081,0.33 0.243,0.46c0.175,0.14 0.439,0.22 0.79,0.25l2.025,0.18c1.079,0.09 1.916,0.4 2.51,0.93c0.594,0.51 0.891,1.24 0.891,2.19c0,1.02 -0.438,1.84 -1.316,2.45c-0.864,0.62 -2.092,0.93 -3.685,0.93zM65.5365,15.5425c0.392,0 0.702,-0.17 0.932,-0.5c0.229,-0.35 0.344,-0.81 0.344,-1.38c0,-0.58 -0.115,-1.04 -0.344,-1.38c-0.23,-0.35 -0.54,-0.52 -0.932,-0.52c-0.391,0 -0.702,0.17 -0.931,0.52c-0.23,0.34 -0.344,0.79 -0.344,1.36c0,0.58 0.114,1.05 0.344,1.4c0.243,0.33 0.553,0.5 0.931,0.5zM65.6175,22.9725c0.662,0 1.175,-0.08 1.539,-0.24c0.365,-0.16 0.547,-0.41 0.547,-0.75c0,-0.31 -0.115,-0.54 -0.344,-0.71c-0.23,-0.17 -0.641,-0.29 -1.235,-0.34l-2.086,-0.2c-0.068,0 -0.115,-0.01 -0.142,-0.02c-0.243,0.27 -0.364,0.58 -0.364,0.93c0,0.46 0.195,0.79 0.587,1.01c0.391,0.22 0.891,0.32 1.498,0.32zM71.2665,21.6025v-11.14l2.836,-0.34v11.48zM71.3875,9.0225v-2.69h2.595v2.69zM75.5625,21.6025v-11.08l2.71,-0.34v2.51c0.22,-0.93 0.6,-1.62 1.14,-2.05c0.54,-0.43 1.17,-0.65 1.9,-0.65c0.8,0 1.43,0.28 1.9,0.83c0.49,0.54 0.73,1.41 0.73,2.6v8.18h-2.83v-7.05c0,-0.81 -0.09,-1.36 -0.27,-1.66c-0.17,-0.31 -0.45,-0.47 -0.85,-0.47c-0.47,0 -0.85,0.33 -1.15,0.98c-0.3,0.63 -0.45,1.43 -0.45,2.39v5.81zM89.1225,21.8625c-1.01,0 -1.83,-0.26 -2.47,-0.77c-0.62,-0.53 -1.08,-1.23 -1.37,-2.1c-0.29,-0.9 -0.43,-1.89 -0.43,-2.98c0,-1.16 0.17,-2.19 0.51,-3.08c0.33,-0.9 0.82,-1.61 1.45,-2.11c0.64,-0.51 1.4,-0.76 2.29,-0.76c0.92,0 1.67,0.2 2.25,0.62c0.58,0.42 1.01,0.99 1.28,1.7c0.27,0.71 0.4,1.51 0.4,2.41c0,0.62 -0.02,1.28 -0.06,1.97h-5.24c0.01,0.47 0.06,0.94 0.14,1.4c0.08,0.45 0.22,0.83 0.42,1.13c0.2,0.28 0.5,0.42 0.87,0.42c0.46,0 0.77,-0.18 0.93,-0.54c0.18,-0.37 0.29,-0.77 0.35,-1.22l2.51,0.53c-0.19,1.05 -0.63,1.88 -1.32,2.49c-0.67,0.59 -1.51,0.89 -2.51,0.89zM87.7325,14.9625h2.69v-0.29c0,-0.38 -0.04,-0.75 -0.1,-1.13c-0.07,-0.39 -0.2,-0.72 -0.39,-0.97c-0.17,-0.27 -0.43,-0.41 -0.77,-0.41c-0.35,0 -0.62,0.14 -0.83,0.43c-0.2,0.27 -0.35,0.62 -0.44,1.05c-0.08,0.43 -0.14,0.87 -0.16,1.32zM104.4825,21.8825l-0.64,-3.06h-3.26l-0.47,2.78h-2.94l3.1,-15.01l3.67,-0.42l3.52,15.43zM102.0925,9.3925l-0.16,0.99l-1.11,5.97h2.63l-1.17,-5.99zM108.3725,21.6025v-15.19h2.98v15.19z" fill="currentColor"/>
</g></svg>