<svg viewBox="0 0 99.225 27" fill="none" xmlns="http://www.w3.org/2000/svg" xmlns:xlink="http://www.w3.org/1999/xlink" x="0" y="0"><defs><mask id="mask2_3088_2077" style="mask-type:luminance" maskUnits="userSpaceOnUse" x="-0.16210000000000946" y="-0.33750000000009095" width="28" height="28">
<g id="clip0_2229_4494" data-node-id="3088:2237">
<path id="Vector_51" data-node-id="3088:2238" d="M26.9979,0.0025h-27v27h27z" fill="white"/>
</g>
</mask><clipPath id="clip9_3088_2077">
<rect width="99.225" height="27" fill="white" transform="translate(-0.0020999999999276042, 0.002499999999827196)"/>
</clipPath></defs><g id="Placement Logos_6" clip-path="url(#clip9_3088_2077)">
<g id="Clip path group_2">
<mask id="mask2_3088_2077" style="mask-type:luminance" maskUnits="userSpaceOnUse" x="1126" y="1346" width="28" height="28">
<g id="clip0_2229_4494">
<path id="Vector_51" d="M1153.16 1346.34H1126.16V1373.34H1153.16V1346.34Z" fill="white"/>
</g>
</mask>
<g mask="url(#mask2_3088_2077)">
<g id="Group_4">
<path id="Vector_52" fill-rule="evenodd" clip-rule="evenodd" d="M20.2479,0.4825c1.5,0 3.08,0.44 4.24,1.4c1.31,1.09 1.93,2.82 2.02,4.47c0.09,1.65 -0.36,3.42 -1.42,4.67c-1.18,1.39 -3.07,2 -4.84,2c-1.77,0 -3.66,-0.61 -4.84,-2c-1.07,-1.25 -1.51,-3.02 -1.42,-4.67c0.08,-1.65 0.71,-3.38 2.02,-4.47c1.15,-0.96 2.73,-1.4 4.24,-1.4zM10.9879,15.3725c-1.15,-0.96 -2.73,-1.39 -4.23,-1.39c-1.51,0 -3.09,0.43 -4.24,1.39c-1.31,1.1 -1.94,2.82 -2.02,4.47c-0.09,1.65 0.35,3.43 1.42,4.68c1.18,1.38 3.06,2 4.84,2c1.77,0 3.66,-0.62 4.84,-2c1.06,-1.25 1.5,-3.03 1.42,-4.68c-0.09,-1.65 -0.72,-3.37 -2.03,-4.47zM10.3179,4.0725c-0.78,-0.66 -1.84,-0.94 -2.82,-0.94c-0.98,0 -2.03,0.28 -2.82,0.94c-0.9,0.75 -1.31,1.91 -1.36,2.99c-0.06,1.08 0.22,2.26 0.95,3.11c0.81,0.95 2.08,1.35 3.23,1.35c1.15,0 2.43,-0.4 3.23,-1.35c0.73,-0.85 1.02,-2.03 0.96,-3.11c-0.06,-1.08 -0.47,-2.24 -1.37,-2.99zM20.3279,16.5125c0.99,0 2.04,0.28 2.83,0.94c0.9,0.75 1.3,1.91 1.36,2.99c0.06,1.07 -0.23,2.25 -0.95,3.11c-0.81,0.95 -2.08,1.35 -3.24,1.35c-1.15,0 -2.42,-0.4 -3.23,-1.35c-0.72,-0.86 -1.01,-2.04 -0.95,-3.11c0.05,-1.08 0.46,-2.24 1.36,-2.99c0.79,-0.66 1.84,-0.94 2.82,-0.94z" fill="currentColor"/>
</g>
</g>
</g>
<path id="Vector_53" d="M41.2879,21.8425c-1.05,0 -2.04,-0.19 -2.95,-0.56c-0.91,-0.4 -1.71,-0.94 -2.39,-1.62c-0.69,-0.71 -1.23,-1.53 -1.62,-2.47c-0.4,-0.96 -0.59,-2.01 -0.59,-3.14c0,-1.14 0.19,-2.18 0.59,-3.12c0.39,-0.96 0.93,-1.78 1.62,-2.47c0.68,-0.7 1.48,-1.24 2.39,-1.62c0.91,-0.38 1.9,-0.57 2.95,-0.57c1.05,0 2.03,0.2 2.94,0.59c0.92,0.38 1.72,0.92 2.41,1.62c0.69,0.69 1.23,1.5 1.62,2.45c0.39,0.94 0.58,1.98 0.58,3.12c0,1.13 -0.19,2.18 -0.58,3.14c-0.39,0.94 -0.93,1.76 -1.62,2.47c-0.69,0.68 -1.49,1.22 -2.41,1.62c-0.91,0.37 -1.89,0.56 -2.94,0.56zM41.2879,20.3225c0.88,0 1.68,-0.16 2.39,-0.48c0.73,-0.33 1.36,-0.78 1.88,-1.36c0.53,-0.58 0.94,-1.25 1.22,-2c0.3,-0.76 0.44,-1.57 0.44,-2.43c0,-0.85 -0.14,-1.66 -0.44,-2.41c-0.28,-0.76 -0.69,-1.43 -1.22,-2.01c-0.52,-0.58 -1.15,-1.03 -1.88,-1.35c-0.71,-0.33 -1.51,-0.49 -2.39,-0.49c-0.88,0 -1.68,0.16 -2.41,0.49c-0.71,0.32 -1.33,0.77 -1.86,1.35c-0.53,0.58 -0.94,1.25 -1.24,2.01c-0.28,0.75 -0.42,1.56 -0.42,2.41c0,0.86 0.14,1.67 0.42,2.43c0.3,0.75 0.71,1.42 1.24,2c0.53,0.58 1.15,1.03 1.88,1.36c0.73,0.32 1.53,0.48 2.39,0.48zM45.6479,23.4225l-5.37,-7.85h1.84l5.37,7.85zM55.7879,21.8425c-0.76,0 -1.45,-0.17 -2.07,-0.52c-0.62,-0.37 -1.11,-0.87 -1.47,-1.5c-0.36,-0.65 -0.53,-1.39 -0.53,-2.23v-6.84h1.52v6.66c0,0.58 0.11,1.09 0.34,1.54c0.25,0.43 0.58,0.77 0.99,1.01c0.44,0.24 0.93,0.36 1.48,0.36c0.56,0 1.05,-0.12 1.48,-0.36c0.43,-0.26 0.77,-0.61 1.01,-1.07c0.25,-0.48 0.37,-1.04 0.37,-1.68v-6.46h1.52v10.85h-1.52v-2.11l0.34,0.08c-0.25,0.71 -0.69,1.26 -1.31,1.67c-0.63,0.4 -1.34,0.6 -2.15,0.6zM68.6879,21.8425c-1.01,0 -1.93,-0.24 -2.75,-0.73c-0.81,-0.5 -1.45,-1.18 -1.92,-2.04c-0.48,-0.87 -0.71,-1.84 -0.71,-2.94c0,-1.09 0.23,-2.06 0.69,-2.89c0.45,-0.85 1.08,-1.52 1.86,-2.01c0.79,-0.48 1.69,-0.73 2.67,-0.73c0.78,0 1.48,0.15 2.09,0.45c0.62,0.28 1.14,0.67 1.58,1.17c0.43,0.49 0.76,1.04 0.99,1.66c0.23,0.61 0.34,1.24 0.34,1.89c0,0.13 0,0.29 -0.02,0.46c-0.01,0.16 -0.03,0.33 -0.06,0.51h-9.17v-1.42h8.3l-0.73,0.61c0.12,-0.74 0.04,-1.41 -0.26,-1.99c-0.28,-0.59 -0.7,-1.06 -1.24,-1.39c-0.54,-0.35 -1.14,-0.53 -1.82,-0.53c-0.67,0 -1.3,0.18 -1.88,0.53c-0.57,0.35 -1.01,0.84 -1.34,1.48c-0.32,0.62 -0.45,1.36 -0.38,2.22c-0.07,0.87 0.06,1.62 0.4,2.27c0.35,0.64 0.83,1.13 1.42,1.48c0.61,0.35 1.25,0.53 1.94,0.53c0.8,0 1.47,-0.19 2.01,-0.57c0.54,-0.38 0.98,-0.85 1.31,-1.42l1.3,0.69c-0.22,0.49 -0.55,0.94 -0.99,1.36c-0.45,0.4 -0.98,0.73 -1.6,0.99c-0.61,0.24 -1.28,0.36 -2.03,0.36zM80.2579,21.8425c-0.76,0 -1.44,-0.17 -2.06,-0.52c-0.63,-0.37 -1.12,-0.87 -1.48,-1.5c-0.35,-0.65 -0.53,-1.39 -0.53,-2.23v-6.84h1.52v6.66c0,0.58 0.11,1.09 0.34,1.54c0.25,0.43 0.58,0.77 1,1.01c0.43,0.24 0.92,0.36 1.47,0.36c0.56,0 1.05,-0.12 1.48,-0.36c0.43,-0.26 0.77,-0.61 1.01,-1.07c0.25,-0.48 0.37,-1.04 0.37,-1.68v-6.46h1.52v10.85h-1.52v-2.11l0.34,0.08c-0.25,0.71 -0.69,1.26 -1.31,1.67c-0.62,0.4 -1.34,0.6 -2.15,0.6zM93.1579,21.8425c-1.01,0 -1.93,-0.24 -2.75,-0.73c-0.81,-0.5 -1.45,-1.18 -1.92,-2.04c-0.48,-0.87 -0.71,-1.84 -0.71,-2.94c0,-1.09 0.23,-2.06 0.69,-2.89c0.46,-0.85 1.08,-1.52 1.86,-2.01c0.8,-0.48 1.69,-0.73 2.67,-0.73c0.79,0 1.48,0.15 2.09,0.45c0.62,0.28 1.15,0.67 1.58,1.17c0.43,0.49 0.76,1.04 0.99,1.66c0.23,0.61 0.34,1.24 0.34,1.89c0,0.13 0,0.29 -0.02,0.46c-0.01,0.16 -0.03,0.33 -0.06,0.51h-9.17v-1.42h8.3l-0.73,0.61c0.13,-0.74 0.04,-1.41 -0.26,-1.99c-0.28,-0.59 -0.69,-1.06 -1.23,-1.39c-0.54,-0.35 -1.15,-0.53 -1.83,-0.53c-0.67,0 -1.3,0.18 -1.88,0.53c-0.57,0.35 -1.01,0.84 -1.34,1.48c-0.32,0.62 -0.45,1.36 -0.38,2.22c-0.07,0.87 0.07,1.62 0.4,2.27c0.35,0.64 0.83,1.13 1.42,1.48c0.61,0.35 1.26,0.53 1.94,0.53c0.8,0 1.47,-0.19 2.01,-0.57c0.54,-0.38 0.98,-0.85 1.32,-1.42l1.29,0.69c-0.21,0.49 -0.54,0.94 -0.99,1.36c-0.45,0.4 -0.98,0.73 -1.6,0.99c-0.61,0.24 -1.28,0.36 -2.03,0.36z" fill="currentColor"/>
</g></svg>