<svg viewBox="0 0 91.8 27" fill="none" xmlns="http://www.w3.org/2000/svg" xmlns:xlink="http://www.w3.org/1999/xlink" x="0" y="0"><g id="Placement Logos_3">
<path id="Vector_40" d="M13.7809,7.1725c0,3.49 -2.833,6.33 -6.328,6.33h-6.328v-6.33c0,-3.5 2.833,-6.33 6.328,-6.33c3.495,0 6.328,2.83 6.328,6.33z" fill="currentColor"/>
<path id="Vector_41" d="M13.7809,19.8325c0,-3.5 2.834,-6.33 6.328,-6.33h6.329v6.33c0,3.49 -2.834,6.32 -6.329,6.32c-3.494,0 -6.328,-2.83 -6.328,-6.32z" fill="currentColor"/>
<path id="Vector_42" d="M1.1249,19.8325c0,3.49 2.833,6.32 6.328,6.32h6.328v-6.32c0,-3.5 -2.833,-6.33 -6.328,-6.33c-3.495,0 -6.328,2.83 -6.328,6.33z" fill="currentColor"/>
<path id="Vector_43" d="M26.4379,7.1725c0,-3.5 -2.834,-6.33 -6.329,-6.33h-6.328v6.33c0,3.49 2.834,6.33 6.328,6.33c3.495,0 6.329,-2.84 6.329,-6.33z" fill="currentColor"/>
<path id="Vector_44" d="M39.5169,21.1225c-1.232,0 -2.307,-0.18 -3.223,-0.55c-0.916,-0.38 -1.631,-0.94 -2.146,-1.69c-0.507,-0.76 -0.767,-1.71 -0.781,-2.86h3.402c0.033,0.47 0.161,0.86 0.385,1.18c0.231,0.32 0.541,0.56 0.93,0.73c0.395,0.16 0.857,0.24 1.384,0.24c0.481,0 0.89,-0.06 1.226,-0.19c0.343,-0.14 0.607,-0.32 0.791,-0.55c0.185,-0.23 0.277,-0.5 0.277,-0.8c0,-0.28 -0.086,-0.51 -0.257,-0.7c-0.171,-0.2 -0.432,-0.37 -0.781,-0.52c-0.343,-0.15 -0.785,-0.28 -1.325,-0.4l-1.553,-0.36c-1.265,-0.29 -2.264,-0.76 -2.996,-1.41c-0.731,-0.66 -1.097,-1.55 -1.097,-2.68c0,-0.91 0.247,-1.71 0.742,-2.39c0.494,-0.69 1.173,-1.22 2.036,-1.6c0.871,-0.39 1.866,-0.58 2.986,-0.58c1.141,0 2.133,0.2 2.977,0.59c0.843,0.38 1.496,0.92 1.957,1.62c0.462,0.69 0.699,1.49 0.712,2.41h-3.421c-0.039,-0.53 -0.25,-0.94 -0.633,-1.23c-0.375,-0.29 -0.909,-0.44 -1.601,-0.44c-0.462,0 -0.847,0.06 -1.157,0.18c-0.304,0.12 -0.534,0.28 -0.692,0.49c-0.152,0.21 -0.228,0.45 -0.228,0.71c0,0.29 0.086,0.54 0.257,0.74c0.172,0.21 0.419,0.38 0.742,0.52c0.329,0.14 0.715,0.26 1.157,0.35l1.255,0.29c0.726,0.16 1.368,0.37 1.929,0.63c0.56,0.27 1.031,0.58 1.413,0.94c0.389,0.37 0.683,0.78 0.88,1.26c0.198,0.47 0.297,1 0.297,1.59c0,0.94 -0.234,1.74 -0.702,2.41c-0.461,0.67 -1.127,1.18 -1.997,1.54c-0.87,0.35 -1.918,0.53 -3.145,0.53zM49.5189,14.6225v6.3h-3.52v-14.73h3.392v5.71h0.128c0.251,-0.67 0.66,-1.2 1.227,-1.59c0.566,-0.39 1.265,-0.58 2.096,-0.58c0.771,0 1.443,0.17 2.017,0.52c0.58,0.35 1.028,0.83 1.345,1.45c0.316,0.62 0.474,1.35 0.474,2.18v7.04h-3.52v-6.35c0,-0.61 -0.155,-1.09 -0.465,-1.43c-0.309,-0.35 -0.748,-0.52 -1.315,-0.52c-0.369,0 -0.695,0.08 -0.978,0.23c-0.277,0.16 -0.495,0.39 -0.653,0.7c-0.152,0.29 -0.228,0.65 -0.228,1.07zM60.8759,21.1225c-0.705,0 -1.335,-0.12 -1.888,-0.36c-0.548,-0.24 -0.976,-0.6 -1.286,-1.08c-0.31,-0.48 -0.465,-1.09 -0.465,-1.82c0,-0.62 0.106,-1.13 0.317,-1.56c0.217,-0.42 0.514,-0.76 0.89,-1.02c0.382,-0.27 0.82,-0.47 1.315,-0.61c0.494,-0.14 1.021,-0.23 1.582,-0.27c0.626,-0.06 1.13,-0.12 1.513,-0.18c0.382,-0.06 0.659,-0.15 0.83,-0.28c0.178,-0.12 0.267,-0.3 0.267,-0.52v-0.05c0,-0.36 -0.125,-0.65 -0.376,-0.85c-0.25,-0.21 -0.593,-0.31 -1.028,-0.31c-0.468,0 -0.844,0.1 -1.127,0.31c-0.277,0.2 -0.455,0.48 -0.534,0.83l-3.233,-0.11c0.092,-0.67 0.336,-1.27 0.731,-1.8c0.402,-0.53 0.953,-0.95 1.652,-1.26c0.705,-0.3 1.555,-0.45 2.551,-0.45c0.698,0 1.344,0.08 1.938,0.25c0.593,0.16 1.11,0.4 1.552,0.72c0.442,0.32 0.784,0.7 1.028,1.16c0.244,0.45 0.366,0.97 0.366,1.55v7.51h-3.312v-1.55h-0.079c-0.205,0.38 -0.458,0.7 -0.762,0.96c-0.303,0.26 -0.659,0.45 -1.068,0.59c-0.402,0.13 -0.86,0.2 -1.374,0.2zM61.9539,18.8125c0.376,0 0.715,-0.08 1.018,-0.23c0.31,-0.16 0.554,-0.37 0.732,-0.64c0.184,-0.27 0.277,-0.59 0.277,-0.95v-1.04c-0.099,0.05 -0.221,0.1 -0.366,0.15c-0.138,0.04 -0.293,0.08 -0.465,0.12c-0.171,0.04 -0.346,0.07 -0.524,0.09c-0.171,0.03 -0.336,0.06 -0.494,0.08c-0.336,0.05 -0.623,0.13 -0.86,0.25c-0.231,0.11 -0.406,0.25 -0.524,0.43c-0.119,0.17 -0.178,0.38 -0.178,0.62c0,0.36 0.128,0.64 0.385,0.83c0.257,0.19 0.59,0.29 0.999,0.29zM68.5349,25.0625v-15.19h3.48v1.9h0.119c0.138,-0.34 0.34,-0.66 0.603,-0.97c0.27,-0.32 0.61,-0.58 1.018,-0.77c0.416,-0.2 0.916,-0.3 1.504,-0.3c0.77,0 1.489,0.2 2.155,0.61c0.665,0.4 1.203,1.02 1.612,1.86c0.415,0.84 0.622,1.91 0.622,3.21c0,1.25 -0.197,2.3 -0.593,3.14c-0.395,0.84 -0.929,1.48 -1.601,1.9c-0.667,0.42 -1.408,0.63 -2.225,0.63c-0.554,0 -1.036,-0.09 -1.444,-0.28c-0.409,-0.18 -0.751,-0.42 -1.028,-0.72c-0.271,-0.29 -0.478,-0.61 -0.623,-0.96h-0.08v5.94zM74.0129,18.3425c0.434,0 0.8,-0.12 1.097,-0.36c0.303,-0.25 0.531,-0.59 0.683,-1.03c0.157,-0.44 0.236,-0.96 0.236,-1.54c0,-0.6 -0.079,-1.11 -0.236,-1.55c-0.152,-0.44 -0.376,-0.78 -0.673,-1.03c-0.297,-0.24 -0.666,-0.36 -1.107,-0.36c-0.429,0 -0.795,0.12 -1.098,0.35c-0.303,0.24 -0.537,0.58 -0.702,1.02c-0.159,0.44 -0.238,0.96 -0.238,1.57c0,0.59 0.079,1.11 0.238,1.55c0.165,0.43 0.399,0.77 0.702,1.02c0.303,0.24 0.669,0.36 1.098,0.36zM85.4579,21.1325c-1.16,0 -2.159,-0.23 -2.996,-0.68c-0.837,-0.46 -1.48,-1.12 -1.928,-1.97c-0.442,-0.85 -0.662,-1.87 -0.662,-3.05c0,-1.14 0.224,-2.13 0.672,-2.98c0.448,-0.86 1.081,-1.52 1.899,-2c0.816,-0.48 1.779,-0.72 2.887,-0.72c0.784,0 1.502,0.12 2.155,0.38c0.659,0.24 1.226,0.6 1.701,1.08c0.481,0.48 0.85,1.06 1.107,1.76c0.264,0.7 0.395,1.51 0.395,2.43v0.87h-9.6v-2.03h7.93l-1.642,0.47c0,-0.5 -0.075,-0.94 -0.227,-1.29c-0.151,-0.36 -0.376,-0.64 -0.673,-0.84c-0.296,-0.2 -0.665,-0.3 -1.107,-0.3c-0.442,0 -0.814,0.1 -1.117,0.3c-0.303,0.2 -0.534,0.47 -0.692,0.83c-0.159,0.35 -0.238,0.76 -0.238,1.24v1.46c0,0.51 0.089,0.96 0.267,1.33c0.185,0.38 0.442,0.67 0.771,0.87c0.336,0.2 0.723,0.3 1.157,0.3c0.303,0 0.581,-0.04 0.831,-0.13c0.251,-0.09 0.465,-0.21 0.643,-0.38c0.178,-0.17 0.313,-0.37 0.405,-0.61l3.224,0.09c-0.133,0.73 -0.422,1.36 -0.87,1.89c-0.449,0.53 -1.035,0.95 -1.761,1.25c-0.725,0.29 -1.569,0.43 -2.531,0.43z" fill="currentColor"/>
</g></svg>