<svg width="38" height="38" viewBox="0 0 38 38" fill="none" xmlns="http://www.w3.org/2000/svg">
<path fill-rule="evenodd" clip-rule="evenodd" d="M18.237 0.755096C25.0091 0.369674 35.2557 5.18269 35.452 5.70932C35.5478 5.9661 35.4656 16.2006 35.4583 17.1127C35.4212 17.1685 35.3241 17.1621 35.287 17.2179C35.2468 17.2781 35.062 19.082 33.5821 21.7739C32.211 24.2682 30.6631 25.808 29.9384 26.8058C29.6642 27.1834 29.5644 26.9356 29.4955 26.9004C33.3044 22.537 32.7187 20.7567 32.7724 11.3074C32.7936 7.58926 32.8751 7.56108 32.7085 7.28584C32.6512 7.19117 30.2619 6.07311 28.3756 5.37878C21.5209 2.85592 17.4976 3.47943 16.5527 3.62581C15.672 3.76238 10.6659 4.53818 5.91365 6.92765C5.85424 6.95751 5.25932 7.25671 5.22766 7.39707C5.21922 7.43454 5.22344 19.1416 5.23009 19.3297C5.33035 22.1862 6.19829 23.5565 6.68059 24.4726C6.6216 24.4756 6.58149 24.5499 6.5225 24.5529C6.42678 24.5577 6.23428 24.2116 6.21549 24.1776C5.35315 22.6265 5.25848 22.6885 4.45292 21.105C3.12051 18.4861 2.81614 16.5129 2.79102 16.4792C2.75503 16.4308 2.77445 16.4351 2.78173 16.3736C2.81846 16.0637 2.6897 15.7871 2.66796 15.7404C2.6458 15.6928 2.57404 15.6814 2.55188 15.6338C2.51019 14.2547 2.50069 13.6909 2.50786 9.83034C2.51525 5.82014 2.42723 5.71808 2.74353 5.54099C10.126 1.40605 16.944 0.858944 18.237 0.755096Z" fill="#7B00FF"/>
<path fill-rule="evenodd" clip-rule="evenodd" d="M21.4988 17.9767C22.3954 18.4168 22.384 18.4188 23.2805 18.8535C23.5736 18.9957 23.5199 19.088 23.5245 21.8614C23.5303 25.2277 23.4551 25.6502 23.7457 25.3832C24.8338 24.3839 28.0762 22.7682 27.5335 20.4879C27.2542 19.3147 27.0351 19.3673 20.8055 15.0564C20.1703 14.6169 20.2758 14.5076 20.2765 13.7354C20.2778 12.4633 20.2725 12.4725 20.2734 11.2024C20.2775 5.90336 20.2691 5.89967 20.2958 5.84426C20.419 5.58886 23.7157 6.51052 24.1482 6.66355C25.628 7.18691 30.9912 8.72743 30.6751 13.4173C30.4868 16.2111 28.4973 16.7484 28.9137 17.0944C32.2463 19.8635 30.1197 23.5519 29.3877 24.4709C28.1905 25.9742 23.2712 29.4175 21.7441 30.4439C21.7423 30.4429 21.7093 30.2604 21.5096 30.2973C21.4898 30.301 21.3952 30.3184 21.2661 30.2338C21.2349 30.2133 21.2539 19.7119 21.2556 18.797C21.2564 18.338 21.136 18.2659 21.4988 17.9767ZM23.5354 15.2127C23.5482 15.5362 23.3494 15.7754 23.9379 15.8323C24.1306 15.8329 27.0433 16.2323 27.5224 13.8401C27.841 12.2493 26.6402 10.7916 24.3551 10.0536C23.7009 9.84233 23.5354 9.73362 23.5352 10.0422C23.5348 10.4558 23.5314 13.8757 23.5354 15.2127Z" fill="#7B00FF"/>
<path fill-rule="evenodd" clip-rule="evenodd" d="M9.28212 24.5904C7.55099 22.7077 7.51722 22.7105 7.50034 22.4908C7.41886 21.4304 7.46561 21.432 7.47469 9.19717C7.47501 8.77998 7.87573 8.71233 9.56031 7.98772C9.84621 7.86477 10.6297 7.44716 10.7376 7.61696C10.784 7.69 10.757 15.6614 10.7776 15.7291C10.8468 15.9577 14.2387 15.8475 14.2869 15.7986C14.393 15.6912 14.318 8.6068 14.3461 6.76993C14.3533 6.30145 14.5217 6.38999 14.9734 6.2778C17.4227 5.66938 17.5593 5.7193 17.5712 5.92869C17.5713 5.93122 17.5652 14.4654 17.5645 14.4727C17.5247 14.9115 16.0637 15.6617 11.6779 18.8851C11.548 18.9805 11.534 18.9414 10.9488 18.9752C10.7001 18.9895 10.7687 19.8228 10.7691 20.4895C10.7728 25.9437 10.8148 25.9455 10.7978 25.9669C10.6248 26.1855 10.6031 25.9922 10.4119 25.7806C10.3238 25.6832 10.3183 25.6917 9.28212 24.5904Z" fill="#7B00FF"/>
<path fill-rule="evenodd" clip-rule="evenodd" d="M35.4586 17.1128C35.4636 17.5406 35.4984 18.5078 35.3987 20.0642C34.8113 29.2309 22.5572 36.2746 19.0794 37.2614C18.6744 37.3763 14.9988 35.6437 13.1504 34.354C13.4123 34.2263 13.4181 34.2865 13.6993 34.3824C16.0154 35.1708 18.3045 34.5086 18.4537 34.5345C18.5176 34.5456 18.4863 34.5931 18.5502 34.6C18.5727 34.6024 18.5658 34.5868 18.7662 34.4176C19.3785 34.5131 23.6933 32.5432 27.8865 28.557C28.7309 27.7544 28.7115 27.7499 29.4958 26.9005C29.5647 26.9357 29.6644 27.1835 29.9387 26.8059C30.6633 25.8081 32.2112 24.2683 33.5824 21.7739C35.0622 19.0821 35.2471 17.2782 35.2872 17.218C35.3244 17.1622 35.4215 17.1686 35.4586 17.1128Z" fill="#7B00FF"/>
<path fill-rule="evenodd" clip-rule="evenodd" d="M2.55217 15.6338C2.57433 15.6814 2.64609 15.6928 2.66826 15.7404C2.69 15.787 2.81875 16.0636 2.78203 16.3736C2.77474 16.435 2.75533 16.4308 2.79132 16.4791C2.81643 16.5129 3.1208 18.486 4.45321 21.1049C5.25877 22.6884 5.35344 22.6265 6.21578 24.1775C6.23457 24.2115 6.42707 24.5577 6.52279 24.5528C6.58179 24.5499 6.62189 24.4756 6.68088 24.4725C8.90001 28.1979 13.8831 32.2962 18.7663 34.4175C18.5658 34.5867 18.5727 34.6023 18.5502 34.5999C18.4864 34.593 18.5176 34.5455 18.4538 34.5344C18.3045 34.5085 16.0154 35.1707 13.6993 34.3822C13.4182 34.2864 13.4124 34.2262 13.1504 34.3539C11.7282 33.4531 10.9178 32.7885 10.7345 32.6381C2.50932 25.8931 2.37645 21.8422 2.55217 15.6338Z" fill="#7B00FF"/>
<path fill-rule="evenodd" clip-rule="evenodd" d="M16.766 30.8238C16.11 30.3806 16.1143 30.3879 15.4622 29.9258C14.6676 29.363 14.3555 29.4924 14.3472 28.5107C14.3448 28.2219 14.3083 19.2772 14.3499 19.1231C14.4077 18.9086 14.4817 18.9718 14.9765 18.716C16.6365 17.8575 17.3795 17.447 17.5166 17.509C17.6532 17.571 17.573 17.6127 17.5708 18.1683C17.5247 30.1168 17.6991 30.1126 17.5829 31.1441C17.5532 31.4075 16.939 30.9316 16.766 30.8238Z" fill="#7B00FF"/>
<path fill-rule="evenodd" clip-rule="evenodd" d="M21.498 17.9769C21.1352 18.266 21.2556 18.3381 21.2548 18.7972C21.2531 19.7121 21.2341 30.2135 21.2653 30.2339C21.3944 30.3186 21.4889 30.3012 21.5088 30.2975C21.7085 30.2605 21.7415 30.443 21.7433 30.4441C21.3276 30.7266 21.3349 30.7194 20.9024 30.9859C20.6344 31.1509 20.2749 31.5869 20.281 30.9373C20.3953 18.6113 20.1407 18.6065 20.2662 17.5423C20.2867 17.3683 20.8211 17.658 21.498 17.9769Z" fill="#7B00FF"/>
<path fill-rule="evenodd" clip-rule="evenodd" d="M14.254 18.3243C14.188 18.3592 10.9061 20.0948 13.3465 18.5484C14.5919 17.7593 18.7291 14.6337 18.9802 14.6675C19.2285 14.701 23.2269 17.7145 24.879 18.706C25.2265 18.9146 25.015 18.9981 24.9909 18.9933C24.9038 18.9757 19.8633 16.455 19.4184 16.2324C18.7308 15.8886 18.6993 16.0993 18.0099 16.4469C16.281 17.3183 14.7175 18.09 14.254 18.3243Z" fill="#7B00FF"/>
<path fill-rule="evenodd" clip-rule="evenodd" d="M19.9712 21.0191C19.9258 21.2606 19.8871 21.3497 19.2967 21.2954C19.0378 21.2715 18.9963 20.3982 19.2913 20.3691C20.2042 20.2788 19.9634 20.7224 19.9712 21.0191Z" fill="#7B00FF"/>
<path fill-rule="evenodd" clip-rule="evenodd" d="M18.7419 21.0171C18.6744 21.4994 17.8866 21.3917 17.8794 21.0189C17.8785 20.9662 17.8673 20.3856 18.025 20.3757C18.0799 20.3723 18.6193 20.3384 18.7083 20.4569C18.7545 20.5184 18.7329 20.516 18.7419 21.0171Z" fill="#7B00FF"/>
<path fill-rule="evenodd" clip-rule="evenodd" d="M19.971 19.4346C19.9402 19.8232 20.1088 20.0162 19.7139 20.0228C19.2924 20.0298 19.1097 20.0892 19.0981 19.5394C19.0868 19.0022 19.2901 19.0486 19.8202 19.1146C20.0332 19.1411 19.952 19.2242 19.971 19.4346Z" fill="#7B00FF"/>
<path fill-rule="evenodd" clip-rule="evenodd" d="M18.7393 19.6449C18.6952 20.14 18.5285 20.0702 18.0302 20.0237C17.8013 20.0023 17.7849 19.1293 18.0245 19.117C18.0742 19.1145 18.5695 19.0892 18.6455 19.141C18.8386 19.2727 18.7286 19.3238 18.7393 19.6449Z" fill="#7B00FF"/>
<path fill-rule="evenodd" clip-rule="evenodd" d="M21.0523 6.352C21.0413 6.36403 20.9149 6.50144 20.9149 6.50144C20.7184 6.40508 20.7479 6.35495 20.7571 6.33933C20.8439 6.19243 20.8785 6.34461 21.0523 6.352Z" fill="#7B00FF"/>
</svg>
