<svg width="443" height="543" viewBox="0 0 443 543" fill="none" xmlns="http://www.w3.org/2000/svg">
<g filter="url(#filter0_dddd_3088_3243)">
<g clip-path="url(#clip0_3088_3243)">
<rect x="52.6992" y="6.87329" width="353.324" height="404.015" rx="27.5548" transform="rotate(2.06748 52.6992 6.87329)" fill="white"/>
<path d="M200.44 38.271L200.277 42.7975L203.016 42.8964C204.524 42.9508 205.418 42.1534 205.47 40.7144C205.52 39.3102 204.635 38.4224 203.127 38.368L200.44 38.271ZM200.22 44.3761L200.045 49.2166L198.092 49.146L198.546 36.5608L203.421 36.7368C206.012 36.8303 207.571 38.3887 207.486 40.7348C207.425 42.4355 206.468 43.7808 204.914 44.2399L207.546 49.4873L205.296 49.4061L202.906 44.4731L200.22 44.3761ZM212.564 41.8351C211.247 41.7875 210.287 42.7571 210.141 44.1404L214.728 44.306C214.735 42.9003 213.881 41.8826 212.564 41.8351ZM214.621 47.0443L216.409 47.1088C216.086 48.7739 214.456 49.9115 212.354 49.8356C209.659 49.7383 208.094 47.8566 208.199 44.961C208.302 42.0829 210.029 40.224 212.619 40.3175C215.166 40.4094 216.688 42.2634 216.588 45.0456L216.565 45.691L210.084 45.457L210.08 45.5704C210.023 47.1665 210.944 48.2564 212.453 48.3109C213.526 48.3496 214.339 47.8375 214.621 47.0443ZM221.486 48.4623C222.96 48.5155 223.971 47.3556 224.04 45.463C224.108 43.5792 223.184 42.3058 221.71 42.2526C220.263 42.2003 219.277 43.3786 219.208 45.2886C219.139 47.2074 220.039 48.4101 221.486 48.4623ZM221.324 53.443C219.161 53.3649 217.598 52.1557 217.42 50.5599L219.312 50.6282C219.555 51.4055 220.374 51.9415 221.447 51.9803C222.921 52.0335 223.823 51.2277 223.868 49.9718L223.923 48.463L223.888 48.4617C223.337 49.4374 222.232 50.0525 220.924 50.0052C218.622 49.9221 217.178 48.071 217.281 45.2103C217.385 42.3235 218.951 40.5635 221.306 40.6486C222.605 40.6955 223.645 41.388 224.165 42.4722L224.2 42.4734L224.257 40.9036L226.088 40.9697L225.763 49.9791C225.684 52.1682 223.94 53.5374 221.324 53.443ZM227.327 50.2015L227.659 41.0264L229.542 41.0944L229.211 50.2695L227.327 50.2015ZM228.649 39.7172C228.047 39.6955 227.576 39.1982 227.598 38.6051C227.619 38.0033 228.125 37.5413 228.727 37.563C229.337 37.5851 229.808 38.0824 229.787 38.6842C229.765 39.2772 229.259 39.7393 228.649 39.7172ZM230.853 43.7441C230.912 42.1044 232.401 41.0316 234.546 41.1091C236.587 41.1828 237.976 42.3769 237.978 44.01L236.208 43.9461C236.151 43.1144 235.498 42.5756 234.442 42.5375C233.422 42.5007 232.724 42.9733 232.697 43.6971C232.677 44.2641 233.117 44.6642 234.059 44.934L235.59 45.3473C237.423 45.8588 238.095 46.5817 238.046 47.9336C237.986 49.6081 236.383 50.703 234.133 50.6218C231.961 50.5434 230.563 49.3664 230.475 47.6777L232.342 47.7451C232.458 48.6314 233.121 49.1443 234.272 49.1859C235.406 49.2268 236.121 48.781 236.147 48.0397C236.168 47.4554 235.831 47.1201 234.881 46.8412L233.256 46.3808C231.613 45.9198 230.807 45.0262 230.853 43.7441ZM240.018 39.298L241.91 39.3663L241.832 41.538L243.576 41.601L243.522 43.0924L241.778 43.0294L241.595 48.0879C241.567 48.8816 241.903 49.2518 242.67 49.2795C242.862 49.2864 243.168 49.28 243.291 49.2582L243.237 50.7496C243.026 50.7944 242.606 50.8141 242.187 50.799C240.33 50.732 239.631 49.9994 239.695 48.2289L239.885 42.9611L238.551 42.9129L238.605 41.4215L239.939 41.4697L240.018 39.298ZM248.333 43.1263C247.016 43.0788 246.056 44.0484 245.91 45.4317L250.497 45.5973C250.504 44.1915 249.65 43.1739 248.333 43.1263ZM250.39 48.3355L252.178 48.4001C251.855 50.0652 250.225 51.2027 248.123 51.1268C245.428 51.0295 243.863 49.1479 243.967 46.2523C244.071 43.3742 245.798 41.5153 248.388 41.6088C250.935 41.7007 252.457 43.5546 252.357 46.3368L252.333 46.9822L245.853 46.7483L245.849 46.8617C245.792 48.4577 246.713 49.5477 248.222 49.6021C249.295 49.6409 250.108 49.1288 250.39 48.3355ZM253.293 51.1388L253.624 41.9637L255.421 42.0286L255.364 43.5897L255.408 43.5913C255.752 42.5296 256.595 41.9225 257.676 41.9615C257.947 41.9713 258.181 42.0234 258.319 42.0546L258.256 43.8076C258.11 43.7412 257.78 43.6857 257.414 43.6724C256.201 43.6287 255.422 44.4127 255.375 45.7122L255.177 51.2068L253.293 51.1388Z" fill="#0E0E0F"/>
<path d="M130.156 65.3537L131.208 65.3917C131.274 66.3023 132.113 66.9323 133.311 66.9755C134.445 67.0164 135.292 66.4474 135.322 65.6217C135.348 64.9124 134.869 64.4585 133.752 64.127L132.686 63.8091C131.154 63.3579 130.492 62.6528 130.533 61.5132C130.584 60.1178 131.84 59.185 133.584 59.248C135.253 59.3082 136.427 60.3403 136.422 61.7491L135.376 61.7113C135.315 60.8067 134.608 60.2281 133.515 60.1887C132.428 60.1494 131.652 60.6861 131.622 61.506C131.599 62.1397 132.051 62.5344 133.18 62.8721L134.049 63.1364C135.772 63.6352 136.452 64.3293 136.408 65.5329C136.353 67.0679 135.109 67.9836 133.178 67.9139C131.399 67.8497 130.201 66.84 130.156 65.3537ZM137.865 60.4272L138.876 60.4637L138.824 61.9231L139.998 61.9655L139.968 62.797L138.794 62.7546L138.664 66.3479C138.644 66.9002 138.868 67.1586 139.385 67.1773C139.501 67.1815 139.734 67.1725 139.805 67.1634L139.774 68.0123C139.651 68.0369 139.371 68.0443 139.133 68.0357C138.022 67.9956 137.608 67.5265 137.65 66.3637L137.782 62.718L136.881 62.6855L136.911 61.8541L137.812 61.8866L137.865 60.4272ZM142.648 67.3591C143.601 67.3936 144.358 66.7514 144.389 65.8792L144.407 65.385L142.787 65.4255C141.971 65.4484 141.493 65.7921 141.473 66.3619C141.452 66.9375 141.921 67.3329 142.648 67.3591ZM142.39 68.2115C141.186 68.168 140.404 67.4121 140.443 66.3248C140.481 65.2898 141.301 64.6674 142.699 64.6363L144.436 64.6L144.454 64.0942C144.48 63.3558 144.008 62.8962 143.171 62.866C142.392 62.8379 141.89 63.1866 141.741 63.775L140.764 63.7397C140.871 62.6957 141.796 61.9256 143.226 61.9772C144.645 62.0285 145.513 62.8283 145.469 64.0319L145.318 68.2124L144.359 68.1778L144.396 67.137L144.373 67.1362C143.988 67.8151 143.204 68.2409 142.39 68.2115ZM146.484 68.2545L146.702 62.2075L147.656 62.242L147.62 63.2304L147.643 63.2312C147.865 62.5697 148.439 62.1654 149.148 62.191C149.323 62.1973 149.473 62.2319 149.554 62.2464L149.518 63.2291C149.438 63.197 149.224 63.1602 148.98 63.1514C148.195 63.1231 147.663 63.6686 147.632 64.5233L147.496 68.291L146.484 68.2545ZM150.636 60.8882L151.648 60.9248L151.595 62.3842L152.77 62.4266L152.74 63.258L151.565 63.2156L151.436 66.8089C151.416 67.3613 151.639 67.6197 152.157 67.6384C152.273 67.6426 152.506 67.6335 152.576 67.6244L152.546 68.4733C152.423 68.498 152.143 68.5053 151.904 68.4967C150.794 68.4567 150.38 67.9876 150.422 66.8247L150.554 63.1791L149.652 63.1466L149.682 62.3151L150.584 62.3476L150.636 60.8882ZM156.255 70.872C156.133 70.8676 155.93 70.8486 155.82 70.8213L155.851 69.9724C155.961 69.9997 156.117 70.0112 156.245 70.0158C156.809 70.0361 157.133 69.7742 157.391 69.0791L157.546 68.6597L155.532 62.5263L156.613 62.5653L158.106 67.661L158.124 67.6617L159.98 62.6869L161.044 62.7253L158.432 69.1108C157.864 70.505 157.348 70.9114 156.255 70.872ZM163.837 68.9857C162.162 68.9253 161.078 67.681 161.147 65.7564C161.217 63.826 162.388 62.669 164.063 62.7294C165.731 62.7897 166.816 64.0282 166.746 65.9585C166.677 67.8831 165.505 69.046 163.837 68.9857ZM163.869 68.0961C164.939 68.1347 165.666 67.3459 165.717 65.9214C165.769 64.4969 165.1 63.6577 164.03 63.619C162.961 63.5804 162.228 64.369 162.176 65.7936C162.125 67.2181 162.799 68.0575 163.869 68.0961ZM172.725 63.147L172.507 69.1939L171.548 69.1593L171.583 68.1767L171.56 68.1758C171.174 68.8605 170.532 69.2274 169.602 69.1938C168.282 69.1462 167.539 68.2636 167.589 66.8914L167.731 62.9667L168.742 63.0032L168.607 66.7476C168.572 67.7303 169.012 68.276 169.948 68.3098C170.931 68.3452 171.548 67.6922 171.585 66.663L171.713 63.1104L172.725 63.147ZM173.702 69.2371L173.92 63.1901L174.874 63.2245L174.838 64.213L174.861 64.2138C175.083 63.5523 175.657 63.148 176.366 63.1736C176.54 63.1799 176.691 63.2144 176.772 63.229L176.736 64.2116C176.656 64.1796 176.442 64.1428 176.197 64.134C175.412 64.1056 174.88 64.6511 174.85 65.5059L174.714 69.2736L173.702 69.2371ZM182.739 63.4037C184.28 63.4593 185.282 64.7297 185.213 66.6252C185.145 68.5207 184.06 69.7158 182.536 69.6608C181.67 69.6295 180.987 69.1799 180.651 68.504L180.628 68.5032L180.519 71.5034L179.508 71.4669L179.799 63.4023L180.758 63.4369L180.721 64.4603L180.744 64.4611C181.141 63.7943 181.861 63.372 182.739 63.4037ZM182.347 68.7632C183.423 68.802 184.129 67.96 184.178 66.5878C184.228 65.2215 183.585 64.3249 182.509 64.2861C181.474 64.2488 180.744 65.119 180.695 66.4621C180.647 67.811 181.312 68.7258 182.347 68.7632ZM186.008 69.6813L186.227 63.6344L187.18 63.6688L187.145 64.6572L187.168 64.6581C187.39 63.9966 187.963 63.5923 188.672 63.6179C188.847 63.6242 188.997 63.6587 189.078 63.6733L189.043 64.6559C188.962 64.6239 188.748 64.587 188.504 64.5782C187.719 64.5499 187.187 65.0954 187.156 65.9501L187.02 69.7178L186.008 69.6813ZM191.775 69.9943C190.101 69.9339 189.016 68.6896 189.086 66.765C189.156 64.8346 190.327 63.6776 192.001 63.738C193.67 63.7983 194.755 65.0368 194.685 66.9671C194.616 68.8917 193.444 70.0545 191.775 69.9943ZM191.808 69.1047C192.877 69.1433 193.605 68.3545 193.656 66.93C193.707 65.5055 193.039 64.6663 191.969 64.6276C190.899 64.589 190.166 65.3776 190.115 66.8021C190.064 68.2267 190.738 69.0661 191.808 69.1047ZM198.639 63.9776C200.179 64.0333 201.181 65.3037 201.113 67.1992C201.045 69.0947 199.959 70.2897 198.436 70.2347C197.57 70.2035 196.887 69.7538 196.551 69.078L196.527 69.0771L196.419 72.0774L195.407 72.0408L195.699 63.9763L196.658 64.0109L196.621 65.0343L196.644 65.0351C197.041 64.3682 197.761 63.9459 198.639 63.9776ZM198.247 69.3372C199.323 69.376 200.029 68.534 200.078 67.1618C200.127 65.7954 199.484 64.8989 198.409 64.8601C197.374 64.8227 196.644 65.693 196.595 67.0361C196.547 68.385 197.212 69.2998 198.247 69.3372ZM204.523 65.0692C203.575 65.035 202.886 65.7378 202.786 66.7414L206.071 66.86C206.084 65.8475 205.477 65.1036 204.523 65.0692ZM205.983 68.6674L206.977 68.7033C206.764 69.7553 205.713 70.4974 204.393 70.4498C202.66 70.3872 201.651 69.1457 201.72 67.2444C201.788 65.3663 202.904 64.1316 204.572 64.1918C206.206 64.2508 207.169 65.4733 207.103 67.3048L207.089 67.6885L202.752 67.532L202.75 67.5901C202.708 68.7472 203.361 69.5334 204.448 69.5727C205.215 69.6004 205.793 69.2312 205.983 68.6674ZM207.894 70.4714L208.112 64.4244L209.066 64.4589L209.03 65.4473L209.054 65.4481C209.275 64.7866 209.849 64.3823 210.558 64.4079C210.733 64.4142 210.883 64.4488 210.964 64.4633L210.928 65.446C210.848 65.4139 210.634 65.3771 210.39 65.3683C209.605 65.34 209.073 65.8855 209.042 66.7402L208.906 70.5079L207.894 70.4714ZM212.046 63.1051L213.058 63.1417L213.005 64.6011L214.18 64.6435L214.15 65.4749L212.975 65.4325L212.846 69.0258C212.826 69.5782 213.049 69.8366 213.567 69.8553C213.683 69.8595 213.916 69.8504 213.986 69.8413L213.956 70.6902C213.833 70.7149 213.553 70.7222 213.315 70.7136C212.204 70.6736 211.79 70.2045 211.832 69.0416L211.964 65.396L211.062 65.3635L211.092 64.532L211.994 64.5645L212.046 63.1051ZM215.342 73.005C215.22 73.0006 215.017 72.9816 214.908 72.9544L214.938 72.1055C215.048 72.1327 215.205 72.1442 215.333 72.1488C215.897 72.1692 216.22 71.9073 216.478 71.2121L216.633 70.7927L214.619 64.6593L215.7 64.6984L217.193 69.7941L217.211 69.7947L219.067 64.8199L220.131 64.8583L217.519 71.2439C216.951 72.6381 216.435 73.0445 215.342 73.005ZM222.971 71.0157L223.19 64.9687L224.201 65.0052L223.983 71.0522L222.971 71.0157ZM223.732 63.9695C223.389 63.9571 223.115 63.6619 223.127 63.3188C223.14 62.97 223.434 62.7012 223.778 62.7136C224.126 62.7262 224.401 63.0155 224.389 63.3644C224.376 63.7074 224.081 63.9821 223.732 63.9695ZM225.23 71.0972L225.449 65.0503L226.402 65.0847L226.367 66.0499L226.391 66.0507C226.751 65.4117 227.412 65.0163 228.348 65.0501C229.674 65.098 230.41 65.9804 230.361 67.3526L230.219 71.2773L229.207 71.2408L229.343 67.4963C229.378 66.5195 228.938 65.968 228.007 65.9344C227.054 65.9 226.407 66.552 226.37 67.5753L226.242 71.1338L225.23 71.0972ZM236.569 65.4517L234.129 71.4185L233.094 71.3811L231.086 65.2538L232.15 65.2922L233.639 70.3237L233.662 70.3246L235.516 65.4137L236.569 65.4517ZM239.468 66.3307C238.521 66.2965 237.832 66.9994 237.731 68.0029L241.017 68.1215C241.03 67.109 240.422 66.3651 239.468 66.3307ZM240.928 69.929L241.922 69.9649C241.71 71.0168 240.658 71.759 239.338 71.7113C237.606 71.6488 236.597 70.4072 236.665 68.5059C236.733 66.6279 237.849 65.3931 239.518 65.4534C241.151 65.5123 242.115 66.7348 242.048 68.5663L242.035 68.9501L237.697 68.7935L237.695 68.8516C237.653 70.0087 238.306 70.7949 239.393 70.8342C240.161 70.8619 240.739 70.4927 240.928 69.929ZM242.893 67.3509C242.93 66.316 243.881 65.6109 245.213 65.659C246.463 65.7041 247.355 66.4815 247.364 67.5065L246.399 67.4717C246.35 66.8877 245.892 66.5102 245.148 66.4833C244.41 66.4567 243.908 66.8054 243.889 67.3345C243.874 67.7531 244.184 68.0437 244.863 68.2429L245.791 68.5035C247.001 68.8557 247.427 69.3136 247.395 70.2032C247.357 71.2556 246.336 71.9639 244.923 71.9129C243.597 71.8651 242.699 71.1107 242.633 70.0371L243.645 70.0736C243.732 70.7056 244.197 71.06 245.017 71.0896C245.837 71.1192 246.355 70.7886 246.375 70.242C246.39 69.8118 246.149 69.5702 245.475 69.3654L244.421 69.0537C243.367 68.742 242.863 68.1766 242.893 67.3509ZM248.864 64.4343L249.876 64.4708L249.823 65.9302L250.997 65.9726L250.967 66.804L249.793 66.7616L249.663 70.3549C249.643 70.9073 249.867 71.1657 250.384 71.1844C250.501 71.1886 250.734 71.1795 250.804 71.1704L250.773 72.0193C250.65 72.044 250.37 72.0514 250.132 72.0428C249.022 72.0027 248.608 71.5336 248.65 70.3707L248.781 66.7251L247.88 66.6926L247.91 65.8611L248.811 65.8937L248.864 64.4343ZM251.742 72.0543L251.96 66.0073L252.913 66.0418L252.879 67.0069L252.902 67.0078C253.21 66.3785 253.842 65.9705 254.656 65.9999C255.481 66.0297 256.077 66.4703 256.312 67.2124L256.335 67.2132C256.698 66.5044 257.423 66.0998 258.272 66.1304C259.47 66.1736 260.215 66.9807 260.172 68.1785L260.021 72.3532L259.01 72.3167L259.152 68.3745C259.182 67.5489 258.74 67.0439 257.943 67.0151C257.141 66.9862 256.556 67.5589 256.526 68.3787L256.387 72.222L255.376 72.1855L255.522 68.1328C255.548 67.406 255.077 66.9116 254.327 66.8846C253.524 66.8556 252.92 67.4626 252.89 68.2998L252.753 72.0908L251.742 72.0543ZM263.808 67.2094C262.86 67.1751 262.171 67.878 262.071 68.8816L265.356 69.0002C265.369 67.9876 264.761 67.2438 263.808 67.2094ZM265.267 70.8076L266.262 70.8435C266.049 71.8954 264.998 72.6376 263.678 72.59C261.945 72.5274 260.936 71.2859 261.005 69.3846C261.073 67.5065 262.188 66.2718 263.857 66.332C265.491 66.391 266.454 67.6134 266.388 69.445L266.374 69.8287L262.036 69.6721L262.034 69.7303C261.993 70.8873 262.645 71.6736 263.733 71.7128C264.5 71.7405 265.078 71.3713 265.267 70.8076ZM267.179 72.6116L267.397 66.5646L268.351 66.599L268.316 67.5642L268.339 67.5651C268.7 66.926 269.361 66.5307 270.297 66.5645C271.622 66.6123 272.359 67.4948 272.309 68.867L272.168 72.7917L271.156 72.7551L271.291 69.0107C271.326 68.0339 270.886 67.4824 269.956 67.4488C269.003 67.4144 268.356 68.0664 268.319 69.0897L268.191 72.6481L267.179 72.6116ZM273.936 65.3394L274.948 65.3759L274.895 66.8353L276.07 66.8777L276.04 67.7091L274.865 67.6667L274.735 71.26C274.715 71.8124 274.939 72.0708 275.456 72.0895C275.573 72.0937 275.806 72.0846 275.876 72.0755L275.845 72.9244C275.722 72.9491 275.443 72.9565 275.204 72.9479C274.094 72.9078 273.68 72.4387 273.722 71.2758L273.853 67.6302L272.952 67.5977L272.982 66.7662L273.883 66.7988L273.936 65.3394ZM280.419 67.0347L280.19 73.3782C280.146 74.605 279.544 75.1422 278.253 75.0956C278.236 75.095 278.073 75.0891 278.062 75.0829L278.092 74.2398C278.104 74.2402 278.243 74.2452 278.249 74.2455C278.906 74.2692 279.153 74.0278 279.178 73.3533L279.407 66.9982L280.419 67.0347ZM279.95 65.9989C279.607 65.9865 279.332 65.6913 279.345 65.3483C279.357 64.9994 279.652 64.7306 279.995 64.743C280.344 64.7556 280.619 65.045 280.606 65.3938C280.594 65.7369 280.299 66.0115 279.95 65.9989ZM283.95 73.3218C282.276 73.2614 281.191 72.0171 281.261 70.0925C281.33 68.1621 282.501 67.0051 284.176 67.0655C285.845 67.1258 286.929 68.3643 286.86 70.2946C286.79 72.2192 285.619 73.382 283.95 73.3218ZM283.982 72.4322C285.052 72.4708 285.779 71.682 285.831 70.2575C285.882 68.833 285.214 67.9938 284.144 67.9551C283.074 67.9165 282.341 68.7051 282.29 70.1297C282.238 71.5542 282.912 72.3936 283.982 72.4322ZM292.839 67.4831L292.62 73.53L291.661 73.4954L291.696 72.5127L291.673 72.5119C291.288 73.1966 290.646 73.5635 289.715 73.5299C288.395 73.4823 287.653 72.5996 287.702 71.2275L287.844 67.3027L288.856 67.3393L288.721 71.0837C288.685 72.0664 289.125 72.6121 290.062 72.6458C291.044 72.6813 291.662 72.0283 291.699 70.9991L291.827 67.4465L292.839 67.4831ZM293.815 73.5731L294.034 67.5262L294.987 67.5606L294.952 68.5491L294.975 68.5499C295.197 67.8884 295.77 67.4841 296.479 67.5097C296.654 67.516 296.804 67.5505 296.885 67.5651L296.85 68.5477C296.769 68.5157 296.555 68.4789 296.311 68.47C295.526 68.4417 294.994 68.9872 294.963 69.8419L294.827 73.6097L293.815 73.5731ZM297.371 73.7015L297.589 67.6545L298.543 67.689L298.508 68.6542L298.531 68.655C298.892 68.016 299.553 67.6206 300.489 67.6544C301.814 67.7023 302.551 68.5847 302.501 69.9569L302.36 73.8816L301.348 73.8451L301.483 70.1006C301.518 69.1238 301.078 68.5723 300.148 68.5387C299.195 68.5043 298.548 69.1563 298.511 70.1796L298.383 73.738L297.371 73.7015ZM306.146 68.7378C305.199 68.7036 304.51 69.4064 304.409 70.41L307.694 70.5286C307.708 69.5161 307.1 68.7722 306.146 68.7378ZM307.606 72.336L308.6 72.3719C308.388 73.4239 307.336 74.166 306.016 74.1184C304.284 74.0558 303.275 72.8143 303.343 70.913C303.411 69.0349 304.527 67.8002 306.196 67.8604C307.829 67.9194 308.792 69.1419 308.726 70.9734L308.712 71.3571L304.375 71.2006L304.373 71.2587C304.331 72.4158 304.984 73.202 306.071 73.2413C306.839 73.269 307.417 72.8998 307.606 72.336ZM309.936 76.4198C309.814 76.4154 309.611 76.3965 309.501 76.3692L309.532 75.5203C309.641 75.5476 309.798 75.559 309.926 75.5637C310.49 75.584 310.814 75.3221 311.072 74.6269L311.227 74.2075L309.212 68.0741L310.294 68.1132L311.787 73.2089L311.804 73.2095L313.66 68.2347L314.724 68.2731L312.113 74.6587C311.544 76.0529 311.029 76.4593 309.936 76.4198Z" fill="#6B7280"/>
<path d="M71.0461 102.555L69.937 102.515L70.202 95.1738L71.2348 95.2111L74.8449 100.762L74.8856 100.763L75.081 95.35L76.1901 95.39L75.9251 102.731L74.8974 102.694L71.2871 97.1488L71.2413 97.1472L71.0461 102.555ZM78.8049 102.056C79.5731 102.084 80.1925 101.576 80.2177 100.879L80.2329 100.457L78.9123 100.491C78.2543 100.513 77.8725 100.789 77.856 101.247C77.8391 101.715 78.2147 102.035 78.8049 102.056ZM78.4682 102.915C77.4202 102.877 76.7111 102.199 76.7458 101.238C76.7796 100.302 77.5177 99.7527 78.7921 99.7274L80.2605 99.6938L80.2753 99.2817C80.2968 98.6865 79.9078 98.3159 79.2362 98.2916C78.6003 98.2687 78.1924 98.5596 78.0785 99.0343L77.0406 98.9969C77.1366 98.0324 77.9865 97.3499 79.3092 97.3977C80.6066 97.4445 81.4111 98.1613 81.3723 99.2347L81.2391 102.923L80.186 102.885L80.2178 102.005L80.1924 102.004C79.8605 102.588 79.1703 102.94 78.4682 102.915ZM82.2033 102.958L82.3966 97.6059L83.4446 97.6437L83.4121 98.5442L83.4375 98.5452C83.6981 97.9585 84.2721 97.5819 84.9945 97.608C85.7373 97.6348 86.2628 98.0359 86.4524 98.71L86.4779 98.711C86.7761 98.0697 87.4213 97.6956 88.1844 97.7232C89.2427 97.7614 89.9092 98.4884 89.8708 99.5517L89.7381 103.23L88.6341 103.19L88.7573 99.7764C88.7823 99.0845 88.4252 98.6743 87.774 98.6508C87.1228 98.6273 86.6525 99.0942 86.6281 99.7709L86.5074 103.113L85.4289 103.074L85.555 99.5793C85.5773 98.9637 85.1997 98.5578 84.579 98.5354C83.9278 98.5119 83.4464 99.004 83.4216 99.6908L83.3023 102.998L82.2033 102.958ZM93.1005 98.7819C92.3322 98.7542 91.7718 99.3198 91.6867 100.127L94.3627 100.223C94.3669 99.4033 93.8687 98.8097 93.1005 98.7819ZM94.3 101.821L95.3429 101.858C95.155 102.83 94.2039 103.493 92.9778 103.449C91.4058 103.392 90.4928 102.294 90.5537 100.605C90.6143 98.9265 91.6214 97.8421 93.1324 97.8967C94.618 97.9503 95.5061 99.0318 95.4475 100.655L95.4339 101.031L91.6538 100.895L91.6514 100.961C91.6178 101.892 92.1552 102.528 93.0354 102.559C93.6612 102.582 94.1355 102.283 94.3 101.821Z" fill="#0E0E0F"/>
<rect x="69.3318" y="110.829" width="312.58" height="40.9599" rx="20.48" transform="rotate(2.06748 69.3318 110.829)" stroke="#CFD2D6" stroke-width="0.744726"/>
<path d="M80.2841 134.233L81.3322 134.271C81.3299 134.986 81.8565 135.503 82.6235 135.531C83.5546 135.565 84.0782 135.026 84.1154 133.996L84.3353 127.906L85.3893 127.944L85.1692 134.04C85.1113 135.644 84.1519 136.559 82.5943 136.503C81.189 136.452 80.2378 135.515 80.2841 134.233ZM89.0377 136.642C87.3513 136.581 86.2591 135.328 86.329 133.39C86.3992 131.446 87.5787 130.281 89.2651 130.341C90.9457 130.402 92.0381 131.649 91.9679 133.593C91.898 135.532 90.7182 136.703 89.0377 136.642ZM89.07 135.746C90.1475 135.785 90.8797 134.991 90.9315 133.556C90.9833 132.121 90.3102 131.276 89.2328 131.237C88.1554 131.198 87.4173 131.993 87.3655 133.427C87.3137 134.862 87.9926 135.707 89.07 135.746ZM92.8933 136.676L93.1984 128.226L94.2172 128.263L94.0969 131.595L94.1204 131.596C94.4845 130.929 95.1664 130.554 96.0916 130.588C97.4267 130.636 98.2022 131.567 98.1531 132.925L98.0111 136.86L96.9922 136.824L97.1275 133.076C97.1624 132.11 96.6973 131.513 95.7428 131.478C94.7298 131.442 94.0783 132.11 94.0403 133.164L93.9122 136.712L92.8933 136.676ZM99.2572 136.905L99.477 130.816L100.437 130.85L100.402 131.822L100.426 131.823C100.789 131.18 101.454 130.781 102.397 130.815C103.732 130.864 104.474 131.752 104.424 133.134L104.281 137.087L103.262 137.05L103.399 133.279C103.434 132.295 102.991 131.74 102.054 131.706C101.094 131.671 100.443 132.328 100.405 133.359L100.276 136.942L99.2572 136.905ZM108.408 128.775L111.248 128.878C113.754 128.968 115.179 130.585 115.083 133.243C114.987 135.908 113.455 137.418 110.943 137.327L108.103 137.225L108.408 128.775ZM109.427 129.762L109.191 136.314L110.907 136.376C112.821 136.445 113.929 135.313 114.005 133.216C114.081 131.102 113.064 129.893 111.143 129.824L109.427 129.762ZM118.556 137.708C116.869 137.647 115.777 136.394 115.847 134.455C115.917 132.511 117.097 131.346 118.783 131.407C120.464 131.468 121.556 132.715 121.486 134.659C121.416 136.597 120.236 137.768 118.556 137.708ZM118.588 136.812C119.666 136.851 120.398 136.056 120.45 134.622C120.501 133.187 119.828 132.342 118.751 132.303C117.673 132.264 116.935 133.058 116.884 134.493C116.832 135.927 117.511 136.773 118.588 136.812ZM124.992 132.516C124.038 132.482 123.344 133.19 123.243 134.201L126.551 134.32C126.565 133.3 125.953 132.551 124.992 132.516ZM126.462 136.14L127.463 136.176C127.249 137.236 126.19 137.983 124.861 137.935C123.116 137.872 122.1 136.622 122.169 134.707C122.237 132.816 123.361 131.572 125.042 131.633C126.687 131.692 127.657 132.923 127.59 134.768L127.576 135.154L123.208 134.997L123.206 135.055C123.164 136.221 123.821 137.012 124.916 137.052C125.689 137.08 126.272 136.708 126.462 136.14Z" fill="#0E0E0F"/>
<path d="M72.0503 173.228L72.0147 174.215L67.3545 174.047L67.6195 166.705L72.2797 166.874L72.2443 167.855L68.7237 167.728L68.6461 169.875L71.9785 169.996L71.9444 170.942L68.612 170.822L68.5297 173.101L72.0503 173.228ZM72.9484 174.249L73.1416 168.897L74.1896 168.934L74.1571 169.835L74.1825 169.836C74.4431 169.249 75.0171 168.873 75.7395 168.899C76.4823 168.925 77.0078 169.326 77.1975 170.001L77.2229 170.002C77.5211 169.36 78.1663 168.986 78.9295 169.014C79.9877 169.052 80.6542 169.779 80.6159 170.842L80.4831 174.521L79.3791 174.481L79.5023 171.067C79.5273 170.375 79.1702 169.965 78.519 169.941C77.8678 169.918 77.3975 170.385 77.3731 171.062L77.2525 174.404L76.1739 174.365L76.3001 170.87C76.3223 170.254 75.9447 169.848 75.324 169.826C74.6728 169.803 74.1915 170.295 74.1667 170.981L74.0473 174.288L72.9484 174.249ZM83.3425 173.844C84.1107 173.872 84.7302 173.365 84.7553 172.668L84.7706 172.246L83.45 172.279C82.792 172.301 82.4101 172.578 82.3936 173.036C82.3767 173.504 82.7524 173.823 83.3425 173.844ZM83.0059 174.703C81.9578 174.666 81.2487 173.988 81.2834 173.026C81.3172 172.09 82.0553 171.541 83.3298 171.516L84.7981 171.482L84.813 171.07C84.8345 170.475 84.4454 170.104 83.7739 170.08C83.1379 170.057 82.7301 170.348 82.6161 170.823L81.5783 170.785C81.6742 169.821 82.5241 169.138 83.8469 169.186C85.1442 169.233 85.9487 169.95 85.91 171.023L85.7768 174.712L84.7237 174.674L84.7554 173.794L84.73 173.793C84.3982 174.377 83.7079 174.729 83.0059 174.703ZM86.7766 174.748L86.9698 169.396L88.0687 169.435L87.8755 174.788L86.7766 174.748ZM87.5476 168.632C87.1965 168.619 86.9217 168.329 86.9342 167.983C86.9469 167.632 87.2419 167.363 87.5929 167.375C87.9491 167.388 88.2239 167.678 88.2112 168.029C88.1987 168.375 87.9037 168.645 87.5476 168.632ZM88.9364 174.826L89.2014 167.484L90.3003 167.524L90.0353 174.866L88.9364 174.826Z" fill="#0E0E0F"/>
<rect x="66.7493" y="182.36" width="312.58" height="40.9599" rx="20.48" transform="rotate(2.06748 66.7493 182.36)" stroke="#CFD2D6" stroke-width="0.744726"/>
<path d="M77.7016 205.764L78.7497 205.802C78.7473 206.517 79.2739 207.035 80.041 207.062C80.9721 207.096 81.4957 206.558 81.5329 205.527L81.7528 199.438L82.8068 199.476L82.5867 205.571C82.5288 207.176 81.5694 208.091 80.0118 208.035C78.6065 207.984 77.6553 207.047 77.7016 205.764ZM86.4552 208.173C84.7688 208.113 83.6765 206.859 83.7465 204.921C83.8167 202.977 84.9962 201.812 86.6826 201.873C88.3632 201.934 89.4556 203.181 89.3854 205.125C89.3154 207.063 88.1357 208.234 86.4552 208.173ZM86.4875 207.278C87.5649 207.316 88.2972 206.522 88.349 205.087C88.4008 203.653 87.7277 202.808 86.6503 202.769C85.5729 202.73 84.8347 203.524 84.7829 204.959C84.7312 206.393 85.4101 207.239 86.4875 207.278ZM90.3108 208.207L90.6158 199.758L91.6347 199.794L91.5144 203.126L91.5378 203.127C91.902 202.46 92.5839 202.086 93.5091 202.119C94.8441 202.168 95.6197 203.098 95.5706 204.457L95.4286 208.392L94.4097 208.355L94.545 204.608C94.5799 203.641 94.1148 203.044 93.1603 203.01C92.1473 202.973 91.4958 203.641 91.4578 204.695L91.3297 208.244L90.3108 208.207ZM96.6747 208.437L96.8945 202.347L97.8548 202.382L97.8197 203.354L97.8432 203.355C98.2065 202.711 98.8716 202.313 99.8144 202.347C101.149 202.395 101.891 203.284 101.841 204.666L101.699 208.618L100.68 208.581L100.816 204.81C100.852 203.827 100.408 203.271 99.4715 203.238C98.5112 203.203 97.8601 203.859 97.8229 204.89L97.6935 208.474L96.6747 208.437ZM105.254 208.852C103.702 208.796 102.693 207.517 102.762 205.608C102.831 203.699 103.924 202.495 105.458 202.551C106.331 202.582 107.018 203.035 107.357 203.716L107.38 203.716L107.501 200.367L108.52 200.404L108.215 208.853L107.243 208.818L107.28 207.788L107.262 207.787C106.845 208.476 106.132 208.884 105.254 208.852ZM105.642 203.454C104.565 203.416 103.854 204.269 103.804 205.645C103.754 207.027 104.402 207.924 105.48 207.963C106.528 208.001 107.263 207.136 107.312 205.772C107.361 204.414 106.69 203.492 105.642 203.454ZM112.063 209.098C110.376 209.037 109.284 207.784 109.354 205.846C109.424 203.902 110.604 202.736 112.29 202.797C113.971 202.858 115.063 204.105 114.993 206.049C114.923 207.987 113.743 209.159 112.063 209.098ZM112.095 208.202C113.173 208.241 113.905 207.447 113.957 206.012C114.008 204.577 113.335 203.732 112.258 203.693C111.181 203.654 110.442 204.449 110.391 205.883C110.339 207.318 111.018 208.163 112.095 208.202ZM118.499 203.907C117.545 203.872 116.851 204.58 116.75 205.591L120.058 205.71C120.072 204.691 119.46 203.941 118.499 203.907ZM119.969 207.531L120.97 207.567C120.756 208.626 119.697 209.374 118.368 209.326C116.623 209.263 115.607 208.012 115.676 206.097C115.745 204.206 116.868 202.963 118.549 203.023C120.194 203.083 121.164 204.314 121.098 206.158L121.084 206.545L116.715 206.387L116.713 206.446C116.671 207.611 117.329 208.403 118.424 208.442C119.196 208.47 119.779 208.098 119.969 207.531ZM126.695 204.39C125.91 204.362 125.426 204.954 125.389 205.979C125.352 206.998 125.798 207.635 126.565 207.663C127.367 207.692 127.906 207.072 127.942 206.071C127.978 205.07 127.491 204.419 126.695 204.39ZM127.018 201.119C129.741 201.217 131.652 203.016 131.559 205.598C131.491 207.472 130.615 208.689 129.245 208.639C128.577 208.615 128.018 208.196 127.968 207.608L127.922 207.607C127.649 208.189 127.092 208.509 126.401 208.484C125.183 208.44 124.399 207.409 124.453 205.922C124.504 204.499 125.377 203.534 126.578 203.577C127.204 203.6 127.761 203.948 127.965 204.454L128.012 204.455L128.038 203.741L128.922 203.773L128.798 207.21C128.784 207.591 128.985 207.868 129.436 207.884C130.133 207.909 130.679 207.073 130.734 205.556C130.811 203.431 129.246 201.938 126.916 201.854C124.638 201.771 122.918 203.445 122.83 205.892C122.734 208.545 124.45 210.067 126.804 210.152C127.588 210.18 128.389 210.098 128.775 209.942L128.749 210.679C128.227 210.842 127.521 210.922 126.765 210.895C123.908 210.792 121.892 208.978 122.005 205.828C122.111 202.906 124.173 201.016 127.018 201.119ZM134.919 208.967C135.979 209.006 136.719 208.153 136.767 206.812C136.816 205.471 136.139 204.555 135.08 204.517C134.031 204.479 133.315 205.321 133.266 206.685C133.217 208.05 133.871 208.929 134.919 208.967ZM134.841 212.113C133.5 212.065 132.467 211.271 132.335 210.228L133.383 210.266C133.562 210.83 134.152 211.22 134.913 211.248C135.967 211.286 136.627 210.7 136.66 209.792L136.695 208.832L136.671 208.831C136.272 209.479 135.537 209.887 134.682 209.856C133.13 209.8 132.155 208.539 132.224 206.648C132.292 204.739 133.355 203.558 134.93 203.615C135.791 203.646 136.49 204.093 136.869 204.816L136.886 204.817L136.923 203.792L137.895 203.827L137.68 209.794C137.628 211.246 136.521 212.174 134.841 212.113ZM138.957 209.963L139.177 203.873L140.137 203.908L140.102 204.88L140.125 204.881C140.435 204.247 141.072 203.836 141.892 203.866C142.723 203.896 143.323 204.34 143.56 205.087L143.583 205.088C143.949 204.374 144.679 203.967 145.534 203.997C146.74 204.041 147.49 204.854 147.447 206.06L147.295 210.264L146.276 210.227L146.42 206.257C146.45 205.426 146.005 204.917 145.203 204.888C144.394 204.859 143.805 205.436 143.775 206.262L143.635 210.132L142.617 210.095L142.764 206.014C142.79 205.282 142.316 204.784 141.56 204.757C140.752 204.728 140.144 205.339 140.113 206.182L139.976 210L138.957 209.963ZM150.583 209.621C151.543 209.655 152.305 209.009 152.337 208.13L152.355 207.633L150.724 207.673C149.902 207.696 149.42 208.043 149.4 208.616C149.379 209.196 149.851 209.594 150.583 209.621ZM150.323 210.479C149.111 210.435 148.324 209.674 148.363 208.579C148.401 207.537 149.227 206.91 150.635 206.879L152.384 206.842L152.402 206.333C152.429 205.589 151.953 205.126 151.11 205.096C150.325 205.067 149.82 205.419 149.67 206.011L148.686 205.976C148.794 204.924 149.725 204.149 151.166 204.201C152.594 204.252 153.468 205.058 153.424 206.27L153.273 210.48L152.306 210.445L152.344 209.397L152.321 209.396C151.933 210.08 151.143 210.509 150.323 210.479ZM154.571 210.527L154.791 204.437L155.81 204.474L155.59 210.564L154.571 210.527ZM155.338 203.431C154.992 203.418 154.716 203.121 154.728 202.776C154.741 202.424 155.038 202.154 155.383 202.166C155.735 202.179 156.011 202.47 155.999 202.821C155.986 203.167 155.689 203.444 155.338 203.431ZM156.971 210.614L157.276 202.164L158.295 202.201L157.99 210.65L156.971 210.614ZM160.177 210.788C159.802 210.774 159.52 210.471 159.533 210.096C159.547 209.722 159.85 209.439 160.225 209.453C160.6 209.466 160.882 209.77 160.868 210.144C160.855 210.519 160.551 210.801 160.177 210.788ZM167.17 206.883L166.175 206.847C166.053 206.18 165.557 205.617 164.661 205.585C163.607 205.547 162.861 206.394 162.811 207.776C162.76 209.193 163.456 210.056 164.51 210.094C165.341 210.124 165.902 209.705 166.104 208.979L167.105 209.015C166.903 210.222 165.854 211.04 164.472 210.99C162.785 210.929 161.704 209.7 161.775 207.738C161.844 205.818 163.007 204.628 164.687 204.689C166.21 204.744 167.081 205.784 167.17 206.883ZM170.443 211.205C168.757 211.145 167.665 209.891 167.735 207.953C167.805 206.009 168.984 204.844 170.671 204.905C172.351 204.966 173.444 206.213 173.374 208.157C173.304 210.095 172.124 211.266 170.443 211.205ZM170.476 210.31C171.553 210.348 172.285 209.554 172.337 208.119C172.389 206.685 171.716 205.84 170.638 205.801C169.561 205.762 168.823 206.556 168.771 207.991C168.719 209.425 169.398 210.271 170.476 210.31ZM174.246 211.237L174.466 205.147L175.426 205.182L175.391 206.154L175.415 206.155C175.725 205.521 176.361 205.11 177.181 205.14C178.013 205.17 178.612 205.614 178.849 206.361L178.872 206.362C179.238 205.648 179.968 205.241 180.823 205.271C182.029 205.315 182.78 206.128 182.736 207.334L182.585 211.538L181.566 211.501L181.709 207.531C181.739 206.7 181.294 206.191 180.492 206.162C179.684 206.133 179.094 206.71 179.065 207.536L178.925 211.406L177.906 211.369L178.053 207.288C178.08 206.556 177.605 206.058 176.85 206.031C176.042 206.002 175.433 206.613 175.403 207.456L175.265 211.274L174.246 211.237Z" fill="#0E0E0F"/>
<path d="M65.0375 238.237L67.7898 238.336C69.2144 238.388 70.171 239.405 70.1194 240.835C70.0676 242.27 69.0195 243.22 67.5797 243.168L66.0026 243.111L65.912 245.619L64.7724 245.578L65.0375 238.237ZM66.1424 239.24L66.0371 242.155L67.3446 242.202C68.3367 242.238 68.9207 241.724 68.9541 240.798C68.9876 239.872 68.4419 239.323 67.455 239.287L66.1424 239.24ZM70.7428 245.794L71.0078 238.452L72.0966 238.492L71.9924 241.376L72.0179 241.377C72.3355 240.762 72.9337 240.422 73.7477 240.451C74.9229 240.494 75.5967 241.303 75.553 242.514L75.4285 245.963L74.3245 245.923L74.4413 242.687C74.4697 241.899 74.09 241.411 73.3167 241.383C72.5027 241.354 71.9839 241.896 71.9534 242.74L71.8417 245.833L70.7428 245.794ZM78.6835 246.182C77.1521 246.127 76.1828 245.038 76.2451 243.313C76.3072 241.593 77.3576 240.577 78.8839 240.632C80.4101 240.687 81.3846 241.777 81.3225 243.496C81.2602 245.221 80.2149 246.238 78.6835 246.182ZM78.7162 245.277C79.5811 245.308 80.1602 244.646 80.2032 243.456C80.246 242.27 79.711 241.568 78.8512 241.537C77.9914 241.506 77.4071 242.168 77.3643 243.353C77.3214 244.544 77.8564 245.246 78.7162 245.277ZM81.9713 246.199L82.1645 240.847L83.2126 240.885L83.1802 241.78L83.2057 241.781C83.5177 241.181 84.1011 240.825 84.9253 240.855C86.1056 240.898 86.7551 241.675 86.7108 242.901L86.5857 246.366L85.4817 246.326L85.5991 243.075C85.6281 242.271 85.2676 241.815 84.5045 241.787C83.7312 241.759 83.2127 242.291 83.1828 243.12L83.0702 246.239L81.9713 246.199ZM89.9481 241.918C89.1799 241.89 88.6195 242.455 88.5343 243.262L91.2104 243.359C91.2145 242.539 90.7164 241.945 89.9481 241.918ZM91.1477 244.956L92.1906 244.994C92.0027 245.965 91.0516 246.629 89.8255 246.585C88.2534 246.528 87.3405 245.43 87.4014 243.741C87.462 242.062 88.4691 240.978 89.9801 241.032C91.4657 241.086 92.3538 242.167 92.2952 243.79L92.2816 244.167L88.5015 244.03L88.4991 244.097C88.4655 245.028 89.0029 245.663 89.8831 245.695C90.5089 245.718 90.9832 245.419 91.1477 244.956ZM96.199 246.713L95.0899 246.673L95.355 239.331L96.3878 239.369L99.9978 244.919L100.039 244.921L100.234 239.507L101.343 239.547L101.078 246.889L100.05 246.852L96.4401 241.306L96.3943 241.305L96.199 246.713ZM106.982 241.743L106.789 247.095L105.736 247.057L105.769 246.151L105.743 246.15C105.425 246.781 104.867 247.122 104.048 247.093C102.883 247.051 102.198 246.267 102.243 245.041L102.368 241.576L103.467 241.616L103.349 244.867C103.32 245.681 103.691 246.132 104.449 246.16C105.242 246.188 105.741 245.656 105.771 244.822L105.883 241.703L106.982 241.743ZM107.773 247.131L107.967 241.778L109.015 241.816L108.982 242.717L109.008 242.718C109.268 242.131 109.842 241.754 110.565 241.781C111.307 241.807 111.833 242.208 112.023 242.883L112.048 242.883C112.346 242.242 112.991 241.868 113.755 241.896C114.813 241.934 115.479 242.661 115.441 243.724L115.308 247.403L114.204 247.363L114.327 243.949C114.352 243.257 113.995 242.847 113.344 242.823C112.693 242.8 112.223 243.267 112.198 243.943L112.078 247.286L110.999 247.247L111.125 243.752C111.147 243.136 110.77 242.73 110.149 242.708C109.498 242.684 109.017 243.176 108.992 243.863L108.872 247.17L107.773 247.131ZM119.113 247.632C118.33 247.603 117.738 247.2 117.43 246.567L117.409 246.567L117.376 247.477L116.308 247.439L116.573 240.097L117.672 240.137L117.567 243.037L117.593 243.038C117.936 242.429 118.56 242.074 119.318 242.102C120.666 242.15 121.508 243.25 121.446 244.945C121.385 246.644 120.471 247.681 119.113 247.632ZM118.984 243.017C118.15 242.987 117.538 243.698 117.498 244.802C117.458 245.916 118.017 246.66 118.852 246.69C119.716 246.721 120.276 246.038 120.317 244.904C120.358 243.779 119.849 243.048 118.984 243.017ZM124.509 243.165C123.74 243.137 123.18 243.703 123.095 244.51L125.771 244.607C125.775 243.787 125.277 243.193 124.509 243.165ZM125.708 246.204L126.751 246.242C126.563 247.213 125.612 247.876 124.386 247.832C122.814 247.775 121.901 246.678 121.962 244.989C122.023 243.31 123.03 242.225 124.541 242.28C126.026 242.334 126.914 243.415 126.856 245.038L126.842 245.414L123.062 245.278L123.06 245.344C123.026 246.275 123.564 246.911 124.444 246.943C125.069 246.965 125.544 246.667 125.708 246.204ZM127.506 247.843L127.699 242.491L128.747 242.529L128.714 243.439L128.74 243.44C128.94 242.821 129.432 242.467 130.063 242.489C130.221 242.495 130.357 242.526 130.438 242.544L130.401 243.566C130.316 243.528 130.123 243.495 129.91 243.488C129.203 243.462 128.748 243.919 128.721 244.677L128.605 247.883L127.506 247.843Z" fill="#0E0E0F"/>
<rect x="64.1673" y="253.892" width="312.58" height="40.9599" rx="20.48" transform="rotate(2.06748 64.1673 253.892)" fill="white"/>
<rect x="64.1673" y="253.892" width="312.58" height="40.9599" rx="20.48" transform="rotate(2.06748 64.1673 253.892)" stroke="#CFD2D6" stroke-width="0.744726"/>
<g clip-path="url(#clip1_3088_3243)">
<mask id="mask0_3088_3243" style="mask-type:alpha" maskUnits="userSpaceOnUse" x="74" y="268" width="15" height="14">
<path d="M81.4206 281.715C85.1199 281.848 88.227 278.958 88.3606 275.258C88.4941 271.559 85.6035 268.452 81.9042 268.318C78.2049 268.185 75.0978 271.076 74.9643 274.775C74.8307 278.474 77.7213 281.581 81.4206 281.715Z" fill="white"/>
</mask>
<g mask="url(#mask0_3088_3243)">
<path d="M74.9643 274.775L81.9042 268.318L88.6024 268.56L88.5498 270.018L87.9756 270.901L88.4868 271.763L88.4237 273.511L87.8381 274.346L88.3606 275.258L88.2975 277.006L87.6396 277.813L88.2344 278.754L88.1714 280.499L81.3654 280.995L74.7751 280.016L74.8381 278.27L75.5786 277.425L74.9012 276.523L74.9643 274.775Z" fill="#CFD2D6"/>
<path d="M81.6623 275.017L88.3605 275.259L88.4236 273.511L81.2256 273.251L81.6623 275.017ZM81.2887 271.503L88.4867 271.763L88.5497 270.018L81.3517 269.758L81.2887 271.503ZM88.1187 281.957L88.1713 280.499L74.7749 280.016L74.7223 281.473L88.1187 281.957ZM74.8379 278.271L88.2343 278.754L88.2974 277.006L74.901 276.523L74.8379 278.271Z" fill="#D80027"/>
<path d="M75.2061 268.077L81.9042 268.318L81.6624 275.017L74.9643 274.775L75.2061 268.077Z" fill="#0052B4"/>
<path d="M75.5847 268.47L75.3487 269.13L74.6449 269.104L75.1977 269.538L74.9565 270.198L75.5365 269.805L76.0868 270.239L75.8962 269.566L76.4816 269.171L75.7804 269.145L75.5847 268.47ZM77.9866 268.557L77.7454 269.216L77.0442 269.191L77.597 269.625L77.3558 270.284L77.9385 269.891L78.4913 270.325L78.2981 269.653L78.8835 269.257L78.1823 269.232L77.9866 268.557ZM80.3912 268.644L80.1498 269.306L79.4486 269.28L80.0015 269.714L79.7602 270.374L80.3429 269.981L80.8932 270.412L80.7026 269.742L81.2855 269.344L80.5843 269.319L80.3912 268.644ZM75.5142 270.425L75.2729 271.084L74.5743 271.059L75.1272 271.493L74.8859 272.152L75.4662 271.754L76.0165 272.185L75.8258 271.515L76.4087 271.117L75.7101 271.092L75.5142 270.425ZM77.9161 270.512L77.6748 271.171L76.9762 271.146L77.5291 271.58L77.2878 272.239L77.8705 271.846L78.4208 272.277L78.2302 271.607L78.8131 271.209L78.1119 271.184L77.9161 270.512ZM80.318 270.598L80.0767 271.258L79.3755 271.232L79.9284 271.666L79.6871 272.326L80.2698 271.933L80.8202 272.364L80.6295 271.694L81.2124 271.296L80.5138 271.271L80.318 270.598ZM75.4439 272.371L75.2026 273.031L74.504 273.006L75.0542 273.442L74.8129 274.101L75.3957 273.706L75.9486 274.14L75.7554 273.467L76.3382 273.072L75.637 273.047L75.4439 272.371ZM77.8458 272.458L77.6045 273.118L76.9033 273.092L77.4561 273.529L77.2148 274.188L77.7975 273.795L78.3504 274.229L78.1572 273.557L78.74 273.161L78.0388 273.136L77.8458 272.458ZM80.2477 272.545L80.0065 273.204L79.3053 273.179L79.8581 273.613L79.6169 274.272L80.1995 273.879L80.7524 274.313L80.5592 273.641L81.142 273.245L80.4434 273.22L80.2477 272.545Z" fill="#CFD2D6"/>
</g>
</g>
<path d="M98.7606 277.276L98.6638 279.957L97.7152 279.923L97.812 277.241L95.3117 277.151L95.346 276.202L97.8463 276.293L97.9408 273.675L98.8894 273.71L98.7949 276.327L101.295 276.417L101.261 277.366L98.7606 277.276ZM104.26 280.335L104.525 273.004L104.501 273.003L102.206 274.533L102.247 273.42L104.553 271.885L105.584 271.923L105.279 280.372L104.26 280.335Z" fill="#0E0E0F"/>
<path d="M117.661 278.105C117.401 278.095 117.144 277.986 116.954 277.781L114.615 275.267C114.511 275.156 114.517 274.977 114.629 274.873C114.741 274.769 114.92 274.775 115.024 274.887L117.362 277.401C117.535 277.586 117.825 277.597 118.01 277.424L120.524 275.086C120.635 274.982 120.814 274.988 120.918 275.1C121.022 275.212 121.016 275.39 120.904 275.494L118.39 277.833C118.186 278.023 117.922 278.114 117.661 278.105Z" fill="#474B54"/>
<path d="M356.077 264.43C367.381 264.838 376.213 274.332 375.805 285.636C375.396 296.939 365.903 305.771 354.6 305.363L133.732 297.39L135.209 256.456L356.077 264.43Z" fill="white"/>
<path d="M356.077 264.43C367.381 264.838 376.213 274.332 375.805 285.636C375.396 296.939 365.903 305.771 354.6 305.363L133.732 297.39L135.209 256.456L356.077 264.43Z" stroke="#CFD2D6" stroke-width="0.744726"/>
<path d="M149.482 282.109C147.508 282.037 146.428 280.298 146.524 277.628C146.62 274.981 147.835 273.307 149.797 273.378C151.758 273.449 152.839 275.194 152.743 277.847C152.646 280.517 151.449 282.18 149.482 282.109ZM149.515 281.189C150.832 281.237 151.607 279.922 151.683 277.814C151.758 275.735 151.069 274.35 149.763 274.303C148.457 274.256 147.659 275.599 147.584 277.66C147.508 279.768 148.191 281.142 149.515 281.189ZM155.792 282.196L156.057 274.865L156.033 274.864L153.738 276.393L153.778 275.281L156.085 273.746L157.116 273.783L156.811 282.233L155.792 282.196ZM160.768 278.471L160.8 277.58L161.813 277.617C162.785 277.652 163.487 277.05 163.518 276.195C163.548 275.358 163.001 274.769 161.929 274.731C160.957 274.696 160.293 275.229 160.167 276.109L159.154 276.073C159.323 274.642 160.422 273.762 162.009 273.819C163.52 273.873 164.629 274.822 164.583 276.093C164.545 277.153 163.838 277.889 162.777 278.039L162.776 278.062C164.05 278.184 164.841 279.005 164.799 280.193C164.746 281.645 163.386 282.611 161.729 282.551C159.961 282.487 158.866 281.468 158.84 280.066L159.853 280.103C159.916 280.973 160.614 281.596 161.75 281.637C162.869 281.677 163.694 281.074 163.726 280.19C163.762 279.194 163.034 278.552 161.828 278.509L160.768 278.471ZM168.854 282.808C167.238 282.75 166.08 281.699 166.044 280.256L167.08 280.293C167.142 281.198 167.886 281.847 168.899 281.883C170.047 281.925 170.872 281.157 170.913 280.021C170.954 278.885 170.181 278.042 169.057 278.002C168.267 277.973 167.58 278.306 167.213 278.885L166.224 278.849L166.857 274.135L171.694 274.309L171.66 275.246L167.69 275.103L167.333 277.846L167.356 277.846C167.755 277.351 168.469 277.072 169.277 277.101C170.899 277.159 172.027 278.39 171.968 280.03C171.907 281.728 170.617 282.872 168.854 282.808ZM176.939 282.959L177.002 281.203L172.757 281.049L172.791 280.095C173.56 278.786 174.605 277.281 176.705 274.49L178.263 274.546L178.054 280.314L179.249 280.357L179.216 281.282L178.021 281.239L177.958 282.996L176.939 282.959ZM173.833 280.138L173.833 280.162L177.036 280.277L177.212 275.388L177.195 275.387C175.514 277.613 174.543 278.991 173.833 280.138ZM183.186 283.331C181.921 283.286 180.939 282.564 180.462 281.327C180.204 280.667 180.097 279.901 180.13 278.988C180.233 276.142 181.505 274.517 183.572 274.591C185.007 274.643 186.076 275.544 186.298 276.883L185.226 276.844C185.026 276.069 184.364 275.552 183.527 275.522C182.115 275.471 181.268 276.695 181.152 278.943L181.169 278.943C181.58 278.131 182.53 277.62 183.579 277.658C185.189 277.716 186.34 278.948 186.283 280.553C186.222 282.221 184.919 283.394 183.186 283.331ZM183.208 282.394C184.286 282.433 185.171 281.615 185.21 280.549C185.25 279.442 184.482 278.617 183.364 278.577C182.245 278.536 181.391 279.303 181.352 280.38C181.313 281.464 182.125 282.355 183.208 282.394ZM190.165 283.577C188.549 283.519 187.391 282.469 187.355 281.025L188.391 281.063C188.452 281.968 189.197 282.616 190.21 282.653C191.358 282.694 192.183 281.926 192.224 280.79C192.265 279.654 191.492 278.812 190.368 278.771C189.577 278.742 188.891 279.075 188.524 279.654L187.535 279.619L188.168 274.904L193.005 275.079L192.971 276.015L189.001 275.872L188.644 278.615L188.667 278.616C189.066 278.12 189.78 277.841 190.588 277.87C192.21 277.929 193.338 279.16 193.279 280.799C193.218 282.497 191.928 283.641 190.165 283.577ZM194.719 283.601L198.813 276.25L198.814 276.226L194.264 276.062L194.298 275.125L199.89 275.327L199.854 276.305L195.825 283.641L194.719 283.601ZM203.642 284.064C201.856 283.999 200.616 282.94 200.667 281.529C200.705 280.475 201.463 279.635 202.561 279.422L202.562 279.399C201.659 279.085 201.117 278.344 201.149 277.454C201.195 276.177 202.388 275.277 203.957 275.333C205.538 275.39 206.646 276.368 206.6 277.657C206.568 278.535 205.986 279.229 205.056 279.489L205.055 279.512C206.141 279.809 206.836 280.702 206.798 281.75C206.747 283.167 205.434 284.129 203.642 284.064ZM203.675 283.145C204.841 283.187 205.69 282.555 205.723 281.635C205.757 280.704 204.955 280.019 203.79 279.977C202.63 279.935 201.775 280.567 201.742 281.492C201.708 282.411 202.516 283.103 203.675 283.145ZM203.823 279.052C204.807 279.087 205.525 278.532 205.554 277.713C205.584 276.881 204.914 276.277 203.925 276.241C202.935 276.205 202.223 276.766 202.193 277.591C202.164 278.411 202.834 279.016 203.823 279.052ZM211.903 284.221L211.966 282.465L207.721 282.311L207.755 281.357C208.524 280.048 209.569 278.544 211.669 275.752L213.226 275.809L213.018 281.576L214.213 281.619L214.179 282.545L212.985 282.501L212.921 284.258L211.903 284.221ZM208.797 281.4L208.796 281.424L211.999 281.54L212.176 276.65L212.158 276.649C210.477 278.875 209.507 280.253 208.797 281.4Z" fill="#0E0E0F"/>
<rect x="61.4385" y="319.168" width="313.324" height="41.7046" rx="20.8523" transform="rotate(2.06748 61.4385 319.168)" fill="#7D00FF"/>
<path d="M195.321 341.286L195.193 344.831L197.338 344.909C198.52 344.951 199.22 344.327 199.261 343.2C199.3 342.1 198.607 341.404 197.425 341.362L195.321 341.286ZM195.149 346.068L195.012 349.859L193.482 349.804L193.837 339.946L197.656 340.084C199.685 340.157 200.907 341.378 200.84 343.216C200.792 344.548 200.043 345.602 198.826 345.961L200.887 350.071L199.124 350.008L197.253 346.144L195.149 346.068ZM204.958 344.083C203.926 344.045 203.174 344.805 203.059 345.888L206.653 346.018C206.658 344.917 205.989 344.12 204.958 344.083ZM206.568 348.163L207.969 348.213C207.717 349.518 206.44 350.409 204.793 350.349C202.682 350.273 201.456 348.799 201.538 346.531C201.62 344.277 202.972 342.821 205.001 342.894C206.996 342.966 208.188 344.418 208.109 346.597L208.091 347.103L203.015 346.92L203.012 347.008C202.967 348.259 203.689 349.112 204.87 349.155C205.711 349.185 206.348 348.784 206.568 348.163ZM212.086 349.279C213.241 349.32 214.033 348.412 214.086 346.929C214.14 345.454 213.416 344.456 212.262 344.415C211.128 344.374 210.356 345.297 210.302 346.793C210.247 348.296 210.952 349.238 212.086 349.279ZM211.959 353.18C210.265 353.119 209.04 352.172 208.901 350.922L210.383 350.975C210.573 351.584 211.215 352.004 212.055 352.034C213.21 352.076 213.916 351.445 213.952 350.461L213.995 349.279L213.967 349.278C213.536 350.042 212.671 350.524 211.646 350.487C209.842 350.422 208.711 348.972 208.792 346.731C208.874 344.47 210.1 343.092 211.945 343.158C212.962 343.195 213.777 343.737 214.185 344.587L214.212 344.588L214.256 343.358L215.691 343.41L215.436 350.467C215.374 352.181 214.008 353.254 211.959 353.18ZM216.801 350.646L217.061 343.459L218.536 343.512L218.277 350.699L216.801 350.646ZM217.836 342.434C217.365 342.417 216.996 342.027 217.013 341.563C217.03 341.091 217.426 340.729 217.897 340.746C218.376 340.764 218.745 341.153 218.728 341.625C218.711 342.089 218.315 342.451 217.836 342.434ZM219.703 345.593C219.749 344.309 220.915 343.468 222.596 343.529C224.194 343.587 225.282 344.522 225.284 345.801L223.897 345.751C223.852 345.1 223.341 344.678 222.514 344.648C221.715 344.619 221.168 344.989 221.148 345.556C221.131 346 221.476 346.314 222.214 346.525L223.413 346.849C224.849 347.249 225.375 347.816 225.337 348.875C225.29 350.186 224.034 351.044 222.272 350.98C220.571 350.919 219.475 349.997 219.407 348.674L220.869 348.727C220.96 349.421 221.479 349.823 222.381 349.856C223.269 349.888 223.829 349.538 223.85 348.958C223.866 348.5 223.602 348.237 222.858 348.019L221.585 347.658C220.298 347.297 219.667 346.597 219.703 345.593ZM227.021 342.116L228.504 342.169L228.442 343.87L229.809 343.919L229.766 345.088L228.4 345.038L228.257 349.001C228.235 349.622 228.498 349.912 229.099 349.934C229.249 349.939 229.489 349.934 229.585 349.917L229.543 351.085C229.378 351.12 229.049 351.136 228.721 351.124C227.266 351.072 226.719 350.498 226.769 349.111L226.918 344.985L225.872 344.947L225.915 343.779L226.96 343.817L227.021 342.116ZM233.675 345.119C232.643 345.082 231.891 345.841 231.776 346.925L235.37 347.055C235.375 345.954 234.706 345.156 233.675 345.119ZM235.285 349.2L236.686 349.25C236.433 350.554 235.156 351.445 233.51 351.386C231.399 351.31 230.173 349.836 230.255 347.568C230.336 345.313 231.689 343.857 233.718 343.931C235.712 344.003 236.905 345.455 236.826 347.634L236.808 348.14L231.732 347.956L231.729 348.045C231.684 349.295 232.405 350.149 233.587 350.192C234.428 350.222 235.065 349.821 235.285 349.2ZM237.699 351.4L237.959 344.214L239.366 344.264L239.322 345.487L239.356 345.489C239.626 344.657 240.286 344.181 241.133 344.212C241.345 344.22 241.528 344.26 241.636 344.285L241.587 345.658C241.472 345.606 241.214 345.562 240.927 345.552C239.977 345.518 239.367 346.132 239.33 347.15L239.175 351.454L237.699 351.4Z" fill="white"/>
<path d="M142.055 392.533L141.293 390.084L137.932 389.962L136.996 392.35L135.889 392.31L139.31 383.973L140.352 384.01L143.162 392.572L142.055 392.533ZM139.767 385.273L138.275 389.077L141.015 389.176L139.802 385.275L139.767 385.273ZM143.975 392.602L144.28 384.152L145.299 384.189L144.994 392.639L143.975 392.602ZM146.322 392.687L146.542 386.597L147.502 386.631L147.466 387.627L147.489 387.628C147.713 386.962 148.29 386.554 149.005 386.58C149.18 386.586 149.332 386.621 149.413 386.636L149.377 387.626C149.296 387.593 149.081 387.556 148.835 387.547C148.044 387.519 147.509 388.068 147.478 388.929L147.341 392.723L146.322 392.687ZM152.315 387.585C151.361 387.551 150.667 388.258 150.566 389.269L153.874 389.388C153.888 388.369 153.275 387.62 152.315 387.585ZM153.785 391.209L154.786 391.245C154.572 392.304 153.513 393.052 152.184 393.004C150.439 392.941 149.423 391.69 149.492 389.776C149.56 387.884 150.684 386.641 152.365 386.701C154.01 386.761 154.98 387.992 154.913 389.836L154.899 390.223L150.531 390.065L150.529 390.124C150.487 391.289 151.144 392.081 152.239 392.12C153.012 392.148 153.594 391.776 153.785 391.209ZM157.818 392.339C158.778 392.374 159.54 391.727 159.572 390.849L159.59 390.351L157.959 390.392C157.137 390.415 156.655 390.761 156.635 391.335C156.614 391.915 157.086 392.313 157.818 392.339ZM157.558 393.198C156.346 393.154 155.559 392.393 155.598 391.298C155.636 390.255 156.462 389.628 157.87 389.597L159.619 389.561L159.637 389.051C159.664 388.308 159.188 387.845 158.345 387.814C157.56 387.786 157.055 388.137 156.905 388.73L155.921 388.694C156.029 387.643 156.96 386.867 158.401 386.919C159.829 386.971 160.703 387.776 160.659 388.988L160.507 393.199L159.541 393.164L159.579 392.116L159.556 392.115C159.168 392.798 158.378 393.227 157.558 393.198ZM164.057 393.432C162.505 393.376 161.496 392.097 161.565 390.188C161.634 388.279 162.727 387.075 164.261 387.131C165.133 387.162 165.821 387.615 166.16 388.296L166.183 388.297L166.304 384.947L167.323 384.984L167.018 393.434L166.046 393.399L166.083 392.368L166.065 392.367C165.648 393.056 164.935 393.464 164.057 393.432ZM164.445 388.035C163.368 387.996 162.657 388.85 162.607 390.226C162.557 391.607 163.205 392.504 164.282 392.543C165.331 392.581 166.065 391.717 166.115 390.352C166.164 388.994 165.493 388.072 164.445 388.035ZM168.767 395.778C168.644 395.773 168.44 395.754 168.329 395.727L168.36 394.872C168.471 394.899 168.628 394.911 168.757 394.915C169.325 394.936 169.651 394.672 169.911 393.972L170.067 393.55L168.039 387.373L169.128 387.412L170.631 392.544L170.649 392.545L172.518 387.535L173.59 387.573L170.96 394.004C170.387 395.408 169.868 395.817 168.767 395.778ZM176.594 393.779L176.899 385.33L177.918 385.367L177.798 388.698L177.821 388.699C178.185 388.032 178.867 387.658 179.792 387.692C181.127 387.74 181.903 388.671 181.854 390.029L181.712 393.964L180.693 393.927L180.828 390.18C180.863 389.214 180.398 388.616 179.444 388.582C178.431 388.545 177.779 389.214 177.741 390.268L177.613 393.816L176.594 393.779ZM184.994 393.32C185.954 393.355 186.716 392.708 186.748 391.83L186.766 391.332L185.135 391.373C184.313 391.396 183.831 391.742 183.811 392.316C183.79 392.896 184.262 393.294 184.994 393.32ZM184.734 394.179C183.522 394.135 182.735 393.374 182.774 392.279C182.812 391.236 183.638 390.61 185.046 390.578L186.795 390.542L186.813 390.032C186.84 389.289 186.364 388.826 185.521 388.795C184.736 388.767 184.231 389.118 184.081 389.711L183.097 389.675C183.205 388.624 184.136 387.848 185.577 387.9C187.005 387.952 187.879 388.757 187.835 389.97L187.683 394.18L186.717 394.145L186.755 393.097L186.732 393.096C186.343 393.78 185.554 394.208 184.734 394.179ZM194.144 388.315L191.687 394.324L190.645 394.287L188.622 388.116L189.694 388.155L191.194 393.222L191.217 393.223L193.084 388.277L194.144 388.315ZM197.136 389.203C196.182 389.169 195.488 389.876 195.387 390.887L198.695 391.007C198.709 389.987 198.097 389.238 197.136 389.203ZM198.606 392.827L199.607 392.863C199.393 393.922 198.334 394.67 197.005 394.622C195.26 394.559 194.244 393.308 194.313 391.394C194.382 389.502 195.505 388.259 197.186 388.319C198.831 388.379 199.801 389.61 199.735 391.454L199.721 391.841L195.352 391.683L195.35 391.742C195.308 392.907 195.966 393.699 197.061 393.738C197.834 393.766 198.416 393.394 198.606 392.827ZM205.051 394.044C206.011 394.079 206.773 393.432 206.805 392.554L206.823 392.056L205.191 392.097C204.37 392.12 203.888 392.466 203.867 393.04C203.846 393.62 204.319 394.018 205.051 394.044ZM204.791 394.903C203.579 394.859 202.791 394.098 202.831 393.003C202.868 391.96 203.694 391.334 205.103 391.302L206.851 391.266L206.87 390.756C206.896 390.013 206.421 389.55 205.577 389.519C204.793 389.491 204.288 389.842 204.137 390.435L203.153 390.399C203.262 389.348 204.193 388.572 205.633 388.624C207.062 388.676 207.936 389.481 207.892 390.694L207.74 394.904L206.774 394.869L206.812 393.821L206.788 393.82C206.4 394.504 205.611 394.932 204.791 394.903ZM208.986 394.949L209.206 388.859L210.166 388.894L210.131 389.866L210.155 389.866C210.518 389.223 211.183 388.825 212.126 388.859C213.461 388.907 214.203 389.796 214.153 391.178L214.01 395.13L212.991 395.093L213.127 391.322C213.163 390.339 212.72 389.783 211.783 389.749C210.823 389.715 210.172 390.371 210.134 391.402L210.005 394.985L208.986 394.949ZM219.709 394.574C220.67 394.608 221.432 393.962 221.464 393.083L221.482 392.585L219.85 392.626C219.028 392.649 218.547 392.995 218.526 393.569C218.505 394.149 218.978 394.547 219.709 394.574ZM219.45 395.432C218.238 395.388 217.45 394.627 217.49 393.532C217.527 392.49 218.353 391.863 219.762 391.832L221.51 391.795L221.529 391.286C221.555 390.542 221.08 390.079 220.236 390.049C219.452 390.02 218.947 390.371 218.796 390.964L217.812 390.929C217.921 389.877 218.852 389.102 220.292 389.154C221.721 389.205 222.595 390.011 222.551 391.223L222.399 395.433L221.433 395.398L221.471 394.35L221.447 394.349C221.059 395.033 220.27 395.462 219.45 395.432ZM228.852 391.568L227.857 391.532C227.734 390.865 227.238 390.301 226.343 390.269C225.289 390.231 224.543 391.078 224.493 392.46C224.442 393.877 225.138 394.74 226.192 394.778C227.023 394.808 227.583 394.389 227.786 393.663L228.787 393.699C228.585 394.906 227.535 395.724 226.153 395.674C224.467 395.613 223.386 394.384 223.456 392.422C223.526 390.502 224.689 389.312 226.369 389.373C227.891 389.428 228.763 390.468 228.852 391.568ZM234.812 391.783L233.816 391.747C233.694 391.08 233.198 390.517 232.302 390.484C231.248 390.446 230.503 391.293 230.453 392.675C230.401 394.092 231.097 394.955 232.151 394.993C232.983 395.023 233.543 394.604 233.745 393.878L234.747 393.914C234.545 395.121 233.495 395.939 232.113 395.889C230.427 395.828 229.345 394.599 229.416 392.637C229.486 390.717 230.648 389.527 232.329 389.588C233.851 389.643 234.723 390.683 234.812 391.783ZM238.085 396.105C236.398 396.044 235.306 394.791 235.376 392.853C235.446 390.908 236.626 389.743 238.312 389.804C239.993 389.865 241.085 391.112 241.015 393.056C240.945 394.994 239.765 396.165 238.085 396.105ZM238.117 395.209C239.194 395.248 239.927 394.453 239.979 393.019C240.03 391.584 239.357 390.739 238.28 390.7C237.202 390.661 236.464 391.455 236.412 392.89C236.361 394.325 237.04 395.17 238.117 395.209ZM247.108 390.227L246.888 396.317L245.922 396.282L245.958 395.293L245.934 395.292C245.546 395.981 244.899 396.351 243.963 396.317C242.633 396.269 241.886 395.38 241.936 393.998L242.078 390.046L243.097 390.082L242.961 393.853C242.925 394.843 243.369 395.393 244.311 395.427C245.301 395.462 245.923 394.805 245.96 393.768L246.089 390.19L247.108 390.227ZM248.164 396.363L248.384 390.273L249.344 390.308L249.309 391.28L249.332 391.281C249.695 390.637 250.361 390.239 251.303 390.273C252.638 390.321 253.38 391.21 253.33 392.592L253.188 396.544L252.169 396.508L252.305 392.737C252.341 391.753 251.897 391.197 250.96 391.164C250 391.129 249.349 391.786 249.312 392.816L249.183 396.4L248.164 396.363ZM255.041 389.042L256.059 389.079L256.006 390.548L257.189 390.591L257.159 391.428L255.976 391.386L255.845 395.005C255.825 395.561 256.051 395.821 256.572 395.84C256.689 395.844 256.924 395.835 256.994 395.826L256.963 396.681C256.839 396.706 256.558 396.713 256.318 396.704C255.199 396.664 254.782 396.192 254.825 395.02L254.957 391.349L254.05 391.316L254.08 390.479L254.987 390.512L255.041 389.042ZM257.902 390.464C258.012 389.202 258.892 388.225 260.537 388.285C262.013 388.338 262.987 389.288 262.943 390.494C262.91 391.413 262.412 392.046 261.647 392.47C260.887 392.882 260.664 393.203 260.642 393.817L260.629 394.198L259.604 394.161L259.623 393.622C259.645 392.849 260.039 392.336 260.859 391.885C261.553 391.493 261.83 391.134 261.852 390.507C261.879 389.781 261.336 389.228 260.463 389.197C259.579 389.165 258.998 389.666 258.903 390.501L257.902 390.464ZM260.023 396.85C259.648 396.836 259.366 396.533 259.379 396.158C259.393 395.778 259.696 395.501 260.071 395.515C260.451 395.528 260.728 395.826 260.714 396.206C260.701 396.581 260.403 396.864 260.023 396.85Z" fill="#6B7280"/>
<path d="M272.499 395.604L272.458 396.74L267.212 396.55L267.517 388.101L268.828 388.148L268.564 395.462L272.499 395.604ZM275.8 396.978C274.038 396.914 272.922 395.66 272.994 393.675C273.065 391.696 274.274 390.526 276.031 390.589C277.788 390.653 278.909 391.907 278.838 393.886C278.766 395.871 277.563 397.041 275.8 396.978ZM275.838 395.936C276.834 395.971 277.5 395.21 277.55 393.84C277.599 392.475 276.983 391.667 275.993 391.632C275.004 391.596 274.331 392.357 274.282 393.722C274.233 395.092 274.848 395.9 275.838 395.936ZM282.245 396.067C283.234 396.103 283.913 395.324 283.959 394.053C284.005 392.789 283.385 391.934 282.395 391.898C281.423 391.863 280.762 392.654 280.715 393.936C280.669 395.225 281.273 396.032 282.245 396.067ZM282.136 399.411C280.684 399.359 279.634 398.547 279.515 397.475L280.785 397.521C280.948 398.043 281.498 398.403 282.218 398.429C283.208 398.465 283.814 397.924 283.844 397.081L283.881 396.068L283.857 396.067C283.488 396.722 282.746 397.135 281.867 397.103C280.322 397.047 279.352 395.804 279.421 393.884C279.491 391.946 280.542 390.764 282.123 390.821C282.996 390.853 283.694 391.318 284.043 392.045L284.067 392.046L284.105 390.992L285.335 391.037L285.116 397.085C285.063 398.555 283.893 399.475 282.136 399.411ZM286.286 397.239L286.509 391.079L287.774 391.125L287.551 397.285L286.286 397.239ZM287.174 390.2C286.77 390.186 286.453 389.852 286.468 389.453C286.482 389.049 286.822 388.739 287.226 388.754C287.636 388.769 287.952 389.102 287.938 389.507C287.923 389.905 287.584 390.215 287.174 390.2ZM288.725 397.327L288.948 391.167L290.154 391.211L290.117 392.241L290.146 392.242C290.505 391.552 291.177 391.142 292.125 391.176C293.484 391.225 294.231 392.12 294.18 393.531L294.036 397.519L292.766 397.473L292.901 393.731C292.934 392.806 292.519 392.281 291.641 392.249C290.751 392.217 290.154 392.829 290.12 393.783L289.99 397.373L288.725 397.327Z" fill="#7D00FF"/>
</g>
<rect x="53.0579" y="7.25884" width="352.58" height="403.27" rx="27.1825" transform="rotate(2.06748 53.0579 7.25884)" stroke="#E7E8EA" stroke-width="0.744726"/>
</g>
<defs>
<filter id="filter0_dddd_3088_3243" x="0.000217438" y="-0.975728" width="443.917" height="557.781" filterUnits="userSpaceOnUse" color-interpolation-filters="sRGB">
<feFlood flood-opacity="0" result="BackgroundImageFix"/>
<feColorMatrix in="SourceAlpha" type="matrix" values="0 0 0 0 0 0 0 0 0 0 0 0 0 0 0 0 0 0 127 0" result="hardAlpha"/>
<feOffset dy="5.60644"/>
<feGaussianBlur stdDeviation="6.72773"/>
<feColorMatrix type="matrix" values="0 0 0 0 0.231373 0 0 0 0 0.180392 0 0 0 0 0.278431 0 0 0 0.04 0"/>
<feBlend mode="normal" in2="BackgroundImageFix" result="effect1_dropShadow_3088_3243"/>
<feColorMatrix in="SourceAlpha" type="matrix" values="0 0 0 0 0 0 0 0 0 0 0 0 0 0 0 0 0 0 127 0" result="hardAlpha"/>
<feOffset dy="23.5471"/>
<feGaussianBlur stdDeviation="11.7735"/>
<feColorMatrix type="matrix" values="0 0 0 0 0.231373 0 0 0 0 0.180392 0 0 0 0 0.278431 0 0 0 0.03 0"/>
<feBlend mode="normal" in2="effect1_dropShadow_3088_3243" result="effect2_dropShadow_3088_3243"/>
<feColorMatrix in="SourceAlpha" type="matrix" values="0 0 0 0 0 0 0 0 0 0 0 0 0 0 0 0 0 0 127 0" result="hardAlpha"/>
<feOffset dy="53.8218"/>
<feGaussianBlur stdDeviation="16.2587"/>
<feColorMatrix type="matrix" values="0 0 0 0 0.231373 0 0 0 0 0.180392 0 0 0 0 0.278431 0 0 0 0.02 0"/>
<feBlend mode="normal" in2="effect2_dropShadow_3088_3243" result="effect3_dropShadow_3088_3243"/>
<feColorMatrix in="SourceAlpha" type="matrix" values="0 0 0 0 0 0 0 0 0 0 0 0 0 0 0 0 0 0 127 0" result="hardAlpha"/>
<feOffset dy="95.3095"/>
<feGaussianBlur stdDeviation="19.0619"/>
<feColorMatrix type="matrix" values="0 0 0 0 0.231373 0 0 0 0 0.180392 0 0 0 0 0.278431 0 0 0 0.01 0"/>
<feBlend mode="normal" in2="effect3_dropShadow_3088_3243" result="effect4_dropShadow_3088_3243"/>
<feBlend mode="normal" in="SourceGraphic" in2="effect4_dropShadow_3088_3243" result="shape"/>
</filter>
<clipPath id="clip0_3088_3243">
<rect x="52.6992" y="6.87329" width="353.324" height="404.015" rx="27.5548" transform="rotate(2.06748 52.6992 6.87329)" fill="white"/>
</clipPath>
<clipPath id="clip1_3088_3243">
<rect width="13.4051" height="13.4051" fill="white" transform="translate(75.2061 268.077) rotate(2.06748)"/>
</clipPath>
</defs>
</svg>
